{
.appVersion = "1243";
classes = (
{
automatic = 1;

glyphs = (
{
glyphname = A;
lastChange = "2019-06-02 21:20:01 +0000";
layers = (
{
anchors = (
{
name = bottom;
position = "{294, 0}";
},
{
name = ogonek;
position = "{617, 0}";
},
{
name = top;
position = "{420, 710}";
}
);
background = {
paths = (
{
closed = 1;
nodes = (
"50 0 LINE",
"425 644 LINE",
"397 644 LINE",
"533 0 LINE",
"617 0 LINE",
"459 710 LINE",
"388 710 LINE",
"-34 0 LINE"
);
},
{
closed = 1;
nodes = (
"528 187 LINE",
"513 257 LINE",
"168 257 LINE",
"129 187 LINE"
);
}
);
};
layerId = "A3B50665-EA37-4AC6-885C-1233CA61B6BD";
paths = (
{
closed = 1;
nodes = (
"54 0 LINE",
"429 644 LINE",
"401 644 LINE",
"537 0 LINE",
"617 0 LINE",
"459 710 LINE",
"388 710 LINE",
"-34 0 LINE"
);
},
{
closed = 1;
nodes = (
"528 187 LINE",
"513 257 LINE",
"168 257 LINE",
"129 187 LINE"
);
}
);
width = 675;
},
{
anchors = (
{
name = bottom;
position = "{303, 0}";
},
{
name = ogonek;
position = "{667, 0}";
},
{
name = top;
position = "{429, 710}";
}
);
background = {
anchors = (
{
name = bottom;
position = "{348, 0}";
},
{
name = ogonek;
position = "{712, 0}";
},
{
name = top;
position = "{348, 710}";
}
);
paths = (
{
closed = 1;
nodes = (
"138 0 LINE",
"378 589 LINE",
"322 591 LINE",
"555 0 LINE",
"712 0 LINE",
"417 710 LINE",
"286 710 LINE",
"-21 0 LINE"
);
},
{
closed = 1;
nodes = (
"564 149 LINE",
"503 279 LINE",
"202 279 LINE",
"139 149 LINE"
);
}
);
};
layerId = "014D4A40-7C7F-4023-B30E-1F55CE5EA091";
paths = (
{
closed = 1;
nodes = (
"98 0 LINE",
"443 589 LINE",
"387 591 LINE",
"515 0 LINE",
"667 0 LINE",
"498 710 LINE",
"367 710 LINE",
"-66 0 LINE"
);
},
{
closed = 1;
nodes = (
"546 149 LINE",
"508 279 LINE",
"207 279 LINE",
"121 149 LINE"
);
}
);
width = 695;
},
{
anchors = (
{
name = bottom;
position = "{288, 0}";
},
{
name = ogonek;
position = "{582, 0}";
},
{
name = top;
position = "{414, 710}";
}
);
background = {
anchors = (
{
name = bottom;
position = "{288, 0}";
},
{
name = ogonek;
position = "{582, 0}";
},
{
name = top;
position = "{414, 710}";
}
);
paths = (
{
closed = 1;
nodes = (
"21 0 LINE",
"417 683 LINE",
"409 682 LINE",
"550 0 LINE",
"582 0 LINE",
"432 710 LINE",
"403 710 LINE",
"-11 0 LINE"
);
},
{
closed = 1;
nodes = (
"516 214 LINE",
"517 241 LINE",
"140 241 LINE",
"136 214 LINE"
);
}
);
};
layerId = "7F092816-09A2-4631-A7F8-AD4571964C60";
paths = (
{
closed = 1;
nodes = (
"23 0 LINE",
"419 683 LINE",
"411 682 LINE",
"552 0 LINE",
"582 0 LINE",
"432 710 LINE",
"403 710 LINE",
"-11 0 LINE"
);
},
{
closed = 1;
nodes = (
"516 214 LINE",
"517 241 LINE",
"140 241 LINE",
"136 214 LINE"
);
}
);
width = 661;
},
{
anchors = (
{
name = bottom;
position = "{309, 0}";
},
{
name = ogonek;
position = "{697, 0}";
},
{
name = top;
position = "{435, 710}";
}
);
background = {
anchors = (
{
name = bottom;
position = "{309, 0}";
},
{
name = ogonek;
position = "{697, 0}";
},
{
name = top;
position = "{435, 710}";
}
);
paths = (
{
closed = 1;
nodes = (
"118 0 LINE",
"445 556 LINE",
"372 560 LINE",
"495 0 LINE",
"697 0 LINE",
"521 710 LINE",
"355 710 LINE",
"-84 0 LINE"
);
},
{
closed = 1;
nodes = (
"557 127 LINE",
"506 292 LINE",
"230 292 LINE",
"116 127 LINE"
);
}
);
};
layerId = "A0850C2E-74F0-4B2E-AE90-CE9FC07F2CBD";
paths = (
{
closed = 1;
nodes = (
"124 0 LINE",
"451 556 LINE",
"378 560 LINE",
"501 0 LINE",
"697 0 LINE",
"521 710 LINE",
"355 710 LINE",
"-84 0 LINE"
);
},
{
closed = 1;
nodes = (
"557 127 LINE",
"506 292 LINE",
"230 292 LINE",
"116 127 LINE"
);
}
);
width = 706.81818;
}
);
leftKerningGroup = A;
rightKerningGroup = A;
unicode = 0041;
},
{
glyphname = AE;
lastChange = "2019-05-31 12:22:43 +0000";
layers = (
{
anchors = (
{
name = bottom;
position = "{443, 0}";
},
{
name = top;
position = "{569, 710}";
}
);
background = {
anchors = (
{
name = bottom;
position = "{443, 0}";
},
{
name = top;
position = "{569, 710}";
}
);
paths = (
{
closed = 1;
nodes = (
"50 0 LINE",
"439 669 LINE",
"403 639 LINE",
"545 639 LINE",
"558 710 LINE",
"388 710 LINE",
"-34 0 LINE"
);
},
{
closed = 1;
nodes = (
"465 187 LINE",
"478 257 LINE",
"168 257 LINE",
"129 187 LINE"
);
},
{
closed = 1;
nodes = (
"934 710 LINE",
"528 710 LINE",
"402 0 LINE",
"815 0 LINE",
"835 71 LINE",
"496 71 LINE",
"541 325 LINE",
"856 325 LINE",
"868 396 LINE",
"553 396 LINE",
"596 639 LINE",
"921 639 LINE"
);
}
);
};
layerId = "A3B50665-EA37-4AC6-885C-1233CA61B6BD";
paths = (
{
closed = 1;
nodes = (
"54 0 LINE",
"443 669 LINE",
"403 639 LINE",
"545 639 LINE",
"558 710 LINE",
"388 710 LINE",
"-34 0 LINE"
);
},
{
closed = 1;
nodes = (
"465 187 LINE",
"478 257 LINE",
"168 257 LINE",
"129 187 LINE"
);
},
{
closed = 1;
nodes = (
"525 325 LINE",
"856 325 LINE",
"868 396 LINE",
"537 396 LINE"
);
},
{
closed = 1;
nodes = (
"596 639 LINE",
"921 639 LINE",
"934 710 LINE",
"527 710 LINE",
"402 0 LINE",
"815 0 LINE",
"835 71 LINE",
"496 71 LINE"
);
}
);
width = 899;
},
{
anchors = (
{
name = bottom;
position = "{477, 0}";
},
{
name = top;
position = "{603, 710}";
}
);
background = {
paths = (
{
closed = 1;
nodes = (
"93 0 LINE",
"449 609 LINE",
"397 576 LINE",
"544 576 LINE",
"568 710 LINE",
"367 710 LINE",
"-66 0 LINE"
);
},
{
closed = 1;
nodes = (
"468 147 LINE",
"492 281 LINE",
"207 281 LINE",
"120 147 LINE"
);
},
{
closed = 1;
nodes = (
"996 710 LINE",
"526 710 LINE",
"400 0 LINE",
"870 0 LINE",
"904 134 LINE",
"578 134 LINE",
"606 291 LINE",
"902 291 LINE",
"925 425 LINE",
"629 425 LINE",
"656 576 LINE",
"972 576 LINE"
);
}
);
};
layerId = "014D4A40-7C7F-4023-B30E-1F55CE5EA091";
paths = (
{
closed = 1;
nodes = (
"98 0 LINE",
"454 609 LINE",
"397 576 LINE",
"544 576 LINE",
"568 710 LINE",
"367 710 LINE",
"-66 0 LINE"
);
},
{
closed = 1;
nodes = (
"468 147 LINE",
"492 281 LINE",
"207 281 LINE",
"120 147 LINE"
);
},
{
closed = 1;
nodes = (
"590 291 LINE",
"902 291 LINE",
"926 425 LINE",
"614 425 LINE"
);
},
{
closed = 1;
nodes = (
"656 576 LINE",
"972 576 LINE",
"996 710 LINE",
"525 710 LINE",
"400 0 LINE",
"870 0 LINE",
"904 134 LINE",
"578 134 LINE"
);
}
);
width = 943;
},
{
anchors = (
{
name = bottom;
position = "{419, 0}";
},
{
name = top;
position = "{544, 710}";
}
);
background = {
anchors = (
{
name = bottom;
position = "{419, 0}";
},
{
name = top;
position = "{544, 710}";
}
);
paths = (
{
closed = 1;
nodes = (
"21 0 LINE",
"433 712 LINE",
"408 684 LINE",
"537 684 LINE",
"541 710 LINE",
"402 710 LINE",
"-11 0 LINE"
);
},
{
closed = 1;
nodes = (
"459 215 LINE",
"464 240 LINE",
"140 240 LINE",
"136 215 LINE"
);
},
{
closed = 1;
nodes = (
"889 710 LINE",
"529 710 LINE",
"404 0 LINE",
"776 0 LINE",
"786 26 LINE",
"439 26 LINE",
"496 349 LINE",
"823 349 LINE",
"827 375 LINE",
"500 375 LINE",
"555 684 LINE",
"885 684 LINE"
);
}
);
};
layerId = "7F092816-09A2-4631-A7F8-AD4571964C60";
paths = (
{
closed = 1;
nodes = (
"23 0 LINE",
"425 695 LINE",
"408 684 LINE",
"537 684 LINE",
"541 710 LINE",
"402 710 LINE",
"-11 0 LINE"
);
},
{
closed = 1;
nodes = (
"459 215 LINE",
"464 240 LINE",
"140 240 LINE",
"136 215 LINE"
);
},
{
closed = 1;
nodes = (
"489 349 LINE",
"823 349 LINE",
"827 375 LINE",
"494 375 LINE"
);
},
{
closed = 1;
nodes = (
"555 684 LINE",
"885 684 LINE",
"889 710 LINE",
"529 710 LINE",
"404 0 LINE",
"776 0 LINE",
"786 26 LINE",
"439 26 LINE"
);
}
);
width = 867;
},
{
anchors = (
{
name = bottom;
position = "{498, 0}";
},
{
name = top;
position = "{624, 710}";
}
);
background = {
paths = (
{
closed = 1;
nodes = (
"118 0 LINE",
"455 573 LINE",
"393 539 LINE",
"543 539 LINE",
"574 710 LINE",
"355 710 LINE",
"-84 0 LINE"
);
},
{
closed = 1;
nodes = (
"470 124 LINE",
"500 295 LINE",
"230 295 LINE",
"115 124 LINE"
);
},
{
closed = 1;
nodes = (
"1033 710 LINE",
"525 710 LINE",
"399 0 LINE",
"903 0 LINE",
"946 171 LINE",
"628 171 LINE",
"645 271 LINE",
"929 271 LINE",
"959 442 LINE",
"675 442 LINE",
"692 539 LINE",
"1002 539 LINE"
);
}
);
};
layerId = "A0850C2E-74F0-4B2E-AE90-CE9FC07F2CBD";
paths = (
{
closed = 1;
nodes = (
"124 0 LINE",
"461 573 LINE",
"393 539 LINE",
"543 539 LINE",
"574 710 LINE",
"355 710 LINE",
"-84 0 LINE"
);
},
{
closed = 1;
nodes = (
"470 124 LINE",
"500 295 LINE",
"230 295 LINE",
"115 124 LINE"
);
},
{
closed = 1;
nodes = (
"629 271 LINE",
"929 271 LINE",
"959 442 LINE",
"659 442 LINE"
);
},
{
closed = 1;
nodes = (
"693 539 LINE",
"1002 539 LINE",
"1032 710 LINE",
"524 710 LINE",
"399 0 LINE",
"903 0 LINE",
"946 171 LINE",
"628 171 LINE"
);
}
);
width = 969;
}
);
leftKerningGroup = A;
rightKerningGroup = E;
unicode = 00C6;
},
{
glyphname = B;
lastChange = "2019-05-31 12:22:43 +0000";
layers = (
{
anchors = (
{
name = bottom;
position = "{290, 0}";
},
{
name = top;
position = "{415, 710}";
}
);
background = {
paths = (
{
closed = 1;
nodes = (
"293 0 LINE SMOOTH",
"430 0 OFFCURVE",
"534 69 OFFCURVE",
"554 186 CURVE SMOOTH",
"571 281 OFFCURVE",
"524 349 OFFCURVE",
"433 367 CURVE",
"441 353 LINE",
"531 375 OFFCURVE",
"591 439 OFFCURVE",
"604 511 CURVE SMOOTH",
"627 643 OFFCURVE",
"550 710 OFFCURVE",
"351 710 CURVE SMOOTH",
"162 710 LINE",
"37 0 LINE"
);
},
{
closed = 1;
nodes = (
"231 642 LINE",
"342 642 LINE SMOOTH",
"483 642 OFFCURVE",
"538 605 OFFCURVE",
"523 516 CURVE SMOOTH",
"507 428 OFFCURVE",
"438 392 OFFCURVE",
"325 392 CURVE SMOOTH",
"173 392 LINE",
"161 323 LINE",
"327 323 LINE SMOOTH",
"439 323 OFFCURVE",
"489 280 OFFCURVE",
"473 189 CURVE SMOOTH",
"458 102 OFFCURVE",
"389 68 OFFCURVE",
"302 68 CURVE SMOOTH",
"130 68 LINE"
);
}
);
};
layerId = "A3B50665-EA37-4AC6-885C-1233CA61B6BD";
paths = (
{
closed = 1;
nodes = (
"293 0 LINE SMOOTH",
"440 0 OFFCURVE",
"557 83 OFFCURVE",
"557 223 CURVE SMOOTH",
"557 294 OFFCURVE",
"512 351 OFFCURVE",
"433 367 CURVE",
"441 353 LINE",
"541 377 OFFCURVE",
"608 453 OFFCURVE",
"608 553 CURVE SMOOTH",
"608 657 OFFCURVE",
"527 710 OFFCURVE",
"351 710 CURVE SMOOTH",
"162 710 LINE",
"37 0 LINE"
);
},
{
closed = 1;
nodes = (
"231 642 LINE",
"342 642 LINE SMOOTH",
"468 642 OFFCURVE",
"525 612 OFFCURVE",
"525 543 CURVE SMOOTH",
"525 437 OFFCURVE",
"446 392 OFFCURVE",
"325 392 CURVE SMOOTH",
"173 392 LINE",
"161 323 LINE",
"327 323 LINE SMOOTH",
"425 323 OFFCURVE",
"476 290 OFFCURVE",
"476 220 CURVE SMOOTH",
"476 122 OFFCURVE",
"410 68 OFFCURVE",
"302 68 CURVE SMOOTH",
"130 68 LINE"
);
}
);
width = 613;
},
{
anchors = (
{
name = bottom;
position = "{305, 0}";
},
{
name = top;
position = "{431, 710}";
}
);
background = {
paths = (
{
closed = 1;
nodes = (
"325 0 LINE SMOOTH",
"493 0 OFFCURVE",
"589 84 OFFCURVE",
"609 197 CURVE SMOOTH",
"624 280 OFFCURVE",
"583 351 OFFCURVE",
"512 371 CURVE",
"508 347 LINE",
"590 376 OFFCURVE",
"638 437 OFFCURVE",
"650 503 CURVE SMOOTH",
"673 638 OFFCURVE",
"581 710 OFFCURVE",
"415 710 CURVE SMOOTH",
"148 710 LINE",
"23 0 LINE"
);
},
{
closed = 1;
nodes = (
"279 583 LINE",
"397 583 LINE SMOOTH",
"472 583 OFFCURVE",
"505 557 OFFCURVE",
"494 495 CURVE SMOOTH",
"485 446 OFFCURVE",
"449 421 OFFCURVE",
"360 421 CURVE SMOOTH",
"235 421 LINE",
"212 293 LINE",
"354 293 LINE SMOOTH",
"436 293 OFFCURVE",
"467 268 OFFCURVE",
"456 205 CURVE SMOOTH",
"446 153 OFFCURVE",
"408 127 OFFCURVE",
"335 127 CURVE SMOOTH",
"199 127 LINE"
);
}
);
};
layerId = "014D4A40-7C7F-4023-B30E-1F55CE5EA091";
paths = (
{
closed = 1;
nodes = (
"325 0 LINE SMOOTH",
"486 0 OFFCURVE",
"612 87 OFFCURVE",
"612 231 CURVE SMOOTH",
"612 299 OFFCURVE",
"573 354 OFFCURVE",
"512 371 CURVE",
"511 347 LINE",
"594 378 OFFCURVE",
"653 447 OFFCURVE",
"653 542 CURVE SMOOTH",
"653 652 OFFCURVE",
"564 710 OFFCURVE",
"415 710 CURVE SMOOTH",
"148 710 LINE",
"23 0 LINE"
);
},
{
closed = 1;
nodes = (
"279 583 LINE",
"397 583 LINE SMOOTH",
"463 583 OFFCURVE",
"496 563 OFFCURVE",
"496 517 CURVE SMOOTH",
"496 443 OFFCURVE",
"444 421 OFFCURVE",
"360 421 CURVE SMOOTH",
"235 421 LINE",
"212 293 LINE",
"354 293 LINE SMOOTH",
"425 293 OFFCURVE",
"458 274 OFFCURVE",
"458 228 CURVE SMOOTH",
"458 160 OFFCURVE",
"414 127 OFFCURVE",
"335 127 CURVE SMOOTH",
"199 127 LINE"
);
}
);
width = 644;
},
{
anchors = (
{
name = bottom;
position = "{280, 0}";
},
{
name = top;
position = "{404, 710}";
}
);
background = {
paths = (
{
closed = 1;
nodes = (
"272 0 LINE SMOOTH",
"402 0 OFFCURVE",
"495 58 OFFCURVE",
"516 180 CURVE SMOOTH",
"533 275 OFFCURVE",
"481 345 OFFCURVE",
"378 362 CURVE",
"386 355 LINE",
"489 371 OFFCURVE",
"554 435 OFFCURVE",
"570 525 CURVE SMOOTH",
"590 639 OFFCURVE",
"530 710 OFFCURVE",
"316 710 CURVE SMOOTH",
"172 710 LINE",
"47 0 LINE"
);
},
{
closed = 1;
nodes = (
"198 683 LINE",
"306 683 LINE SMOOTH",
"490 683 OFFCURVE",
"559 639 OFFCURVE",
"539 526 CURVE SMOOTH",
"520 417 OFFCURVE",
"438 372 OFFCURVE",
"293 372 CURVE SMOOTH",
"130 372 LINE",
"125 344 LINE",
"310 344 LINE SMOOTH",
"440 344 OFFCURVE",
"504 289 OFFCURVE",
"485 180 CURVE SMOOTH",
"466 72 OFFCURVE",
"393 27 OFFCURVE",
"270 27 CURVE SMOOTH",
"82 27 LINE"
);
}
);
};
layerId = "7F092816-09A2-4631-A7F8-AD4571964C60";
paths = (
{
closed = 1;
nodes = (
"282 0 LINE SMOOTH",
"422 0 OFFCURVE",
"519 84 OFFCURVE",
"519 214 CURVE SMOOTH",
"519 293 OFFCURVE",
"467 347 OFFCURVE",
"378 362 CURVE",
"384 355 LINE",
"499 373 OFFCURVE",
"573 447 OFFCURVE",
"573 561 CURVE SMOOTH",
"573 661 OFFCURVE",
"493 710 OFFCURVE",
"316 710 CURVE SMOOTH",
"172 710 LINE",
"47 0 LINE"
);
},
{
closed = 1;
nodes = (
"198 683 LINE",
"306 683 LINE SMOOTH",
"472 683 OFFCURVE",
"542 645 OFFCURVE",
"542 558 CURVE SMOOTH",
"542 434 OFFCURVE",
"458 372 OFFCURVE",
"293 372 CURVE SMOOTH",
"130 372 LINE",
"125 344 LINE",
"310 344 LINE SMOOTH",
"427 344 OFFCURVE",
"488 300 OFFCURVE",
"488 216 CURVE SMOOTH",
"488 93 OFFCURVE",
"412 27 OFFCURVE",
"270 27 CURVE SMOOTH",
"82 27 LINE"
);
}
);
width = 591;
},
{
anchors = (
{
name = bottom;
position = "{313, 0}";
},
{
name = top;
position = "{440, 710}";
}
);
background = {
paths = (
{
closed = 1;
nodes = (
"328 0 LINE SMOOTH",
"509 0 OFFCURVE",
"621 86 OFFCURVE",
"641 203 CURVE SMOOTH",
"656 285 OFFCURVE",
"617 352 OFFCURVE",
"555 373 CURVE",
"540 344 LINE",
"616 372 OFFCURVE",
"666 436 OFFCURVE",
"677 499 CURVE SMOOTH",
"700 628 OFFCURVE",
"612 710 OFFCURVE",
"425 710 CURVE SMOOTH",
"139 710 LINE",
"14 0 LINE"
);
},
{
closed = 1;
nodes = (
"307 549 LINE",
"405 549 LINE SMOOTH",
"462 549 OFFCURVE",
"484 528 OFFCURVE",
"478 490 CURVE SMOOTH",
"472 456 OFFCURVE",
"444 438 OFFCURVE",
"395 438 CURVE SMOOTH",
"270 438 LINE",
"242 276 LINE",
"374 276 LINE SMOOTH",
"432 276 OFFCURVE",
"452 255 OFFCURVE",
"445 216 CURVE SMOOTH",
"439 179 OFFCURVE",
"405 161 OFFCURVE",
"364 161 CURVE SMOOTH",
"239 161 LINE"
);
}
);
};
layerId = "A0850C2E-74F0-4B2E-AE90-CE9FC07F2CBD";
paths = (
{
closed = 1;
nodes = (
"328 0 LINE SMOOTH",
"500 0 OFFCURVE",
"644 86 OFFCURVE",
"644 238 CURVE SMOOTH",
"644 303 OFFCURVE",
"608 355 OFFCURVE",
"555 373 CURVE",
"547 344 LINE",
"624 375 OFFCURVE",
"681 447 OFFCURVE",
"681 533 CURVE SMOOTH",
"681 640 OFFCURVE",
"593 710 OFFCURVE",
"425 710 CURVE SMOOTH",
"139 710 LINE",
"14 0 LINE"
);
},
{
closed = 1;
nodes = (
"307 549 LINE",
"405 549 LINE SMOOTH",
"456 549 OFFCURVE",
"479 532 OFFCURVE",
"479 501 CURVE SMOOTH",
"479 460 OFFCURVE",
"449 438 OFFCURVE",
"395 438 CURVE SMOOTH",
"270 438 LINE",
"242 276 LINE",
"374 276 LINE SMOOTH",
"425 276 OFFCURVE",
"446 260 OFFCURVE",
"446 228 CURVE SMOOTH",
"446 183 OFFCURVE",
"410 161 OFFCURVE",
"364 161 CURVE SMOOTH",
"239 161 LINE"
);
}
);
width = 662;
}
);
leftKerningGroup = H;
rightKerningGroup = B;
unicode = 0042;
},
{
glyphname = C;
lastChange = "2019-05-31 12:22:43 +0000";
layers = (
{
anchors = (
{
name = bottom;
position = "{340, 0}";
},
{
name = top;
position = "{465, 710}";
}
);
background = {
anchors = (
{
name = bottom;
position = "{1240, 0}";
},
{
name = top;
position = "{1365, 710}";
}
);
paths = (
{
closed = 1;
nodes = (
"1473 184 LINE",
"1418 108 OFFCURVE",
"1341 68 OFFCURVE",
"1249 68 CURVE SMOOTH",
"1097 68 OFFCURVE",
"1025 169 OFFCURVE",
"1056 342 CURVE SMOOTH",
"1088 521 OFFCURVE",
"1215 644 OFFCURVE",
"1366 644 CURVE SMOOTH",
"1451 644 OFFCURVE",
"1508 609 OFFCURVE",
"1535 537 CURVE",
"1607 585 LINE",
"1571 674 OFFCURVE",
"1493 720 OFFCURVE",
"1381 720 CURVE SMOOTH",
"1177 720 OFFCURVE",
"1011 566 OFFCURVE",
"972 342 CURVE SMOOTH",
"934 124 OFFCURVE",
"1033 -8 OFFCURVE",
"1236 -8 CURVE SMOOTH",
"1354 -8 OFFCURVE",
"1459 43 OFFCURVE",
"1527 136 CURVE"
);
},
{
closed = 1;
nodes = (
"577 -8 OFFCURVE",
"740 205 OFFCURVE",
"740 443 CURVE SMOOTH",
"740 612 OFFCURVE",
"639 720 OFFCURVE",
"472 720 CURVE SMOOTH",
"235 720 OFFCURVE",
"66 503 OFFCURVE",
"66 261 CURVE SMOOTH",
"66 91 OFFCURVE",
"166 -8 OFFCURVE",
"344 -8 CURVE SMOOTH"
);
},
{
closed = 1;
nodes = (
"218 68 OFFCURVE",
"150 138 OFFCURVE",
"150 265 CURVE SMOOTH",
"150 461 OFFCURVE",
"276 644 OFFCURVE",
"469 644 CURVE SMOOTH",
"589 644 OFFCURVE",
"656 569 OFFCURVE",
"656 443 CURVE SMOOTH",
"656 251 OFFCURVE",
"537 68 OFFCURVE",
"348 68 CURVE SMOOTH"
);
}
);
};
guideLines = (
{
angle = 90;
position = "{760, 356}";
},
{
angle = 90;
position = "{823, 356}";
}
);
layerId = "A3B50665-EA37-4AC6-885C-1233CA61B6BD";
paths = (
{
closed = 1;
nodes = (
"573 184 LINE",
"519 106 OFFCURVE",
"440 68 OFFCURVE",
"352 68 CURVE SMOOTH",
"218 68 OFFCURVE",
"150 138 OFFCURVE",
"150 265 CURVE SMOOTH",
"150 461 OFFCURVE",
"276 644 OFFCURVE",
"467 644 CURVE SMOOTH",
"554 644 OFFCURVE",
"608 609 OFFCURVE",
"636 540 CURVE",
"704 585 LINE",
"669 674 OFFCURVE",
"583 720 OFFCURVE",
"472 720 CURVE SMOOTH",
"235 720 OFFCURVE",
"66 503 OFFCURVE",
"66 261 CURVE SMOOTH",
"66 91 OFFCURVE",
"166 -8 OFFCURVE",
"348 -8 CURVE SMOOTH",
"462 -8 OFFCURVE",
"561 42 OFFCURVE",
"627 136 CURVE"
);
}
);
width = 650;
},
{
anchors = (
{
name = bottom;
position = "{345, 0}";
},
{
name = top;
position = "{471, 710}";
}
);
background = {
anchors = (
{
name = bottom;
position = "{1145, 0}";
},
{
name = top;
position = "{1271, 710}";
}
);
paths = (
{
closed = 1;
nodes = (
"1367 229 LINE",
"1317 161 OFFCURVE",
"1244 129 OFFCURVE",
"1177 129 CURVE SMOOTH",
"1048 129 OFFCURVE",
"987 208 OFFCURVE",
"1011 344 CURVE SMOOTH",
"1036 484 OFFCURVE",
"1141 581 OFFCURVE",
"1269 581 CURVE SMOOTH",
"1332 581 OFFCURVE",
"1388 554 OFFCURVE",
"1411 491 CURVE",
"1545 576 LINE",
"1500 673 OFFCURVE",
"1422 720 OFFCURVE",
"1294 720 CURVE SMOOTH",
"1071 720 OFFCURVE",
"891 566 OFFCURVE",
"852 341 CURVE SMOOTH",
"814 122 OFFCURVE",
"924 -10 OFFCURVE",
"1151 -10 CURVE SMOOTH",
"1276 -10 OFFCURVE",
"1392 43 OFFCURVE",
"1467 139 CURVE"
);
},
{
closed = 1;
nodes = (
"584 -10 OFFCURVE",
"767 187 OFFCURVE",
"767 436 CURVE SMOOTH",
"767 608 OFFCURVE",
"654 720 OFFCURVE",
"478 720 CURVE SMOOTH",
"234 720 OFFCURVE",
"48 526 OFFCURVE",
"48 271 CURVE SMOOTH",
"48 96 OFFCURVE",
"170 -10 OFFCURVE",
"352 -10 CURVE SMOOTH"
);
},
{
closed = 1;
nodes = (
"266 129 OFFCURVE",
"207 188 OFFCURVE",
"207 289 CURVE SMOOTH",
"207 455 OFFCURVE",
"315 582 OFFCURVE",
"456 582 CURVE SMOOTH",
"551 582 OFFCURVE",
"608 520 OFFCURVE",
"608 420 CURVE SMOOTH",
"608 255 OFFCURVE",
"505 129 OFFCURVE",
"369 129 CURVE SMOOTH"
);
}
);
};
layerId = "014D4A40-7C7F-4023-B30E-1F55CE5EA091";
paths = (
{
closed = 1;
nodes = (
"569 229 LINE",
"515 157 OFFCURVE",
"442 129 OFFCURVE",
"374 129 CURVE SMOOTH",
"268 129 OFFCURVE",
"207 188 OFFCURVE",
"207 289 CURVE SMOOTH",
"207 455 OFFCURVE",
"318 582 OFFCURVE",
"461 582 CURVE SMOOTH",
"522 582 OFFCURVE",
"583 554 OFFCURVE",
"606 491 CURVE",
"740 576 LINE",
"698 673 OFFCURVE",
"609 720 OFFCURVE",
"483 720 CURVE SMOOTH",
"237 720 OFFCURVE",
"48 526 OFFCURVE",
"48 271 CURVE SMOOTH",
"48 96 OFFCURVE",
"172 -10 OFFCURVE",
"357 -10 CURVE SMOOTH",
"484 -10 OFFCURVE",
"603 41 OFFCURVE",
"669 139 CURVE"
);
}
);
width = 677;
},
{
anchors = (
{
name = bottom;
position = "{337, 0}";
},
{
name = top;
position = "{462, 710}";
}
);
background = {
anchors = (
{
name = bottom;
position = "{1137, 0}";
},
{
name = top;
position = "{1262, 710}";
}
);
paths = (
{
closed = 1;
nodes = (
"1377 152 LINE",
"1319 70 OFFCURVE",
"1239 24 OFFCURVE",
"1129 24 CURVE SMOOTH",
"961 24 OFFCURVE",
"883 141 OFFCURVE",
"918 341 CURVE SMOOTH",
"954 547 OFFCURVE",
"1097 689 OFFCURVE",
"1264 689 CURVE SMOOTH",
"1365 689 OFFCURVE",
"1421 648 OFFCURVE",
"1453 570 CURVE",
"1481 591 LINE",
"1451 675 OFFCURVE",
"1373 720 OFFCURVE",
"1272 720 CURVE SMOOTH",
"1082 720 OFFCURVE",
"926 566 OFFCURVE",
"887 343 CURVE SMOOTH",
"849 125 OFFCURVE",
"940 -7 OFFCURVE",
"1126 -7 CURVE SMOOTH",
"1239 -7 OFFCURVE",
"1336 43 OFFCURVE",
"1400 134 CURVE"
);
},
{
closed = 1;
nodes = (
"569 -7 OFFCURVE",
"720 208 OFFCURVE",
"720 448 CURVE SMOOTH",
"720 614 OFFCURVE",
"629 720 OFFCURVE",
"475 720 CURVE SMOOTH",
"241 720 OFFCURVE",
"81 500 OFFCURVE",
"81 259 CURVE SMOOTH",
"81 93 OFFCURVE",
"174 -7 OFFCURVE",
"337 -7 CURVE SMOOTH"
);
},
{
closed = 1;
nodes = (
"193 24 OFFCURVE",
"113 108 OFFCURVE",
"113 257 CURVE SMOOTH",
"113 478 OFFCURVE",
"254 689 OFFCURVE",
"471 689 CURVE SMOOTH",
"610 689 OFFCURVE",
"688 600 OFFCURVE",
"688 451 CURVE SMOOTH",
"688 231 OFFCURVE",
"556 24 OFFCURVE",
"342 24 CURVE SMOOTH"
);
}
);
};
layerId = "7F092816-09A2-4631-A7F8-AD4571964C60";
paths = (
{
closed = 1;
nodes = (
"578 152 LINE",
"515 63 OFFCURVE",
"441 24 OFFCURVE",
"338 24 CURVE SMOOTH",
"193 24 OFFCURVE",
"113 108 OFFCURVE",
"113 257 CURVE SMOOTH",
"113 488 OFFCURVE",
"254 689 OFFCURVE",
"469 689 CURVE SMOOTH",
"567 689 OFFCURVE",
"622 651 OFFCURVE",
"656 574 CURVE",
"683 591 LINE",
"650 675 OFFCURVE",
"572 720 OFFCURVE",
"470 720 CURVE SMOOTH",
"241 720 OFFCURVE",
"81 510 OFFCURVE",
"81 259 CURVE SMOOTH",
"81 93 OFFCURVE",
"174 -7 OFFCURVE",
"335 -7 CURVE SMOOTH",
"441 -7 OFFCURVE",
"539 36 OFFCURVE",
"603 134 CURVE"
);
}
);
width = 631;
},
{
anchors = (
{
name = bottom;
position = "{350, 0}";
},
{
name = top;
position = "{476, 710}";
}
);
background = {
anchors = (
{
name = bottom;
position = "{1150, 0}";
},
{
name = top;
position = "{1276, 710}";
}
);
paths = (
{
closed = 1;
nodes = (
"1465 255 LINE",
"1421 196 OFFCURVE",
"1363 165 OFFCURVE",
"1294 165 CURVE SMOOTH",
"1174 165 OFFCURVE",
"1126 232 OFFCURVE",
"1146 345 CURVE SMOOTH",
"1167 463 OFFCURVE",
"1249 546 OFFCURVE",
"1366 544 CURVE SMOOTH",
"1430 543 OFFCURVE",
"1482 513 OFFCURVE",
"1499 464 CURVE",
"1669 571 LINE",
"1627 672 OFFCURVE",
"1542 720 OFFCURVE",
"1404 720 CURVE SMOOTH",
"1168 720 OFFCURVE",
"983 569 OFFCURVE",
"942 340 CURVE SMOOTH",
"903 121 OFFCURVE",
"1022 -11 OFFCURVE",
"1262 -11 CURVE SMOOTH",
"1392 -11 OFFCURVE",
"1514 43 OFFCURVE",
"1592 141 CURVE"
);
},
{
closed = 1;
nodes = (
"596 -10 OFFCURVE",
"782 182 OFFCURVE",
"782 431 CURVE SMOOTH",
"782 608 OFFCURVE",
"665 720 OFFCURVE",
"482 720 CURVE SMOOTH",
"227 720 OFFCURVE",
"38 530 OFFCURVE",
"38 275 CURVE SMOOTH",
"38 97 OFFCURVE",
"158 -10 OFFCURVE",
"355 -10 CURVE SMOOTH"
);
},
{
closed = 1;
nodes = (
"292 165 OFFCURVE",
"241 217 OFFCURVE",
"241 303 CURVE SMOOTH",
"241 440 OFFCURVE",
"331 545 OFFCURVE",
"449 545 CURVE SMOOTH",
"530 545 OFFCURVE",
"579 493 OFFCURVE",
"579 407 CURVE SMOOTH",
"579 269 OFFCURVE",
"493 165 OFFCURVE",
"378 165 CURVE SMOOTH"
);
}
);
};
layerId = "A0850C2E-74F0-4B2E-AE90-CE9FC07F2CBD";
paths = (
{
closed = 1;
nodes = (
"565 255 LINE",
"521 196 OFFCURVE",
"452 165 OFFCURVE",
"393 165 CURVE SMOOTH",
"297 165 OFFCURVE",
"241 217 OFFCURVE",
"241 303 CURVE SMOOTH",
"241 440 OFFCURVE",
"335 545 OFFCURVE",
"463 545 CURVE SMOOTH",
"537 545 OFFCURVE",
"579 513 OFFCURVE",
"599 464 CURVE",
"763 571 LINE",
"719 672 OFFCURVE",
"614 720 OFFCURVE",
"482 720 CURVE SMOOTH",
"232 720 OFFCURVE",
"38 530 OFFCURVE",
"38 275 CURVE SMOOTH",
"38 97 OFFCURVE",
"156 -9 OFFCURVE",
"369 -11 CURVE SMOOTH",
"495 -12 OFFCURVE",
"612 31 OFFCURVE",
"697 138 CURVE"
);
}
);
width = 693;
}
);
leftKerningGroup = O;
rightKerningGroup = C;
unicode = 0043;
},
{
glyphname = D;
lastChange = "2019-05-31 12:22:43 +0000";
layers = (
{
anchors = (
{
name = bottom;
position = "{320, 0}";
},
{
name = center;
position = "{384, 359}";
},
{
name = stroke;
position = "{143, 360}";
},
{
name = top;
position = "{446, 710}";
}
);
background = {
paths = (
{
closed = 1;
nodes = (
"259 0 LINE SMOOTH",
"504 0 OFFCURVE",
"656 130 OFFCURVE",
"695 347 CURVE SMOOTH",
"737 588 OFFCURVE",
"608 710 OFFCURVE",
"346 710 CURVE SMOOTH",
"162 710 LINE",
"37 0 LINE"
);
},
{
closed = 1;
nodes = (
"232 637 LINE",
"342 637 LINE SMOOTH",
"560 637 OFFCURVE",
"645 544 OFFCURVE",
"612 355 CURVE SMOOTH",
"579 170 OFFCURVE",
"459 73 OFFCURVE",
"263 73 CURVE SMOOTH",
"133 73 LINE"
);
}
);
};
layerId = "A3B50665-EA37-4AC6-885C-1233CA61B6BD";
paths = (
{
closed = 1;
nodes = (
"269 0 LINE SMOOTH",
"527 0 OFFCURVE",
"703 169 OFFCURVE",
"703 431 CURVE SMOOTH",
"703 616 OFFCURVE",
"575 710 OFFCURVE",
"346 710 CURVE SMOOTH",
"162 710 LINE",
"37 0 LINE"
);
},
{
closed = 1;
nodes = (
"232 637 LINE",
"342 637 LINE SMOOTH",
"530 637 OFFCURVE",
"619 568 OFFCURVE",
"619 428 CURVE SMOOTH",
"619 212 OFFCURVE",
"488 73 OFFCURVE",
"273 73 CURVE SMOOTH",
"133 73 LINE"
);
}
);
width = 734;
},
{
anchors = (
{
name = bottom;
position = "{330, 0}";
},
{
name = center;
position = "{394, 359}";
},
{
name = stroke;
position = "{165, 360}";
},
{
name = top;
position = "{456, 710}";
}
);
background = {
paths = (
{
closed = 1;
nodes = (
"301 0 LINE SMOOTH",
"528 0 OFFCURVE",
"695 129 OFFCURVE",
"733 345 CURVE SMOOTH",
"773 575 OFFCURVE",
"641 710 OFFCURVE",
"367 710 CURVE SMOOTH",
"148 710 LINE",
"23 0 LINE"
);
},
{
closed = 1;
nodes = (
"280 572 LINE",
"365 572 LINE SMOOTH",
"537 572 OFFCURVE",
"602 491 OFFCURVE",
"576 344 CURVE SMOOTH",
"550 202 OFFCURVE",
"459 138 OFFCURVE",
"316 138 CURVE SMOOTH",
"204 138 LINE"
);
}
);
};
layerId = "014D4A40-7C7F-4023-B30E-1F55CE5EA091";
paths = (
{
closed = 1;
nodes = (
"301 0 LINE SMOOTH",
"558 0 OFFCURVE",
"740 172 OFFCURVE",
"740 419 CURVE SMOOTH",
"740 605 OFFCURVE",
"609 710 OFFCURVE",
"367 710 CURVE SMOOTH",
"148 710 LINE",
"23 0 LINE"
);
},
{
closed = 1;
nodes = (
"280 572 LINE",
"365 572 LINE SMOOTH",
"513 572 OFFCURVE",
"582 514 OFFCURVE",
"582 402 CURVE SMOOTH",
"582 240 OFFCURVE",
"487 138 OFFCURVE",
"316 138 CURVE SMOOTH",
"204 138 LINE"
);
}
);
width = 755;
},
{
anchors = (
{
name = bottom;
position = "{313, 0}";
},
{
name = center;
position = "{377, 359}";
},
{
name = stroke;
position = "{128, 360}";
},
{
name = top;
position = "{439, 710}";
}
);
background = {
paths = (
{
closed = 1;
nodes = (
"232 0 LINE SMOOTH",
"475 0 OFFCURVE",
"629 128 OFFCURVE",
"668 348 CURVE SMOOTH",
"711 593 OFFCURVE",
"591 710 OFFCURVE",
"318 710 CURVE SMOOTH",
"172 710 LINE",
"47 0 LINE"
);
},
{
closed = 1;
nodes = (
"199 683 LINE",
"324 683 LINE SMOOTH",
"576 683 OFFCURVE",
"676 576 OFFCURVE",
"638 358 CURVE SMOOTH",
"599 138 OFFCURVE",
"458 27 OFFCURVE",
"231 27 CURVE SMOOTH",
"83 27 LINE"
);
}
);
};
layerId = "7F092816-09A2-4631-A7F8-AD4571964C60";
paths = (
{
closed = 1;
nodes = (
"233 0 LINE SMOOTH",
"505 0 OFFCURVE",
"677 172 OFFCURVE",
"677 439 CURVE SMOOTH",
"677 622 OFFCURVE",
"557 710 OFFCURVE",
"320 710 CURVE SMOOTH",
"172 710 LINE",
"47 0 LINE"
);
},
{
closed = 1;
nodes = (
"199 683 LINE",
"324 683 LINE SMOOTH",
"542 683 OFFCURVE",
"646 603 OFFCURVE",
"646 441 CURVE SMOOTH",
"646 189 OFFCURVE",
"492 27 OFFCURVE",
"231 27 CURVE SMOOTH",
"83 27 LINE"
);
}
);
width = 720;
},
{
anchors = (
{
name = bottom;
position = "{336, 0}";
},
{
name = center;
position = "{400, 359}";
},
{
name = stroke;
position = "{179, 360}";
},
{
name = top;
position = "{462, 710}";
}
);
background = {
paths = (
{
closed = 1;
nodes = (
"326 0 LINE SMOOTH",
"535 0 OFFCURVE",
"717 121 OFFCURVE",
"755 336 CURVE SMOOTH",
"794 560 OFFCURVE",
"665 710 OFFCURVE",
"381 710 CURVE SMOOTH",
"140 710 LINE",
"15 0 LINE"
);
},
{
closed = 1;
nodes = (
"309 534 LINE",
"375 534 LINE SMOOTH",
"523 534 OFFCURVE",
"577 467 OFFCURVE",
"555 340 CURVE SMOOTH",
"535 227 OFFCURVE",
"459 176 OFFCURVE",
"337 176 CURVE SMOOTH",
"246 176 LINE"
);
}
);
};
layerId = "A0850C2E-74F0-4B2E-AE90-CE9FC07F2CBD";
paths = (
{
closed = 1;
nodes = (
"326 0 LINE SMOOTH",
"575 0 OFFCURVE",
"762 170 OFFCURVE",
"762 411 CURVE SMOOTH",
"762 593 OFFCURVE",
"632 710 OFFCURVE",
"381 710 CURVE SMOOTH",
"140 710 LINE",
"15 0 LINE"
);
},
{
closed = 1;
nodes = (
"309 534 LINE",
"375 534 LINE SMOOTH",
"502 534 OFFCURVE",
"560 485 OFFCURVE",
"560 391 CURVE SMOOTH",
"560 254 OFFCURVE",
"480 176 OFFCURVE",
"337 176 CURVE SMOOTH",
"246 176 LINE"
);
}
);
width = 767;
}
);
leftKerningGroup = H;
rightKerningGroup = O;
unicode = 0044;
},
{
glyphname = E;
lastChange = "2019-05-31 12:22:43 +0000";
layers = (
{
anchors = (
{
name = bottom;
position = "{245, 0}";
},
{
name = ogonek;
position = "{460, 0}";
},
{
name = top;
position = "{371, 710}";
},
{
name = topleft;
position = "{89, 710}";
}
);
background = {
anchors = (
{
name = bottom;
position = "{245, 0}";
},
{
name = ogonek;
position = "{460, 0}";
},
{
name = top;
position = "{371, 710}";
},
{
name = topleft;
position = "{89, 710}";
}
);
paths = (
{
closed = 1;
nodes = (
"579 710 LINE",
"163 710 LINE",
"37 0 LINE",
"460 0 LINE",
"480 71 LINE",
"131 71 LINE",
"176 325 LINE",
"501 325 LINE",
"513 396 LINE",
"188 396 LINE",
"231 639 LINE",
"566 639 LINE"
);
}
);
};
layerId = "A3B50665-EA37-4AC6-885C-1233CA61B6BD";
paths = (
{
closed = 1;
nodes = (
"160 325 LINE",
"501 325 LINE",
"513 396 LINE",
"172 396 LINE"
);
},
{
closed = 1;
nodes = (
"231 639 LINE",
"566 639 LINE",
"579 710 LINE",
"162 710 LINE",
"37 0 LINE",
"460 0 LINE",
"480 71 LINE",
"131 71 LINE"
);
}
);
width = 544;
},
{
anchors = (
{
name = bottom;
position = "{263, 0}";
},
{
name = ogonek;
position = "{503, 0}";
},
{
name = top;
position = "{389, 710}";
},
{
name = topleft;
position = "{93, 710}";
}
);
background = {
anchors = (
{
name = bottom;
position = "{263, 0}";
},
{
name = ogonek;
position = "{503, 0}";
},
{
name = top;
position = "{389, 710}";
},
{
name = topleft;
position = "{93, 710}";
}
);
paths = (
{
closed = 1;
nodes = (
"629 710 LINE",
"149 710 LINE",
"23 0 LINE",
"503 0 LINE",
"537 134 LINE",
"200 134 LINE",
"228 291 LINE",
"535 291 LINE",
"558 425 LINE",
"251 425 LINE",
"278 576 LINE",
"605 576 LINE"
);
}
);
};
layerId = "014D4A40-7C7F-4023-B30E-1F55CE5EA091";
paths = (
{
closed = 1;
nodes = (
"212 291 LINE",
"535 291 LINE",
"559 425 LINE",
"235 425 LINE"
);
},
{
closed = 1;
nodes = (
"278 576 LINE",
"605 576 LINE",
"629 710 LINE",
"148 710 LINE",
"23 0 LINE",
"503 0 LINE",
"537 134 LINE",
"200 134 LINE"
);
}
);
width = 576;
},
{
anchors = (
{
name = bottom;
position = "{232, 0}";
},
{
name = ogonek;
position = "{430, 0}";
},
{
name = top;
position = "{358, 710}";
},
{
name = topleft;
position = "{86, 710}";
}
);
background = {
anchors = (
{
name = bottom;
position = "{232, 0}";
},
{
name = ogonek;
position = "{430, 0}";
},
{
name = top;
position = "{358, 710}";
},
{
name = topleft;
position = "{86, 710}";
}
);
paths = (
{
closed = 1;
nodes = (
"544 710 LINE",
"173 710 LINE",
"47 0 LINE",
"430 0 LINE",
"440 26 LINE",
"82 26 LINE",
"139 349 LINE",
"477 349 LINE",
"482 375 LINE",
"144 375 LINE",
"198 684 LINE",
"539 684 LINE"
);
}
);
};
layerId = "7F092816-09A2-4631-A7F8-AD4571964C60";
paths = (
{
closed = 1;
nodes = (
"132 349 LINE",
"477 349 LINE",
"482 375 LINE",
"137 375 LINE"
);
},
{
closed = 1;
nodes = (
"198 684 LINE",
"539 684 LINE",
"544 710 LINE",
"172 710 LINE",
"47 0 LINE",
"430 0 LINE",
"440 26 LINE",
"82 26 LINE"
);
}
);
width = 521;
},
{
anchors = (
{
name = bottom;
position = "{274, 0}";
},
{
name = ogonek;
position = "{529, 0}";
},
{
name = top;
position = "{400, 710}";
},
{
name = topleft;
position = "{96, 710}";
}
);
background = {
anchors = (
{
name = bottom;
position = "{337, 0}";
},
{
name = ogonek;
position = "{592, 0}";
},
{
name = top;
position = "{337, 710}";
},
{
name = topleft;
position = "{33, 710}";
}
);
paths = (
{
closed = 1;
nodes = (
"596 710 LINE",
"78 710 LINE",
"78 0 LINE",
"592 0 LINE",
"604 171 LINE",
"274 171 LINE",
"274 271 LINE",
"570 271 LINE",
"570 442 LINE",
"274 442 LINE",
"274 539 LINE",
"596 539 LINE"
);
}
);
};
layerId = "A0850C2E-74F0-4B2E-AE90-CE9FC07F2CBD";
paths = (
{
closed = 1;
nodes = (
"244 271 LINE",
"555 271 LINE",
"585 442 LINE",
"274 442 LINE"
);
},
{
closed = 1;
nodes = (
"306 539 LINE",
"628 539 LINE",
"658 710 LINE",
"140 710 LINE",
"15 0 LINE",
"529 0 LINE",
"572 171 LINE",
"243 171 LINE"
);
}
);
width = 595;
}
);
leftKerningGroup = H;
rightKerningGroup = E;
unicode = 0045;
},
{
glyphname = F;
lastChange = "2019-05-31 12:22:43 +0000";
layers = (
{
anchors = (
{
name = bottom;
position = "{235, 0}";
},
{
name = top;
position = "{361, 710}";
}
);
background = {
anchors = (
{
name = bottom;
position = "{268, 0}";
},
{
name = top;
position = "{268, 710}";
}
);
paths = (
{
closed = 1;
nodes = (
"496 710 LINE",
"100 710 LINE",
"100 0 LINE",
"181 0 LINE",
"181 315 LINE",
"486 315 LINE",
"486 385 LINE",
"181 385 LINE",
"181 640 LINE",
"496 640 LINE"
);
}
);
};
layerId = "A3B50665-EA37-4AC6-885C-1233CA61B6BD";
paths = (
{
closed = 1;
nodes = (
"158 314 LINE",
"479 314 LINE",
"491 385 LINE",
"170 385 LINE"
);
},
{
closed = 1;
nodes = (
"230 639 LINE",
"546 639 LINE",
"559 710 LINE",
"162 710 LINE",
"37 0 LINE",
"118 0 LINE"
);
}
);
width = 487;
},
{
anchors = (
{
name = bottom;
position = "{252, 0}";
},
{
name = top;
position = "{378, 710}";
}
);
background = {
anchors = (
{
name = bottom;
position = "{252, 0}";
},
{
name = top;
position = "{378, 710}";
}
);
paths = (
{
closed = 1;
nodes = (
"606 710 LINE",
"149 710 LINE",
"23 0 LINE",
"176 0 LINE",
"226 281 LINE",
"510 281 LINE",
"534 415 LINE",
"250 415 LINE",
"278 576 LINE",
"582 576 LINE"
);
}
);
};
layerId = "014D4A40-7C7F-4023-B30E-1F55CE5EA091";
paths = (
{
closed = 1;
nodes = (
"210 281 LINE",
"510 281 LINE",
"534 415 LINE",
"234 415 LINE"
);
},
{
closed = 1;
nodes = (
"278 576 LINE",
"582 576 LINE",
"606 710 LINE",
"148 710 LINE",
"23 0 LINE",
"176 0 LINE"
);
}
);
width = 528;
},
{
anchors = (
{
name = bottom;
position = "{223, 0}";
},
{
name = top;
position = "{349, 710}";
}
);
background = {
anchors = (
{
name = bottom;
position = "{223, 0}";
},
{
name = top;
position = "{349, 710}";
}
);
paths = (
{
closed = 1;
nodes = (
"526 710 LINE",
"173 710 LINE",
"47 0 LINE",
"77 0 LINE",
"137 338 LINE",
"457 338 LINE",
"462 364 LINE",
"142 364 LINE",
"198 684 LINE",
"521 684 LINE"
);
}
);
};
layerId = "7F092816-09A2-4631-A7F8-AD4571964C60";
paths = (
{
closed = 1;
nodes = (
"130 338 LINE",
"457 338 LINE",
"462 364 LINE",
"135 364 LINE"
);
},
{
closed = 1;
nodes = (
"198 684 LINE",
"521 684 LINE",
"526 710 LINE",
"172 710 LINE",
"47 0 LINE",
"77 0 LINE"
);
}
);
width = 458;
},
{
anchors = (
{
name = bottom;
position = "{263, 0}";
},
{
name = top;
position = "{389, 710}";
}
);
background = {
anchors = (
{
name = bottom;
position = "{263, 0}";
},
{
name = top;
position = "{389, 710}";
}
);
paths = (
{
closed = 1;
nodes = (
"634 710 LINE",
"141 710 LINE",
"15 0 LINE",
"212 0 LINE",
"259 262 LINE",
"529 262 LINE",
"559 433 LINE",
"289 433 LINE",
"307 539 LINE",
"603 539 LINE"
);
}
);
};
layerId = "A0850C2E-74F0-4B2E-AE90-CE9FC07F2CBD";
paths = (
{
closed = 1;
nodes = (
"243 262 LINE",
"529 262 LINE",
"559 433 LINE",
"273 433 LINE"
);
},
{
closed = 1;
nodes = (
"307 539 LINE",
"603 539 LINE",
"634 710 LINE",
"140 710 LINE",
"15 0 LINE",
"212 0 LINE"
);
}
);
width = 552;
}
);
leftKerningGroup = H;
rightKerningGroup = F;
unicode = 0046;
},
{
glyphname = G;
lastChange = "2019-05-31 12:22:43 +0000";
layers = (
{
anchors = (
{
name = bottom;
position = "{340, 0}";
},
{
name = top;
position = "{465, 710}";
}
);
background = {
anchors = (
{
name = bottom;
position = "{1140, 0}";
},
{
name = top;
position = "{1265, 710}";
}
);
paths = (
{
closed = 1;
nodes = (
"421 279 LINE",
"617 279 LINE",
"601 324 LINE",
"588 248 LINE SMOOTH",
"569 136 OFFCURVE",
"473 68 OFFCURVE",
"346 68 CURVE SMOOTH",
"198 68 OFFCURVE",
"126 166 OFFCURVE",
"157 342 CURVE SMOOTH",
"189 521 OFFCURVE",
"316 643 OFFCURVE",
"475 643 CURVE SMOOTH",
"564 643 OFFCURVE",
"621 608 OFFCURVE",
"648 537 CURVE",
"720 585 LINE",
"684 674 OFFCURVE",
"606 720 OFFCURVE",
"492 720 CURVE SMOOTH",
"278 720 OFFCURVE",
"111 566 OFFCURVE",
"72 342 CURVE SMOOTH",
"34 123 OFFCURVE",
"134 -8 OFFCURVE",
"327 -8 CURVE SMOOTH",
"440 -8 OFFCURVE",
"524 32 OFFCURVE",
"585 117 CURVE",
"567 117 LINE",
"559 0 LINE",
"623 0 LINE",
"684 347 LINE",
"433 347 LINE"
);
},
{
closed = 1;
nodes = (
"-227 184 LINE",
"-281 106 OFFCURVE",
"-360 68 OFFCURVE",
"-448 68 CURVE SMOOTH",
"-582 68 OFFCURVE",
"-650 138 OFFCURVE",
"-650 265 CURVE SMOOTH",
"-650 461 OFFCURVE",
"-524 644 OFFCURVE",
"-333 644 CURVE SMOOTH",
"-246 644 OFFCURVE",
"-192 609 OFFCURVE",
"-164 540 CURVE",
"-96 585 LINE",
"-131 674 OFFCURVE",
"-217 720 OFFCURVE",
"-328 720 CURVE SMOOTH",
"-565 720 OFFCURVE",
"-734 503 OFFCURVE",
"-734 261 CURVE SMOOTH",
"-734 91 OFFCURVE",
"-634 -8 OFFCURVE",
"-452 -8 CURVE SMOOTH",
"-338 -8 OFFCURVE",
"-239 42 OFFCURVE",
"-173 136 CURVE"
);
}
);
};
guideLines = (
{
angle = 90;
position = "{761, 356}";
},
{
angle = 90;
position = "{824, 356}";
}
);
layerId = "A3B50665-EA37-4AC6-885C-1233CA61B6BD";
paths = (
{
closed = 1;
nodes = (
"421 279 LINE",
"617 279 LINE",
"601 324 LINE",
"588 248 LINE SMOOTH",
"568 136 OFFCURVE",
"479 68 OFFCURVE",
"352 68 CURVE SMOOTH",
"218 68 OFFCURVE",
"150 138 OFFCURVE",
"150 265 CURVE SMOOTH",
"150 461 OFFCURVE",
"276 644 OFFCURVE",
"475 644 CURVE SMOOTH",
"560 644 OFFCURVE",
"621 608 OFFCURVE",
"649 537 CURVE",
"720 585 LINE",
"684 674 OFFCURVE",
"596 720 OFFCURVE",
"482 720 CURVE SMOOTH",
"235 720 OFFCURVE",
"66 503 OFFCURVE",
"66 261 CURVE SMOOTH",
"66 91 OFFCURVE",
"166 -8 OFFCURVE",
"348 -8 CURVE SMOOTH",
"461 -8 OFFCURVE",
"524 31 OFFCURVE",
"585 104 CURVE",
"567 117 LINE",
"559 0 LINE",
"623 0 LINE",
"684 347 LINE",
"433 347 LINE"
);
}
);
width = 730;
},
{
anchors = (
{
name = bottom;
position = "{345, 0}";
},
{
name = top;
position = "{471, 710}";
}
);
background = {
paths = (
{
closed = 1;
nodes = (
"1219 256 LINE",
"1397 256 LINE",
"1380 335 LINE",
"1368 264 LINE SMOOTH",
"1353 173 OFFCURVE",
"1251 130 OFFCURVE",
"1175 130 CURVE SMOOTH",
"1051 130 OFFCURVE",
"990 208 OFFCURVE",
"1014 344 CURVE SMOOTH",
"1039 484 OFFCURVE",
"1143 579 OFFCURVE",
"1285 579 CURVE SMOOTH",
"1351 579 OFFCURVE",
"1411 552 OFFCURVE",
"1434 491 CURVE",
"1568 578 LINE",
"1523 673 OFFCURVE",
"1442 720 OFFCURVE",
"1311 720 CURVE SMOOTH",
"1071 720 OFFCURVE",
"891 566 OFFCURVE",
"852 341 CURVE SMOOTH",
"814 122 OFFCURVE",
"924 -10 OFFCURVE",
"1133 -10 CURVE SMOOTH",
"1224 -10 OFFCURVE",
"1313 17 OFFCURVE",
"1372 93 CURVE",
"1349 95 LINE",
"1348 0 LINE",
"1471 0 LINE",
"1539 382 LINE",
"1241 382 LINE"
);
},
{
closed = 1;
nodes = (
"569 229 LINE",
"515 157 OFFCURVE",
"442 129 OFFCURVE",
"374 129 CURVE SMOOTH",
"268 129 OFFCURVE",
"207 188 OFFCURVE",
"207 289 CURVE SMOOTH",
"207 455 OFFCURVE",
"318 582 OFFCURVE",
"461 582 CURVE SMOOTH",
"522 582 OFFCURVE",
"583 554 OFFCURVE",
"606 491 CURVE",
"740 576 LINE",
"698 673 OFFCURVE",
"609 720 OFFCURVE",
"483 720 CURVE SMOOTH",
"237 720 OFFCURVE",
"48 526 OFFCURVE",
"48 271 CURVE SMOOTH",
"48 96 OFFCURVE",
"172 -10 OFFCURVE",
"357 -10 CURVE SMOOTH",
"484 -10 OFFCURVE",
"603 41 OFFCURVE",
"669 139 CURVE"
);
}
);
};
layerId = "014D4A40-7C7F-4023-B30E-1F55CE5EA091";
paths = (
{
closed = 1;
nodes = (
"419 256 LINE",
"597 256 LINE",
"580 333 LINE",
"568 264 LINE SMOOTH",
"552 173 OFFCURVE",
"470 129 OFFCURVE",
"374 129 CURVE SMOOTH",
"268 129 OFFCURVE",
"207 188 OFFCURVE",
"207 289 CURVE SMOOTH",
"207 455 OFFCURVE",
"319 582 OFFCURVE",
"471 582 CURVE SMOOTH",
"545 582 OFFCURVE",
"608 546 OFFCURVE",
"634 491 CURVE",
"768 578 LINE",
"720 676 OFFCURVE",
"609 720 OFFCURVE",
"493 720 CURVE SMOOTH",
"237 720 OFFCURVE",
"48 526 OFFCURVE",
"48 271 CURVE SMOOTH",
"48 98 OFFCURVE",
"172 -10 OFFCURVE",
"354 -10 CURVE SMOOTH",
"448 -10 OFFCURVE",
"523 17 OFFCURVE",
"592 93 CURVE",
"549 95 LINE",
"548 0 LINE",
"671 0 LINE",
"738 382 LINE",
"441 382 LINE"
);
}
);
width = 764;
},
{
anchors = (
{
name = bottom;
position = "{337, 0}";
},
{
name = top;
position = "{462, 710}";
}
);
background = {
anchors = (
{
name = bottom;
position = "{1137, 0}";
},
{
name = top;
position = "{1262, 710}";
}
);
paths = (
{
closed = 1;
nodes = (
"424 295 LINE",
"627 295 LINE",
"615 309 LINE",
"603 243 LINE SMOOTH",
"579 110 OFFCURVE",
"489 24 OFFCURVE",
"337 24 CURVE SMOOTH",
"160 24 OFFCURVE",
"82 136 OFFCURVE",
"118 341 CURVE SMOOTH",
"154 547 OFFCURVE",
"297 689 OFFCURVE",
"468 689 CURVE SMOOTH",
"573 689 OFFCURVE",
"629 648 OFFCURVE",
"659 570 CURVE",
"686 590 LINE",
"657 675 OFFCURVE",
"581 720 OFFCURVE",
"479 720 CURVE SMOOTH",
"283 720 OFFCURVE",
"126 566 OFFCURVE",
"87 343 CURVE SMOOTH",
"48 122 OFFCURVE",
"141 -7 OFFCURVE",
"330 -7 CURVE SMOOTH",
"452 -7 OFFCURVE",
"536 43 OFFCURVE",
"596 142 CURVE",
"583 137 LINE",
"567 0 LINE",
"589 0 LINE",
"646 322 LINE",
"429 322 LINE"
);
},
{
closed = 1;
nodes = (
"-222 152 LINE",
"-285 63 OFFCURVE",
"-359 24 OFFCURVE",
"-462 24 CURVE SMOOTH",
"-607 24 OFFCURVE",
"-687 108 OFFCURVE",
"-687 257 CURVE SMOOTH",
"-687 488 OFFCURVE",
"-546 689 OFFCURVE",
"-331 689 CURVE SMOOTH",
"-233 689 OFFCURVE",
"-178 651 OFFCURVE",
"-144 574 CURVE",
"-117 591 LINE",
"-150 675 OFFCURVE",
"-228 720 OFFCURVE",
"-330 720 CURVE SMOOTH",
"-559 720 OFFCURVE",
"-719 510 OFFCURVE",
"-719 259 CURVE SMOOTH",
"-719 93 OFFCURVE",
"-626 -7 OFFCURVE",
"-465 -7 CURVE SMOOTH",
"-359 -7 OFFCURVE",
"-261 36 OFFCURVE",
"-197 134 CURVE"
);
}
);
};
layerId = "7F092816-09A2-4631-A7F8-AD4571964C60";
paths = (
{
closed = 1;
nodes = (
"424 295 LINE",
"627 295 LINE",
"615 309 LINE",
"603 243 LINE SMOOTH",
"578 106 OFFCURVE",
"489 24 OFFCURVE",
"337 24 CURVE SMOOTH",
"193 24 OFFCURVE",
"113 108 OFFCURVE",
"113 257 CURVE SMOOTH",
"113 488 OFFCURVE",
"254 689 OFFCURVE",
"469 689 CURVE SMOOTH",
"567 689 OFFCURVE",
"622 651 OFFCURVE",
"659 572 CURVE",
"686 590 LINE",
"650 675 OFFCURVE",
"572 720 OFFCURVE",
"470 720 CURVE SMOOTH",
"241 720 OFFCURVE",
"81 510 OFFCURVE",
"81 259 CURVE SMOOTH",
"81 93 OFFCURVE",
"174 -7 OFFCURVE",
"335 -7 CURVE SMOOTH",
"457 -7 OFFCURVE",
"536 43 OFFCURVE",
"596 132 CURVE",
"583 137 LINE",
"567 0 LINE",
"589 0 LINE",
"646 322 LINE",
"429 322 LINE"
);
}
);
width = 706;
},
{
anchors = (
{
name = bottom;
position = "{350, 0}";
},
{
name = top;
position = "{476, 710}";
}
);
background = {
paths = (
{
closed = 1;
nodes = (
"1219 242 LINE",
"1387 242 LINE",
"1371 341 LINE",
"1360 283 LINE SMOOTH",
"1346 210 OFFCURVE",
"1273 167 OFFCURVE",
"1195 167 CURVE SMOOTH",
"1085 167 OFFCURVE",
"1032 233 OFFCURVE",
"1051 345 CURVE SMOOTH",
"1071 462 OFFCURVE",
"1162 541 OFFCURVE",
"1285 541 CURVE SMOOTH",
"1347 541 OFFCURVE",
"1407 519 OFFCURVE",
"1428 464 CURVE",
"1600 574 LINE",
"1552 672 OFFCURVE",
"1466 720 OFFCURVE",
"1315 720 CURVE SMOOTH",
"1070 720 OFFCURVE",
"882 566 OFFCURVE",
"842 340 CURVE SMOOTH",
"803 121 OFFCURVE",
"921 -11 OFFCURVE",
"1139 -11 CURVE SMOOTH",
"1234 -11 OFFCURVE",
"1329 26 OFFCURVE",
"1371 99 CURVE",
"1341 82 LINE",
"1344 0 LINE",
"1502 0 LINE",
"1574 403 LINE",
"1248 403 LINE"
);
},
{
closed = 1;
nodes = (
"565 255 LINE",
"521 196 OFFCURVE",
"452 165 OFFCURVE",
"393 165 CURVE SMOOTH",
"297 165 OFFCURVE",
"241 217 OFFCURVE",
"241 303 CURVE SMOOTH",
"241 440 OFFCURVE",
"335 545 OFFCURVE",
"463 545 CURVE SMOOTH",
"537 545 OFFCURVE",
"579 513 OFFCURVE",
"599 464 CURVE",
"763 571 LINE",
"719 672 OFFCURVE",
"614 720 OFFCURVE",
"482 720 CURVE SMOOTH",
"232 720 OFFCURVE",
"38 530 OFFCURVE",
"38 275 CURVE SMOOTH",
"38 97 OFFCURVE",
"156 -9 OFFCURVE",
"369 -11 CURVE SMOOTH",
"495 -12 OFFCURVE",
"612 31 OFFCURVE",
"697 138 CURVE"
);
}
);
};
layerId = "A0850C2E-74F0-4B2E-AE90-CE9FC07F2CBD";
paths = (
{
closed = 1;
nodes = (
"419 242 LINE",
"587 242 LINE",
"571 341 LINE",
"557 263 LINE SMOOTH",
"548 210 OFFCURVE",
"481 165 OFFCURVE",
"393 165 CURVE SMOOTH",
"290 165 OFFCURVE",
"241 217 OFFCURVE",
"241 303 CURVE SMOOTH",
"241 440 OFFCURVE",
"345 545 OFFCURVE",
"473 545 CURVE SMOOTH",
"535 545 OFFCURVE",
"602 519 OFFCURVE",
"628 464 CURVE",
"800 574 LINE",
"752 672 OFFCURVE",
"633 720 OFFCURVE",
"492 720 CURVE SMOOTH",
"240 720 OFFCURVE",
"38 530 OFFCURVE",
"38 275 CURVE SMOOTH",
"38 102 OFFCURVE",
"156 -8 OFFCURVE",
"359 -11 CURVE SMOOTH",
"439 -12 OFFCURVE",
"539 16 OFFCURVE",
"571 79 CURVE",
"541 82 LINE",
"544 0 LINE",
"702 0 LINE",
"773 403 LINE",
"447 403 LINE"
);
}
);
width = 784;
}
);
leftKerningGroup = O;
rightKerningGroup = G;
unicode = 0047;
},
{
glyphname = H;
lastChange = "2019-06-02 21:20:01 +0000";
layers = (
{
anchors = (
{
name = bottom;
position = "{316, 0}";
},
{
name = center;
position = "{416, 570}";
},
{
name = top;
position = "{441, 710}";
},
{
name = topleft;
position = "{88, 710}";
}
);
background = {
anchors = (
{
name = bottom;
position = "{360, 0}";
},
{
name = center;
position = "{360, 570}";
},
{
name = top;
position = "{360, 710}";
},
{
name = topleft;
position = "{7, 710}";
}
);
paths = (
{
closed = 1;
nodes = (
"639 0 LINE",
"639 710 LINE",
"556 710 LINE",
"556 0 LINE"
);
},
{
closed = 1;
nodes = (
"164 0 LINE",
"164 710 LINE",
"81 710 LINE",
"81 0 LINE"
);
},
{
closed = 1;
nodes = (
"605 324 LINE",
"605 396 LINE",
"124 396 LINE",
"124 324 LINE"
);
}
);
};
layerId = "A3B50665-EA37-4AC6-885C-1233CA61B6BD";
paths = (
{
closed = 1;
nodes = (
"595 0 LINE",
"720 710 LINE",
"637 710 LINE",
"512 0 LINE"
);
},
{
closed = 1;
nodes = (
"120 0 LINE",
"245 710 LINE",
"162 710 LINE",
"37 0 LINE"
);
},
{
closed = 1;
nodes = (
"619 324 LINE",
"631 397 LINE",
"150 397 LINE",
"138 324 LINE"
);
}
);
width = 720;
},
{
anchors = (
{
name = bottom;
position = "{332, 0}";
},
{
name = center;
position = "{432, 570}";
},
{
name = top;
position = "{457, 710}";
},
{
name = topleft;
position = "{92, 710}";
}
);
background = {
anchors = (
{
name = bottom;
position = "{377, 0}";
},
{
name = center;
position = "{377, 570}";
},
{
name = top;
position = "{377, 710}";
},
{
name = topleft;
position = "{12, 710}";
}
);
paths = (
{
closed = 1;
nodes = (
"686 0 LINE",
"686 710 LINE",
"530 710 LINE",
"530 0 LINE"
);
},
{
closed = 1;
nodes = (
"224 0 LINE",
"224 710 LINE",
"68 710 LINE",
"68 0 LINE"
);
},
{
closed = 1;
nodes = (
"626 290 LINE",
"626 426 LINE",
"136 426 LINE",
"136 290 LINE"
);
}
);
};
layerId = "014D4A40-7C7F-4023-B30E-1F55CE5EA091";
paths = (
{
closed = 1;
nodes = (
"641 0 LINE",
"766 710 LINE",
"610 710 LINE",
"485 0 LINE"
);
},
{
closed = 1;
nodes = (
"179 0 LINE",
"304 710 LINE",
"148 710 LINE",
"23 0 LINE"
);
},
{
closed = 1;
nodes = (
"633 290 LINE",
"657 426 LINE",
"167 426 LINE",
"143 290 LINE"
);
}
);
width = 754;
},
{
anchors = (
{
name = bottom;
position = "{305, 0}";
},
{
name = center;
position = "{405, 570}";
},
{
name = top;
position = "{430, 710}";
},
{
name = topleft;
position = "{85, 710}";
}
);
background = {
anchors = (
{
name = bottom;
position = "{348, 0}";
},
{
name = center;
position = "{348, 570}";
},
{
name = top;
position = "{348, 710}";
},
{
name = topleft;
position = "{3, 710}";
}
);
paths = (
{
closed = 1;
nodes = (
"606 0 LINE",
"606 710 LINE",
"575 710 LINE",
"575 0 LINE"
);
},
{
closed = 1;
nodes = (
"121 0 LINE",
"121 710 LINE",
"90 710 LINE",
"90 0 LINE"
);
},
{
closed = 1;
nodes = (
"590 348 LINE",
"590 376 LINE",
"115 376 LINE",
"115 348 LINE"
);
}
);
};
layerId = "7F092816-09A2-4631-A7F8-AD4571964C60";
paths = (
{
closed = 1;
nodes = (
"563 0 LINE",
"688 710 LINE",
"657 710 LINE",
"532 0 LINE"
);
},
{
closed = 1;
nodes = (
"78 0 LINE",
"203 710 LINE",
"172 710 LINE",
"47 0 LINE"
);
},
{
closed = 1;
nodes = (
"609 348 LINE",
"614 376 LINE",
"139 376 LINE",
"134 348 LINE"
);
}
);
width = 696;
},
{
anchors = (
{
name = bottom;
position = "{342, 0}";
},
{
name = center;
position = "{442, 570}";
},
{
name = top;
position = "{467, 710}";
},
{
name = topleft;
position = "{95, 710}";
}
);
background = {
anchors = (
{
name = bottom;
position = "{387, 0}";
},
{
name = center;
position = "{387, 570}";
},
{
name = top;
position = "{387, 710}";
},
{
name = topleft;
position = "{15, 710}";
}
);
paths = (
{
closed = 1;
nodes = (
"714 0 LINE",
"714 710 LINE",
"514 710 LINE",
"514 0 LINE"
);
},
{
closed = 1;
nodes = (
"260 0 LINE",
"260 710 LINE",
"60 710 LINE",
"60 0 LINE"
);
},
{
closed = 1;
nodes = (
"639 270 LINE",
"639 443 LINE",
"143 443 LINE",
"143 270 LINE"
);
}
);
};
layerId = "A0850C2E-74F0-4B2E-AE90-CE9FC07F2CBD";
paths = (
{
closed = 1;
nodes = (
"669 0 LINE",
"794 710 LINE",
"594 710 LINE",
"469 0 LINE"
);
},
{
closed = 1;
nodes = (
"215 0 LINE",
"340 710 LINE",
"140 710 LINE",
"15 0 LINE"
);
},
{
closed = 1;
nodes = (
"642 270 LINE",
"673 443 LINE",
"177 443 LINE",
"146 270 LINE"
);
}
);
width = 774.09091;
}
);
leftKerningGroup = H;
rightKerningGroup = H;
unicode = 0048;
},
{
glyphname = I;
lastChange = "2019-05-31 12:22:43 +0000";
layers = (
{
anchors = (
{
name = bottom;
position = "{79, 0}";
},
{
name = ogonek;
position = "{120, 0}";
},
{
name = top;
position = "{204, 710}";
},
{
name = topleft;
position = "{88, 710}";
}
);
background = {
anchors = (
{
name = bottom;
position = "{123, 0}";
},
{
name = ogonek;
position = "{164, 0}";
},
{
name = top;
position = "{123, 710}";
},
{
name = topleft;
position = "{7, 710}";
}
);
paths = (
{
closed = 1;
nodes = (
"164 0 LINE",
"164 710 LINE",
"81 710 LINE",
"81 0 LINE"
);
}
);
};
layerId = "A3B50665-EA37-4AC6-885C-1233CA61B6BD";
paths = (
{
closed = 1;
nodes = (
"120 0 LINE",
"245 710 LINE",
"162 710 LINE",
"37 0 LINE"
);
}
);
width = 245;
},
{
anchors = (
{
name = bottom;
position = "{101, 0}";
},
{
name = ogonek;
position = "{179, 0}";
},
{
name = top;
position = "{226, 710}";
},
{
name = topleft;
position = "{92, 710}";
}
);
background = {
anchors = (
{
name = bottom;
position = "{146, 0}";
},
{
name = ogonek;
position = "{224, 0}";
},
{
name = top;
position = "{146, 710}";
},
{
name = topleft;
position = "{12, 710}";
}
);
paths = (
{
closed = 1;
nodes = (
"224 0 LINE",
"224 710 LINE",
"68 710 LINE",
"68 0 LINE"
);
}
);
};
layerId = "014D4A40-7C7F-4023-B30E-1F55CE5EA091";
paths = (
{
closed = 1;
nodes = (
"179 0 LINE",
"304 710 LINE",
"148 710 LINE",
"23 0 LINE"
);
}
);
width = 292;
},
{
anchors = (
{
name = bottom;
position = "{63, 0}";
},
{
name = ogonek;
position = "{78, 0}";
},
{
name = top;
position = "{188, 710}";
},
{
name = topleft;
position = "{85, 710}";
}
);
background = {
anchors = (
{
name = bottom;
position = "{107, 0}";
},
{
name = ogonek;
position = "{121, 0}";
},
{
name = top;
position = "{107, 710}";
},
{
name = topleft;
position = "{3, 710}";
}
);
paths = (
{
closed = 1;
nodes = (
"121 0 LINE",
"121 710 LINE",
"90 710 LINE",
"90 0 LINE"
);
}
);
};
layerId = "7F092816-09A2-4631-A7F8-AD4571964C60";
paths = (
{
closed = 1;
nodes = (
"78 0 LINE",
"203 710 LINE",
"172 710 LINE",
"47 0 LINE"
);
}
);
width = 211;
},
{
anchors = (
{
name = bottom;
position = "{115, 0}";
},
{
name = ogonek;
position = "{215, 0}";
},
{
name = top;
position = "{240, 710}";
},
{
name = topleft;
position = "{95, 710}";
}
);
background = {
anchors = (
{
name = bottom;
position = "{160, 0}";
},
{
name = ogonek;
position = "{260, 0}";
},
{
name = top;
position = "{160, 710}";
},
{
name = topleft;
position = "{15, 710}";
}
);
paths = (
{
closed = 1;
nodes = (
"260 0 LINE",
"260 710 LINE",
"60 710 LINE",
"60 0 LINE"
);
}
);
};
layerId = "A0850C2E-74F0-4B2E-AE90-CE9FC07F2CBD";
paths = (
{
closed = 1;
nodes = (
"215 0 LINE",
"340 710 LINE",
"140 710 LINE",
"15 0 LINE"
);
}
);
width = 319.77273;
}
);
leftKerningGroup = H;
rightKerningGroup = H;
unicode = 0049;
},
{
glyphname = I_J.loclNLD;
lastChange = "2019-05-31 12:22:43 +0000";
layers = (
{
anchors = (
{
name = top_1;
position = "{204, 710}";
},
{
name = top_2;
position = "{602, 710}";
}
);
background = {
anchors = (
{
name = top_1;
position = "{204, 710}";
},
{
name = top_2;
position = "{602, 710}";
}
);
paths = (
{
closed = 1;
nodes = (
"438 -8 OFFCURVE",
"535 98 OFFCURVE",
"564 259 CURVE SMOOTH",
"643 710 LINE",
"560 710 LINE",
"480 255 LINE SMOOTH",
"460 139 OFFCURVE",
"399 65 OFFCURVE",
"284 65 CURVE SMOOTH",
"192 65 OFFCURVE",
"140 104 OFFCURVE",
"128 179 CURVE",
"54 149 LINE",
"62 55 OFFCURVE",
"143 -8 OFFCURVE",
"269 -8 CURVE SMOOTH"
);
},
{
closed = 1;
nodes = (
"175 310 LINE",
"245 710 LINE",
"162 710 LINE",
"92 310 LINE"
);
}
);
};
layerId = "A3B50665-EA37-4AC6-885C-1233CA61B6BD";
paths = (
{
closed = 1;
nodes = (
"444 -8 OFFCURVE",
"535 94 OFFCURVE",
"564 260 CURVE SMOOTH",
"643 710 LINE",
"560 710 LINE",
"480 255 LINE SMOOTH",
"460 139 OFFCURVE",
"399 65 OFFCURVE",
"287 65 CURVE SMOOTH",
"192 65 OFFCURVE",
"140 104 OFFCURVE",
"128 179 CURVE",
"54 149 LINE",
"67 55 OFFCURVE",
"149 -8 OFFCURVE",
"276 -8 CURVE SMOOTH"
);
},
{
closed = 1;
nodes = (
"175 310 LINE",
"245 710 LINE",
"162 710 LINE",
"92 310 LINE"
);
}
);
width = 640;
},
{
anchors = (
{
name = top_1;
position = "{226, 710}";
},
{
name = top_2;
position = "{616, 710}";
}
);
background = {
anchors = (
{
name = top_1;
position = "{226, 710}";
},
{
name = top_2;
position = "{616, 710}";
}
);
paths = (
{
closed = 1;
nodes = (
"465 -10 OFFCURVE",
"586 97 OFFCURVE",
"618 278 CURVE SMOOTH",
"694 710 LINE",
"538 710 LINE",
"459 261 LINE SMOOTH",
"444 177 OFFCURVE",
"390 127 OFFCURVE",
"313 127 CURVE SMOOTH",
"246 127 OFFCURVE",
"207 150 OFFCURVE",
"186 212 CURVE",
"48 155 LINE",
"66 46 OFFCURVE",
"153 -10 OFFCURVE",
"289 -10 CURVE SMOOTH"
);
},
{
closed = 1;
nodes = (
"234 310 LINE",
"304 710 LINE",
"148 710 LINE",
"78 310 LINE"
);
}
);
};
layerId = "014D4A40-7C7F-4023-B30E-1F55CE5EA091";
paths = (
{
closed = 1;
nodes = (
"475 -10 OFFCURVE",
"584 84 OFFCURVE",
"618 278 CURVE SMOOTH",
"694 710 LINE",
"538 710 LINE",
"459 261 LINE SMOOTH",
"444 177 OFFCURVE",
"392 127 OFFCURVE",
"315 127 CURVE SMOOTH",
"248 127 OFFCURVE",
"209 150 OFFCURVE",
"186 212 CURVE",
"48 155 LINE",
"76 46 OFFCURVE",
"173 -10 OFFCURVE",
"302 -10 CURVE SMOOTH"
);
},
{
closed = 1;
nodes = (
"234 310 LINE",
"304 710 LINE",
"148 710 LINE",
"78 310 LINE"
);
}
);
width = 679;
},
{
anchors = (
{
name = top_1;
position = "{189, 710}";
},
{
name = top_2;
position = "{592, 710}";
}
);
background = {
anchors = (
{
name = top_1;
position = "{189, 710}";
},
{
name = top_2;
position = "{592, 710}";
}
);
paths = (
{
closed = 1;
nodes = (
"403 -7 OFFCURVE",
"496 80 OFFCURVE",
"526 251 CURVE SMOOTH",
"607 710 LINE",
"576 710 LINE",
"495 251 LINE SMOOTH",
"468 96 OFFCURVE",
"393 23 OFFCURVE",
"264 23 CURVE SMOOTH",
"152 23 OFFCURVE",
"96 71 OFFCURVE",
"87 156 CURVE",
"59 145 LINE",
"62 55 OFFCURVE",
"131 -7 OFFCURVE",
"259 -7 CURVE SMOOTH"
);
},
{
closed = 1;
nodes = (
"133 310 LINE",
"203 710 LINE",
"172 710 LINE",
"102 310 LINE"
);
}
);
};
layerId = "7F092816-09A2-4631-A7F8-AD4571964C60";
paths = (
{
closed = 1;
nodes = (
"406 -7 OFFCURVE",
"495 74 OFFCURVE",
"526 251 CURVE SMOOTH",
"607 710 LINE",
"576 710 LINE",
"495 251 LINE SMOOTH",
"468 96 OFFCURVE",
"393 23 OFFCURVE",
"264 23 CURVE SMOOTH",
"152 23 OFFCURVE",
"96 71 OFFCURVE",
"87 156 CURVE",
"59 145 LINE",
"65 55 OFFCURVE",
"134 -7 OFFCURVE",
"262 -7 CURVE SMOOTH"
);
},
{
closed = 1;
nodes = (
"133 310 LINE",
"203 710 LINE",
"172 710 LINE",
"102 310 LINE"
);
}
);
width = 612;
},
{
anchors = (
{
name = top_1;
position = "{241, 710}";
},
{
name = top_2;
position = "{626, 710}";
}
);
background = {
anchors = (
{
name = top_1;
position = "{241, 710}";
},
{
name = top_2;
position = "{626, 710}";
}
);
paths = (
{
closed = 1;
nodes = (
"487 -11 OFFCURVE",
"618 102 OFFCURVE",
"651 289 CURVE SMOOTH",
"726 710 LINE",
"526 710 LINE",
"447 264 LINE SMOOTH",
"436 204 OFFCURVE",
"390 164 OFFCURVE",
"331 164 CURVE SMOOTH",
"274 164 OFFCURVE",
"245 182 OFFCURVE",
"226 231 CURVE",
"41 158 LINE",
"64 46 OFFCURVE",
"153 -11 OFFCURVE",
"301 -11 CURVE SMOOTH"
);
},
{
closed = 1;
nodes = (
"270 310 LINE",
"341 710 LINE",
"141 710 LINE",
"70 310 LINE"
);
}
);
};
layerId = "A0850C2E-74F0-4B2E-AE90-CE9FC07F2CBD";
paths = (
{
closed = 1;
nodes = (
"507 -11 OFFCURVE",
"617 88 OFFCURVE",
"652 289 CURVE SMOOTH",
"726 710 LINE",
"526 710 LINE",
"447 264 LINE SMOOTH",
"436 204 OFFCURVE",
"395 164 OFFCURVE",
"333 164 CURVE SMOOTH",
"274 164 OFFCURVE",
"245 182 OFFCURVE",
"226 231 CURVE",
"41 158 LINE",
"71 55 OFFCURVE",
"163 -11 OFFCURVE",
"311 -11 CURVE SMOOTH"
);
},
{
closed = 1;
nodes = (
"270 310 LINE",
"341 710 LINE",
"141 710 LINE",
"70 310 LINE"
);
}
);
width = 702;
}
);
leftKerningGroup = U;
rightKerningGroup = U;
},
{
glyphname = J;
lastChange = "2019-05-31 12:22:43 +0000";
layers = (
{
anchors = (
{
name = bottom;
position = "{180, 0}";
},
{
name = top;
position = "{412, 710}";
}
);
background = {
anchors = (
{
name = bottom;
position = "{180, 0}";
},
{
name = top;
position = "{412, 710}";
}
);
paths = (
{
closed = 1;
nodes = (
"264 -8 OFFCURVE",
"340 68 OFFCURVE",
"365 209 CURVE SMOOTH",
"453 710 LINE",
"370 710 LINE",
"281 205 LINE SMOOTH",
"264 109 OFFCURVE",
"223 65 OFFCURVE",
"148 65 CURVE SMOOTH",
"80 65 OFFCURVE",
"44 94 OFFCURVE",
"34 159 CURVE",
"-39 129 LINE",
"-34 45 OFFCURVE",
"32 -8 OFFCURVE",
"132 -8 CURVE SMOOTH"
);
}
);
};
layerId = "A3B50665-EA37-4AC6-885C-1233CA61B6BD";
paths = (
{
closed = 1;
nodes = (
"272 -8 OFFCURVE",
"340 68 OFFCURVE",
"365 209 CURVE SMOOTH",
"453 710 LINE",
"370 710 LINE",
"281 205 LINE SMOOTH",
"264 109 OFFCURVE",
"223 65 OFFCURVE",
"148 65 CURVE SMOOTH",
"80 65 OFFCURVE",
"44 94 OFFCURVE",
"34 159 CURVE",
"-39 129 LINE",
"-29 45 OFFCURVE",
"37 -8 OFFCURVE",
"137 -8 CURVE SMOOTH"
);
}
);
width = 451;
},
{
anchors = (
{
name = bottom;
position = "{202, 0}";
},
{
name = top;
position = "{432, 710}";
}
);
background = {
anchors = (
{
name = bottom;
position = "{202, 0}";
},
{
name = top;
position = "{432, 710}";
}
);
paths = (
{
closed = 1;
nodes = (
"301 -10 OFFCURVE",
"400 81 OFFCURVE",
"427 238 CURVE SMOOTH",
"510 710 LINE",
"354 710 LINE",
"268 221 LINE SMOOTH",
"257 157 OFFCURVE",
"223 127 OFFCURVE",
"174 127 CURVE SMOOTH",
"126 127 OFFCURVE",
"102 152 OFFCURVE",
"91 202 CURVE",
"-46 145 LINE",
"-35 44 OFFCURVE",
"41 -10 OFFCURVE",
"152 -10 CURVE SMOOTH"
);
}
);
};
layerId = "014D4A40-7C7F-4023-B30E-1F55CE5EA091";
paths = (
{
closed = 1;
nodes = (
"311 -10 OFFCURVE",
"398 71 OFFCURVE",
"427 238 CURVE SMOOTH",
"510 710 LINE",
"354 710 LINE",
"268 221 LINE SMOOTH",
"257 157 OFFCURVE",
"223 127 OFFCURVE",
"179 127 CURVE SMOOTH",
"131 127 OFFCURVE",
"107 152 OFFCURVE",
"91 202 CURVE",
"-46 145 LINE",
"-25 44 OFFCURVE",
"52 -10 OFFCURVE",
"162 -10 CURVE SMOOTH"
);
}
);
width = 496;
},
{
anchors = (
{
name = bottom;
position = "{165, 0}";
},
{
name = top;
position = "{398, 710}";
}
);
background = {
paths = (
{
closed = 1;
nodes = (
"233 -7 OFFCURVE",
"298 56 OFFCURVE",
"324 203 CURVE SMOOTH",
"413 710 LINE",
"382 710 LINE",
"292 201 LINE SMOOTH",
"270 73 OFFCURVE",
"222 23 OFFCURVE",
"128 23 CURVE SMOOTH",
"47 23 OFFCURVE",
"3 53 OFFCURVE",
"-4 128 CURVE",
"-34 118 LINE",
"-29 43 OFFCURVE",
"21 -7 OFFCURVE",
"122 -7 CURVE SMOOTH"
);
}
);
};
layerId = "7F092816-09A2-4631-A7F8-AD4571964C60";
paths = (
{
closed = 1;
nodes = (
"243 -7 OFFCURVE",
"298 56 OFFCURVE",
"324 203 CURVE SMOOTH",
"413 710 LINE",
"382 710 LINE",
"292 201 LINE SMOOTH",
"270 73 OFFCURVE",
"222 23 OFFCURVE",
"128 23 CURVE SMOOTH",
"50 23 OFFCURVE",
"5 53 OFFCURVE",
"-4 128 CURVE",
"-33 118 LINE",
"-25 43 OFFCURVE",
"25 -7 OFFCURVE",
"126 -7 CURVE SMOOTH"
);
}
);
width = 419;
},
{
anchors = (
{
name = bottom;
position = "{216, 0}";
},
{
name = top;
position = "{446, 710}";
}
);
background = {
anchors = (
{
name = bottom;
position = "{216, 0}";
},
{
name = top;
position = "{446, 710}";
}
);
paths = (
{
closed = 1;
nodes = (
"322 -11 OFFCURVE",
"436 89 OFFCURVE",
"465 255 CURVE SMOOTH",
"546 710 LINE",
"346 710 LINE",
"261 230 LINE SMOOTH",
"254 189 OFFCURVE",
"226 164 OFFCURVE",
"189 164 CURVE SMOOTH",
"157 164 OFFCURVE",
"133 182 OFFCURVE",
"125 227 CURVE",
"-49 154 LINE",
"-36 48 OFFCURVE",
"40 -11 OFFCURVE",
"164 -11 CURVE SMOOTH"
);
}
);
};
layerId = "A0850C2E-74F0-4B2E-AE90-CE9FC07F2CBD";
paths = (
{
closed = 1;
nodes = (
"332 -11 OFFCURVE",
"434 79 OFFCURVE",
"465 255 CURVE SMOOTH",
"546 710 LINE",
"346 710 LINE",
"261 230 LINE SMOOTH",
"254 189 OFFCURVE",
"228 164 OFFCURVE",
"192 164 CURVE SMOOTH",
"159 164 OFFCURVE",
"133 182 OFFCURVE",
"125 227 CURVE",
"-49 154 LINE",
"-26 48 OFFCURVE",
"50 -11 OFFCURVE",
"178 -11 CURVE SMOOTH"
);
}
);
width = 523;
}
);
leftKerningGroup = J;
rightKerningGroup = J;
unicode = 004A;
},
{
glyphname = K;
lastChange = "2019-05-31 12:22:43 +0000";
layers = (
{
anchors = (
{
name = bottom;
position = "{254, 0}";
},
{
name = top;
position = "{379, 710}";
}
);
background = {
paths = (
{
closed = 1;
nodes = (
"120 0 LINE",
"245 710 LINE",
"162 710 LINE",
"37 0 LINE"
);
},
{
closed = 1;
nodes = (
"540 82 LINE",
"523 72 OFFCURVE",
"504 66 OFFCURVE",
"484 66 CURVE SMOOTH",
"439 66 OFFCURVE",
"422 79 OFFCURVE",
"395 134 CURVE SMOOTH",
"317 293 LINE SMOOTH",
"292 344 OFFCURVE",
"251 370 OFFCURVE",
"206 370 CURVE",
"237 338 LINE",
"671 710 LINE",
"569 710 LINE",
"155 353 LINE",
"149 319 LINE",
"194 319 OFFCURVE",
"216 301 OFFCURVE",
"229 275 CURVE SMOOTH",
"326 83 LINE SMOOTH",
"358 18 OFFCURVE",
"400 -6 OFFCURVE",
"458 -6 CURVE SMOOTH",
"493 -6 OFFCURVE",
"523 2 OFFCURVE",
"547 18 CURVE"
);
}
);
};
guideLines = (
{
angle = 225.5093;
position = "{272, 483}";
}
);
layerId = "A3B50665-EA37-4AC6-885C-1233CA61B6BD";
paths = (
{
closed = 1;
nodes = (
"120 0 LINE",
"245 710 LINE",
"162 710 LINE",
"37 0 LINE"
);
},
{
closed = 1;
nodes = (
"539 82 LINE",
"523 72 OFFCURVE",
"504 66 OFFCURVE",
"479 66 CURVE SMOOTH",
"439 66 OFFCURVE",
"420 79 OFFCURVE",
"393 134 CURVE SMOOTH",
"315 293 LINE SMOOTH",
"290 344 OFFCURVE",
"251 368 OFFCURVE",
"206 368 CURVE",
"238 338 LINE",
"672 710 LINE",
"567 710 LINE",
"153 353 LINE",
"149 319 LINE",
"194 319 OFFCURVE",
"218 301 OFFCURVE",
"231 275 CURVE SMOOTH",
"328 83 LINE SMOOTH",
"361 18 OFFCURVE",
"400 -6 OFFCURVE",
"458 -6 CURVE SMOOTH",
"493 -6 OFFCURVE",
"523 1 OFFCURVE",
"549 20 CURVE"
);
}
);
width = 569;
},
{
anchors = (
{
name = bottom;
position = "{290, 0}";
},
{
name = top;
position = "{415, 710}";
}
);
background = {
anchors = (
{
name = bottom;
position = "{290, 0}";
},
{
name = top;
position = "{415, 710}";
}
);
paths = (
{
closed = 1;
nodes = (
"179 0 LINE",
"304 710 LINE",
"148 710 LINE",
"23 0 LINE"
);
},
{
closed = 1;
nodes = (
"640 146 LINE",
"617 132 OFFCURVE",
"594 127 OFFCURVE",
"569 127 CURVE SMOOTH",
"532 127 OFFCURVE",
"509 140 OFFCURVE",
"492 177 CURVE SMOOTH",
"445 283 LINE SMOOTH",
"422 336 OFFCURVE",
"378 373 OFFCURVE",
"316 373 CURVE",
"355 329 LINE",
"771 710 LINE",
"584 710 LINE",
"196 351 LINE",
"185 290 LINE",
"247 290 OFFCURVE",
"268 278 OFFCURVE",
"289 234 CURVE SMOOTH",
"353 93 LINE SMOOTH",
"383 26 OFFCURVE",
"443 -10 OFFCURVE",
"526 -10 CURVE SMOOTH",
"573 -10 OFFCURVE",
"623 4 OFFCURVE",
"655 26 CURVE"
);
}
);
};
guideLines = (
{
angle = 46.6112;
position = "{231, 445}";
}
);
layerId = "014D4A40-7C7F-4023-B30E-1F55CE5EA091";
paths = (
{
closed = 1;
nodes = (
"179 0 LINE",
"304 710 LINE",
"148 710 LINE",
"23 0 LINE"
);
},
{
closed = 1;
nodes = (
"635 144 LINE",
"617 132 OFFCURVE",
"594 127 OFFCURVE",
"569 127 CURVE SMOOTH",
"532 127 OFFCURVE",
"506 140 OFFCURVE",
"489 177 CURVE SMOOTH",
"442 283 LINE SMOOTH",
"419 336 OFFCURVE",
"378 370 OFFCURVE",
"316 370 CURVE",
"357 329 LINE",
"773 710 LINE",
"581 710 LINE",
"193 351 LINE",
"185 290 LINE",
"247 290 OFFCURVE",
"271 278 OFFCURVE",
"291 234 CURVE SMOOTH",
"355 93 LINE SMOOTH",
"385 26 OFFCURVE",
"443 -10 OFFCURVE",
"526 -10 CURVE SMOOTH",
"573 -10 OFFCURVE",
"623 2 OFFCURVE",
"655 26 CURVE"
);
}
);
width = 663;
},
{
anchors = (
{
name = bottom;
position = "{229, 0}";
},
{
name = top;
position = "{354, 710}";
}
);
background = {
anchors = (
{
name = bottom;
position = "{229, 0}";
},
{
name = top;
position = "{354, 710}";
}
);
paths = (
{
closed = 1;
nodes = (
"78 0 LINE",
"203 710 LINE",
"172 710 LINE",
"47 0 LINE"
);
},
{
closed = 1;
nodes = (
"470 36 LINE",
"453 27 OFFCURVE",
"438 22 OFFCURVE",
"420 22 CURVE SMOOTH",
"383 22 OFFCURVE",
"360 35 OFFCURVE",
"328 98 CURVE SMOOTH",
"225 300 LINE SMOOTH",
"199 350 OFFCURVE",
"174 368 OFFCURVE",
"135 368 CURVE",
"152 344 LINE",
"600 710 LINE",
"559 710 LINE",
"126 355 LINE",
"124 340 LINE",
"155 340 OFFCURVE",
"176 329 OFFCURVE",
"192 297 CURVE SMOOTH",
"305 76 LINE SMOOTH",
"336 17 OFFCURVE",
"365 -3 OFFCURVE",
"413 -3 CURVE SMOOTH",
"436 -3 OFFCURVE",
"456 2 OFFCURVE",
"474 13 CURVE"
);
}
);
};
layerId = "7F092816-09A2-4631-A7F8-AD4571964C60";
paths = (
{
closed = 1;
nodes = (
"78 0 LINE",
"203 710 LINE",
"172 710 LINE",
"47 0 LINE"
);
},
{
closed = 1;
nodes = (
"468 38 LINE",
"453 27 OFFCURVE",
"436 22 OFFCURVE",
"419 22 CURVE SMOOTH",
"385 22 OFFCURVE",
"361 31 OFFCURVE",
"327 98 CURVE SMOOTH",
"224 300 LINE SMOOTH",
"198 350 OFFCURVE",
"174 361 OFFCURVE",
"150 361 CURVE",
"153 344 LINE",
"601 710 LINE",
"557 710 LINE",
"124 355 LINE",
"124 340 LINE",
"158 340 OFFCURVE",
"177 329 OFFCURVE",
"193 297 CURVE SMOOTH",
"306 76 LINE SMOOTH",
"335 20 OFFCURVE",
"365 -3 OFFCURVE",
"413 -3 CURVE SMOOTH",
"436 -3 OFFCURVE",
"456 2 OFFCURVE",
"474 15 CURVE"
);
}
);
width = 502;
},
{
anchors = (
{
name = bottom;
position = "{312, 0}";
},
{
name = top;
position = "{438, 710}";
}
);
background = {
anchors = (
{
name = bottom;
position = "{312, 0}";
},
{
name = top;
position = "{438, 710}";
}
);
paths = (
{
closed = 1;
nodes = (
"215 0 LINE",
"341 710 LINE",
"141 710 LINE",
"15 0 LINE"
);
},
{
closed = 1;
nodes = (
"700 184 LINE",
"674 170 OFFCURVE",
"649 163 OFFCURVE",
"619 163 CURVE SMOOTH",
"583 163 OFFCURVE",
"561 178 OFFCURVE",
"548 210 CURVE SMOOTH",
"521 277 LINE SMOOTH",
"499 332 OFFCURVE",
"454 375 OFFCURVE",
"382 375 CURVE",
"427 324 LINE",
"832 710 LINE",
"594 710 LINE",
"221 350 LINE",
"208 273 LINE",
"284 273 OFFCURVE",
"304 262 OFFCURVE",
"324 210 CURVE SMOOTH",
"370 99 LINE SMOOTH",
"400 25 OFFCURVE",
"465 -12 OFFCURVE",
"566 -12 CURVE SMOOTH",
"620 -12 OFFCURVE",
"682 5 OFFCURVE",
"719 30 CURVE"
);
}
);
};
layerId = "A0850C2E-74F0-4B2E-AE90-CE9FC07F2CBD";
paths = (
{
closed = 1;
nodes = (
"215 0 LINE",
"340 710 LINE",
"140 710 LINE",
"15 0 LINE"
);
},
{
closed = 1;
nodes = (
"696 184 LINE",
"674 170 OFFCURVE",
"649 163 OFFCURVE",
"619 163 CURVE SMOOTH",
"580 163 OFFCURVE",
"558 178 OFFCURVE",
"545 210 CURVE SMOOTH",
"518 277 LINE SMOOTH",
"496 332 OFFCURVE",
"454 372 OFFCURVE",
"382 372 CURVE",
"430 324 LINE",
"835 710 LINE",
"591 710 LINE",
"218 350 LINE",
"218 273 LINE",
"284 273 OFFCURVE",
"306 261 OFFCURVE",
"327 210 CURVE SMOOTH",
"373 99 LINE SMOOTH",
"404 25 OFFCURVE",
"465 -12 OFFCURVE",
"566 -12 CURVE SMOOTH",
"620 -12 OFFCURVE",
"682 3 OFFCURVE",
"719 30 CURVE"
);
}
);
width = 719;
}
);
leftKerningGroup = H;
rightKerningGroup = K;
unicode = 004B;
},
{
glyphname = L;
lastChange = "2019-05-31 12:22:43 +0000";
layers = (
{
anchors = (
{
name = bottom;
position = "{240, 0}";
},
{
name = center;
position = "{141, 355}";
},
{
name = dotacc;
position = "{410, 401}";
},
{
name = top;
position = "{204, 710}";
},
{
name = topright;
position = "{346, 710}";
}
);
background = {
anchors = (
{
name = bottom;
position = "{303, 0}";
},
{
name = center;
position = "{142, 355}";
},
{
name = dotacc;
position = "{402, 401}";
},
{
name = top;
position = "{142, 710}";
},
{
name = topright;
position = "{283, 710}";
}
);
paths = (
{
closed = 1;
nodes = (
"506 0 LINE",
"516 72 LINE",
"183 72 LINE",
"183 710 LINE",
"100 710 LINE",
"100 0 LINE"
);
}
);
};
layerId = "A3B50665-EA37-4AC6-885C-1233CA61B6BD";
paths = (
{
closed = 1;
nodes = (
"443 0 LINE",
"463 72 LINE",
"133 72 LINE",
"245 710 LINE",
"162 710 LINE",
"37 0 LINE"
);
}
);
width = 487;
},
{
anchors = (
{
name = bottom;
position = "{251, 0}";
},
{
name = center;
position = "{167, 375}";
},
{
name = dotacc;
position = "{461, 433}";
},
{
name = top;
position = "{226, 710}";
},
{
name = topright;
position = "{405, 710}";
}
);
background = {
anchors = (
{
name = bottom;
position = "{314, 0}";
},
{
name = center;
position = "{164, 375}";
},
{
name = dotacc;
position = "{447, 433}";
},
{
name = top;
position = "{164, 710}";
},
{
name = topright;
position = "{342, 710}";
}
);
paths = (
{
closed = 1;
nodes = (
"541 0 LINE",
"551 136 LINE",
"242 136 LINE",
"242 710 LINE",
"86 710 LINE",
"86 0 LINE"
);
}
);
};
layerId = "014D4A40-7C7F-4023-B30E-1F55CE5EA091";
paths = (
{
closed = 1;
nodes = (
"478 0 LINE",
"512 136 LINE",
"203 136 LINE",
"304 710 LINE",
"148 710 LINE",
"23 0 LINE"
);
}
);
width = 528;
},
{
anchors = (
{
name = bottom;
position = "{232, 0}";
},
{
name = center;
position = "{122, 341}";
},
{
name = dotacc;
position = "{374, 378}";
},
{
name = top;
position = "{189, 710}";
},
{
name = topright;
position = "{304, 710}";
}
);
background = {
anchors = (
{
name = bottom;
position = "{295, 0}";
},
{
name = center;
position = "{127, 341}";
},
{
name = dotacc;
position = "{370, 378}";
},
{
name = top;
position = "{127, 710}";
},
{
name = topright;
position = "{241, 710}";
}
);
paths = (
{
closed = 1;
nodes = (
"481 0 LINE",
"486 26 LINE",
"141 26 LINE",
"141 710 LINE",
"110 710 LINE",
"110 0 LINE"
);
}
);
};
layerId = "7F092816-09A2-4631-A7F8-AD4571964C60";
paths = (
{
closed = 1;
nodes = (
"418 0 LINE",
"428 27 LINE",
"83 27 LINE",
"203 710 LINE",
"172 710 LINE",
"47 0 LINE"
);
}
);
width = 458;
},
{
anchors = (
{
name = bottom;
position = "{258, 0}";
},
{
name = center;
position = "{183, 387}";
},
{
name = dotacc;
position = "{491, 452}";
},
{
name = top;
position = "{240, 710}";
},
{
name = topright;
position = "{441, 710}";
}
);
background = {
anchors = (
{
name = bottom;
position = "{321, 0}";
},
{
name = center;
position = "{178, 387}";
},
{
name = dotacc;
position = "{474, 452}";
},
{
name = top;
position = "{178, 710}";
},
{
name = topright;
position = "{378, 710}";
}
);
paths = (
{
closed = 1;
nodes = (
"562 0 LINE",
"574 174 LINE",
"278 174 LINE",
"278 710 LINE",
"78 710 LINE",
"78 0 LINE"
);
}
);
};
layerId = "A0850C2E-74F0-4B2E-AE90-CE9FC07F2CBD";
paths = (
{
closed = 1;
nodes = (
"499 0 LINE",
"542 174 LINE",
"246 174 LINE",
"340 710 LINE",
"140 710 LINE",
"15 0 LINE"
);
}
);
width = 552;
}
);
leftKerningGroup = H;
rightKerningGroup = L;
unicode = 004C;
},
{
glyphname = M;
lastChange = "2019-05-31 12:22:43 +0000";
layers = (
{
anchors = (
{
name = bottom;
position = "{413, 0}";
},
{
name = top;
position = "{539, 710}";
}
);
background = {
paths = (
{
closed = 1;
nodes = (
"107 0 LINE",
"251 650 LINE",
"210 613 LINE",
"378 0 LINE",
"447 0 LINE",
"840 623 LINE",
"808 650 LINE",
"718 0 LINE",
"796 0 LINE",
"896 710 LINE",
"817 710 LINE",
"398 44 LINE",
"449 44 LINE",
"266 710 LINE",
"187 710 LINE",
"30 0 LINE"
);
}
);
};
layerId = "A3B50665-EA37-4AC6-885C-1233CA61B6BD";
paths = (
{
closed = 1;
nodes = (
"107 0 LINE",
"251 650 LINE",
"214 613 LINE",
"378 0 LINE",
"447 0 LINE",
"844 623 LINE",
"808 650 LINE",
"718 0 LINE",
"796 0 LINE",
"896 710 LINE",
"817 710 LINE",
"394 44 LINE",
"445 44 LINE",
"266 710 LINE",
"187 710 LINE",
"30 0 LINE"
);
}
);
width = 916;
},
{
anchors = (
{
name = bottom;
position = "{423, 0}";
},
{
name = top;
position = "{549, 710}";
}
);
background = {
anchors = (
{
name = bottom;
position = "{489, 0}";
},
{
name = top;
position = "{489, 710}";
}
);
paths = (
{
closed = 1;
nodes = (
"228 0 LINE",
"250 611 LINE",
"166 540 LINE",
"431 0 LINE",
"545 0 LINE",
"814 553 LINE",
"727 611 LINE",
"743 0 LINE",
"893 0 LINE",
"873 710 LINE",
"741 710 LINE",
"449 102 LINE",
"539 102 LINE",
"242 710 LINE",
"109 710 LINE",
"84 0 LINE"
);
}
);
};
guideLines = (
{
angle = -88.391;
position = "{751, 356}";
},
{
angle = 88.391;
position = "{250, 356}";
}
);
layerId = "014D4A40-7C7F-4023-B30E-1F55CE5EA091";
paths = (
{
closed = 1;
nodes = (
"165 0 LINE",
"295 611 LINE",
"205 540 LINE",
"366 0 LINE",
"480 0 LINE",
"857 553 LINE",
"772 611 LINE",
"680 0 LINE",
"830 0 LINE",
"937 710 LINE",
"805 710 LINE",
"395 102 LINE",
"486 102 LINE",
"304 710 LINE",
"172 710 LINE",
"21 0 LINE"
);
}
);
width = 943;
},
{
anchors = (
{
name = bottom;
position = "{406, 0}";
},
{
name = top;
position = "{532, 710}";
}
);
background = {
anchors = (
{
name = bottom;
position = "{469, 0}";
},
{
name = top;
position = "{469, 710}";
}
);
paths = (
{
closed = 1;
nodes = (
"129 0 LINE",
"163 678 LINE",
"165 665 LINE",
"450 0 LINE",
"487 0 LINE",
"778 673 LINE",
"777 678 LINE",
"808 0 LINE",
"835 0 LINE",
"804 710 LINE",
"763 710 LINE",
"458 3 LINE",
"480 3 LINE",
"176 710 LINE",
"135 710 LINE",
"100 0 LINE"
);
}
);
};
layerId = "7F092816-09A2-4631-A7F8-AD4571964C60";
paths = (
{
closed = 1;
nodes = (
"66 0 LINE",
"220 678 LINE",
"216 681 LINE",
"389 0 LINE",
"422 0 LINE",
"841 678 LINE",
"834 678 LINE",
"745 0 LINE",
"772 0 LINE",
"867 710 LINE",
"828 710 LINE",
"403 17 LINE",
"412 17 LINE",
"237 710 LINE",
"198 710 LINE",
"37 0 LINE"
);
}
);
width = 897;
},
{
anchors = (
{
name = bottom;
position = "{428, 0}";
},
{
name = top;
position = "{554, 710}";
}
);
background = {
paths = (
{
closed = 1;
nodes = (
"199 0 LINE",
"321 588 LINE",
"190 497 LINE",
"359 0 LINE",
"499 0 LINE",
"853 512 LINE",
"750 588 LINE",
"657 0 LINE",
"850 0 LINE",
"961 710 LINE",
"798 710 LINE",
"408 137 LINE",
"520 137 LINE",
"326 710 LINE",
"163 710 LINE",
"16 0 LINE"
);
}
);
};
layerId = "A0850C2E-74F0-4B2E-AE90-CE9FC07F2CBD";
paths = (
{
closed = 1;
nodes = (
"199 0 LINE",
"321 588 LINE",
"200 497 LINE",
"359 0 LINE",
"499 0 LINE",
"863 512 LINE",
"750 588 LINE",
"657 0 LINE",
"850 0 LINE",
"961 710 LINE",
"798 710 LINE",
"398 137 LINE",
"510 137 LINE",
"326 710 LINE",
"163 710 LINE",
"16 0 LINE"
);
}
);
width = 959;
}
);
leftKerningGroup = H;
rightKerningGroup = H;
unicode = 004D;
},
{
glyphname = N;
lastChange = "2019-05-31 12:22:43 +0000";
layers = (
{
anchors = (
{
name = bottom;
position = "{316, 0}";
},
{
name = top;
position = "{442, 710}";
}
);
background = {
anchors = (
{
name = bottom;
position = "{378, 0}";
},
{
name = top;
position = "{378, 712}";
}
);
paths = (
{
closed = 1;
nodes = (
"579 81 LINE",
"614 89 LINE",
"168 710 LINE",
"101 710 LINE",
"101 0 LINE",
"178 0 LINE",
"178 630 LINE",
"143 621 LINE",
"589 0 LINE",
"656 0 LINE",
"656 710 LINE",
"579 710 LINE"
);
}
);
};
layerId = "A3B50665-EA37-4AC6-885C-1233CA61B6BD";
paths = (
{
closed = 1;
nodes = (
"530 81 LINE",
"564 85 LINE",
"233 710 LINE",
"162 710 LINE",
"37 0 LINE",
"116 0 LINE",
"226 630 LINE",
"192 625 LINE",
"523 0 LINE",
"594 0 LINE",
"719 710 LINE",
"640 710 LINE"
);
}
);
width = 719;
},
{
anchors = (
{
name = bottom;
position = "{329, 0}";
},
{
name = top;
position = "{455, 712}";
}
);
background = {
anchors = (
{
name = bottom;
position = "{397, 0}";
},
{
name = top;
position = "{396, 712}";
}
);
paths = (
{
closed = 1;
nodes = (
"548 141 LINE",
"602 175 LINE",
"224 710 LINE",
"88 710 LINE",
"88 0 LINE",
"236 0 LINE",
"236 569 LINE",
"182 535 LINE",
"560 0 LINE",
"696 0 LINE",
"696 710 LINE",
"548 710 LINE"
);
}
);
};
layerId = "014D4A40-7C7F-4023-B30E-1F55CE5EA091";
paths = (
{
closed = 1;
nodes = (
"510 141 LINE",
"569 165 LINE",
"286 710 LINE",
"148 710 LINE",
"23 0 LINE",
"173 0 LINE",
"273 569 LINE",
"214 545 LINE",
"497 0 LINE",
"635 0 LINE",
"760 710 LINE",
"610 710 LINE"
);
}
);
width = 748;
},
{
anchors = (
{
name = bottom;
position = "{307, 0}";
},
{
name = top;
position = "{432, 709}";
}
);
background = {
anchors = (
{
name = bottom;
position = "{370, 0}";
},
{
name = top;
position = "{370, 709}";
}
);
paths = (
{
closed = 1;
nodes = (
"600 38 LINE",
"618 29 LINE",
"134 710 LINE",
"110 710 LINE",
"110 0 LINE",
"139 0 LINE",
"139 673 LINE",
"120 681 LINE",
"605 0 LINE",
"628 0 LINE",
"628 710 LINE",
"600 710 LINE"
);
}
);
};
layerId = "7F092816-09A2-4631-A7F8-AD4571964C60";
paths = (
{
closed = 1;
nodes = (
"543 38 LINE",
"557 31 LINE",
"196 710 LINE",
"172 710 LINE",
"47 0 LINE",
"76 0 LINE",
"194 673 LINE",
"180 679 LINE",
"542 0 LINE",
"565 0 LINE",
"690 710 LINE",
"661 710 LINE"
);
}
);
width = 698;
},
{
anchors = (
{
name = bottom;
position = "{337, 0}";
},
{
name = top;
position = "{463, 713}";
}
);
background = {
paths = (
{
closed = 1;
nodes = (
"500 177 LINE",
"581 229 LINE",
"318 710 LINE",
"140 710 LINE",
"15 0 LINE",
"207 0 LINE",
"300 533 LINE",
"219 482 LINE",
"482 0 LINE",
"660 0 LINE",
"785 710 LINE",
"593 710 LINE"
);
}
);
};
layerId = "A0850C2E-74F0-4B2E-AE90-CE9FC07F2CBD";
paths = (
{
closed = 1;
nodes = (
"500 177 LINE",
"581 217 LINE",
"318 710 LINE",
"140 710 LINE",
"15 0 LINE",
"207 0 LINE",
"300 533 LINE",
"219 494 LINE",
"482 0 LINE",
"660 0 LINE",
"785 710 LINE",
"593 710 LINE"
);
}
);
width = 765;
}
);
leftKerningGroup = H;
rightKerningGroup = H;
unicode = 004E;
},
{
glyphname = Eng;
lastChange = "2019-05-31 12:22:43 +0000";
layers = (
{
background = {
paths = (
{
closed = 1;
nodes = (
"530 81 LINE",
"564 85 LINE",
"233 710 LINE",
"162 710 LINE",
"37 0 LINE",
"116 0 LINE",
"226 630 LINE",
"192 625 LINE",
"523 0 LINE",
"594 0 LINE",
"719 710 LINE",
"640 710 LINE"
);
}
);
};
layerId = "A3B50665-EA37-4AC6-885C-1233CA61B6BD";
paths = (
{
closed = 1;
nodes = (
"505 -208 OFFCURVE",
"568 -138 OFFCURVE",
"591 -11 CURVE SMOOTH",
"719 710 LINE",
"640 710 LINE",
"530 81 LINE",
"564 85 LINE",
"233 710 LINE",
"162 710 LINE",
"37 0 LINE",
"116 0 LINE",
"227 630 LINE",
"192 625 LINE",
"523 0 LINE",
"523 37 LINE",
"512 -25 LINE SMOOTH",
"501 -91 OFFCURVE",
"459 -136 OFFCURVE",
"394 -136 CURVE SMOOTH",
"336 -136 OFFCURVE",
"300 -106 OFFCURVE",
"301 -41 CURVE",
"227 -71 LINE",
"234 -155 OFFCURVE",
"297 -208 OFFCURVE",
"387 -208 CURVE SMOOTH"
);
}
);
width = 719;
},
{
background = {
paths = (
{
closed = 1;
nodes = (
"510 141 LINE",
"569 165 LINE",
"286 710 LINE",
"148 710 LINE",
"23 0 LINE",
"173 0 LINE",
"273 569 LINE",
"214 545 LINE",
"497 0 LINE",
"635 0 LINE",
"760 710 LINE",
"610 710 LINE"
);
}
);
};
layerId = "014D4A40-7C7F-4023-B30E-1F55CE5EA091";
paths = (
{
closed = 1;
nodes = (
"514 -210 OFFCURVE",
"610 -139 OFFCURVE",
"638 18 CURVE SMOOTH",
"760 710 LINE",
"610 710 LINE",
"510 141 LINE",
"569 165 LINE",
"286 710 LINE",
"148 710 LINE",
"23 0 LINE",
"173 0 LINE",
"273 569 LINE",
"214 545 LINE",
"497 0 LINE",
"498 63 LINE",
"487 1 LINE SMOOTH",
"479 -43 OFFCURVE",
"445 -73 OFFCURVE",
"406 -73 CURVE SMOOTH",
"368 -73 OFFCURVE",
"344 -48 OFFCURVE",
"343 2 CURVE",
"206 -55 LINE",
"218 -156 OFFCURVE",
"291 -210 OFFCURVE",
"390 -210 CURVE SMOOTH"
);
}
);
width = 748;
},
{
background = {
paths = (
{
closed = 1;
nodes = (
"543 38 LINE",
"557 31 LINE",
"196 710 LINE",
"172 710 LINE",
"47 0 LINE",
"76 0 LINE",
"194 673 LINE",
"180 679 LINE",
"542 0 LINE",
"565 0 LINE",
"690 710 LINE",
"661 710 LINE"
);
}
);
};
layerId = "7F092816-09A2-4631-A7F8-AD4571964C60";
paths = (
{
closed = 1;
nodes = (
"478 -207 OFFCURVE",
"537 -154 OFFCURVE",
"559 -31 CURVE SMOOTH",
"690 710 LINE",
"661 710 LINE",
"543 38 LINE",
"557 31 LINE",
"196 710 LINE",
"172 710 LINE",
"47 0 LINE",
"76 0 LINE",
"194 673 LINE",
"180 679 LINE",
"542 0 LINE",
"540 18 LINE",
"530 -38 LINE SMOOTH",
"513 -132 OFFCURVE",
"463 -180 OFFCURVE",
"386 -180 CURVE SMOOTH",
"313 -180 OFFCURVE",
"269 -148 OFFCURVE",
"270 -72 CURVE",
"242 -82 LINE",
"239 -154 OFFCURVE",
"289 -207 OFFCURVE",
"383 -207 CURVE SMOOTH"
);
}
);
width = 698;
},
{
background = {
paths = (
{
closed = 1;
nodes = (
"500 177 LINE",
"581 217 LINE",
"318 710 LINE",
"140 710 LINE",
"15 0 LINE",
"207 0 LINE",
"300 533 LINE",
"219 494 LINE",
"482 0 LINE",
"660 0 LINE",
"785 710 LINE",
"593 710 LINE"
);
}
);
};
layerId = "A0850C2E-74F0-4B2E-AE90-CE9FC07F2CBD";
paths = (
{
closed = 1;
nodes = (
"539 -211 OFFCURVE",
"635 -141 OFFCURVE",
"667 41 CURVE SMOOTH",
"784 710 LINE",
"592 710 LINE",
"500 177 LINE",
"581 217 LINE",
"317 710 LINE",
"139 710 LINE",
"15 0 LINE",
"207 0 LINE",
"300 533 LINE",
"219 494 LINE",
"482 0 LINE",
"482 76 LINE",
"471 9 LINE SMOOTH",
"465 -23 OFFCURVE",
"442 -39 OFFCURVE",
"418 -39 CURVE SMOOTH",
"387 -39 OFFCURVE",
"371 -16 OFFCURVE",
"368 20 CURVE",
"194 -46 LINE",
"209 -157 OFFCURVE",
"296 -211 OFFCURVE",
"406 -211 CURVE SMOOTH"
);
}
);
width = 765;
}
);
leftKerningGroup = H;
rightKerningGroup = H;
unicode = 014A;
},
{
glyphname = O;
lastChange = "2019-06-02 21:20:01 +0000";
layers = (
{
anchors = (
{
name = bottom;
position = "{340, 0}";
},
{
name = center;
position = "{403, 355}";
},
{
name = ogonek;
position = "{417, 0}";
},
{
name = top;
position = "{465, 710}";
},
{
name = topleft;
position = "{94, 710}";
},
{
name = topright;
position = "{655, 710}";
}
);
background = {
paths = (
{
closed = 1;
nodes = (
"538 -8 OFFCURVE",
"693 138 OFFCURVE",
"732 358 CURVE SMOOTH",
"770 575 OFFCURVE",
"666 720 OFFCURVE",
"472 720 CURVE SMOOTH",
"276 720 OFFCURVE",
"113 569 OFFCURVE",
"75 353 CURVE SMOOTH",
"35 127 OFFCURVE",
"136 -8 OFFCURVE",
"344 -8 CURVE SMOOTH"
);
},
{
closed = 1;
nodes = (
"194 68 OFFCURVE",
"126 167 OFFCURVE",
"157 343 CURVE SMOOTH",
"190 524 OFFCURVE",
"314 644 OFFCURVE",
"469 644 CURVE SMOOTH",
"611 644 OFFCURVE",
"679 540 OFFCURVE",
"650 370 CURVE SMOOTH",
"617 184 OFFCURVE",
"501 68 OFFCURVE",
"348 68 CURVE SMOOTH"
);
}
);
};
guideLines = (
{
angle = 90;
position = "{711, 369}";
}
);
layerId = "A3B50665-EA37-4AC6-885C-1233CA61B6BD";
paths = (
{
closed = 1;
nodes = (
"577 -8 OFFCURVE",
"740 205 OFFCURVE",
"740 443 CURVE SMOOTH",
"740 612 OFFCURVE",
"639 720 OFFCURVE",
"472 720 CURVE SMOOTH",
"235 720 OFFCURVE",
"66 503 OFFCURVE",
"66 261 CURVE SMOOTH",
"66 91 OFFCURVE",
"166 -8 OFFCURVE",
"344 -8 CURVE SMOOTH"
);
},
{
closed = 1;
nodes = (
"218 68 OFFCURVE",
"150 138 OFFCURVE",
"150 265 CURVE SMOOTH",
"150 461 OFFCURVE",
"276 644 OFFCURVE",
"469 644 CURVE SMOOTH",
"589 644 OFFCURVE",
"656 569 OFFCURVE",
"656 443 CURVE SMOOTH",
"656 251 OFFCURVE",
"537 68 OFFCURVE",
"348 68 CURVE SMOOTH"
);
}
);
width = 770;
},
{
anchors = (
{
name = bottom;
position = "{345, 0}";
},
{
name = center;
position = "{408, 355}";
},
{
name = ogonek;
position = "{442, 0}";
},
{
name = top;
position = "{471, 710}";
},
{
name = topleft;
position = "{99, 710}";
},
{
name = topright;
position = "{633, 710}";
}
);
background = {
anchors = (
{
name = bottom;
position = "{1145, 0}";
},
{
name = center;
position = "{1208, 355}";
},
{
name = ogonek;
position = "{1242, 0}";
},
{
name = top;
position = "{1271, 710}";
},
{
name = topleft;
position = "{899, 710}";
},
{
name = topright;
position = "{1440, 710}";
}
);
paths = (
{
closed = 1;
nodes = (
"1349 -8 OFFCURVE",
"1522 139 OFFCURVE",
"1562 369 CURVE SMOOTH",
"1599 580 OFFCURVE",
"1489 720 OFFCURVE",
"1288 720 CURVE SMOOTH",
"1061 720 OFFCURVE",
"893 564 OFFCURVE",
"854 342 CURVE SMOOTH",
"815 120 OFFCURVE",
"924 -12 OFFCURVE",
"1147 -10 CURVE SMOOTH"
);
},
{
closed = 1;
nodes = (
"1046 129 OFFCURVE",
"988 207 OFFCURVE",
"1012 345 CURVE SMOOTH",
"1037 486 OFFCURVE",
"1140 582 OFFCURVE",
"1260 582 CURVE SMOOTH",
"1371 582 OFFCURVE",
"1427 497 OFFCURVE",
"1404 368 CURVE SMOOTH",
"1377 217 OFFCURVE",
"1281 129 OFFCURVE",
"1165 129 CURVE SMOOTH"
);
},
{
closed = 1;
nodes = (
"559 -8 OFFCURVE",
"722 139 OFFCURVE",
"760 359 CURVE SMOOTH",
"798 574 OFFCURVE",
"679 720 OFFCURVE",
"478 720 CURVE SMOOTH",
"251 720 OFFCURVE",
"93 564 OFFCURVE",
"56 352 CURVE SMOOTH",
"17 130 OFFCURVE",
"134 -12 OFFCURVE",
"357 -10 CURVE SMOOTH"
);
},
{
closed = 1;
nodes = (
"248 129 OFFCURVE",
"188 210 OFFCURVE",
"212 345 CURVE SMOOTH",
"239 496 OFFCURVE",
"336 582 OFFCURVE",
"456 582 CURVE SMOOTH",
"569 582 OFFCURVE",
"627 494 OFFCURVE",
"604 368 CURVE SMOOTH",
"575 207 OFFCURVE",
"485 129 OFFCURVE",
"369 129 CURVE SMOOTH"
);
}
);
};
guideLines = (
{
angle = 90;
position = "{742, 369}";
}
);
layerId = "014D4A40-7C7F-4023-B30E-1F55CE5EA091";
paths = (
{
closed = 1;
nodes = (
"584 -10 OFFCURVE",
"767 187 OFFCURVE",
"767 436 CURVE SMOOTH",
"767 608 OFFCURVE",
"654 720 OFFCURVE",
"478 720 CURVE SMOOTH",
"234 720 OFFCURVE",
"48 526 OFFCURVE",
"48 271 CURVE SMOOTH",
"48 96 OFFCURVE",
"170 -10 OFFCURVE",
"352 -10 CURVE SMOOTH"
);
},
{
closed = 1;
nodes = (
"266 129 OFFCURVE",
"207 188 OFFCURVE",
"207 289 CURVE SMOOTH",
"207 455 OFFCURVE",
"315 582 OFFCURVE",
"456 582 CURVE SMOOTH",
"551 582 OFFCURVE",
"608 520 OFFCURVE",
"608 420 CURVE SMOOTH",
"608 255 OFFCURVE",
"505 129 OFFCURVE",
"369 129 CURVE SMOOTH"
);
}
);
width = 780;
},
{
anchors = (
{
name = bottom;
position = "{338, 0}";
},
{
name = center;
position = "{402, 355}";
},
{
name = ogonek;
position = "{401, 0}";
},
{
name = top;
position = "{463, 710}";
},
{
name = topleft;
position = "{93, 710}";
},
{
name = topright;
position = "{673, 710}";
}
);
background = {
paths = (
{
closed = 1;
nodes = (
"526 -7 OFFCURVE",
"674 136 OFFCURVE",
"712 357 CURVE SMOOTH",
"750 575 OFFCURVE",
"655 720 OFFCURVE",
"475 720 CURVE SMOOTH",
"285 720 OFFCURVE",
"129 572 OFFCURVE",
"90 354 CURVE SMOOTH",
"50 132 OFFCURVE",
"145 -7 OFFCURVE",
"337 -7 CURVE SMOOTH"
);
},
{
closed = 1;
nodes = (
"165 24 OFFCURVE",
"85 143 OFFCURVE",
"122 350 CURVE SMOOTH",
"157 551 OFFCURVE",
"299 689 OFFCURVE",
"471 689 CURVE SMOOTH",
"636 689 OFFCURVE",
"716 564 OFFCURVE",
"681 363 CURVE SMOOTH",
"645 156 OFFCURVE",
"513 24 OFFCURVE",
"342 24 CURVE SMOOTH"
);
}
);
};
layerId = "7F092816-09A2-4631-A7F8-AD4571964C60";
paths = (
{
closed = 1;
nodes = (
"569 -7 OFFCURVE",
"720 208 OFFCURVE",
"720 448 CURVE SMOOTH",
"720 614 OFFCURVE",
"629 720 OFFCURVE",
"475 720 CURVE SMOOTH",
"241 720 OFFCURVE",
"81 500 OFFCURVE",
"81 259 CURVE SMOOTH",
"81 93 OFFCURVE",
"174 -7 OFFCURVE",
"337 -7 CURVE SMOOTH"
);
},
{
closed = 1;
nodes = (
"193 24 OFFCURVE",
"113 108 OFFCURVE",
"113 257 CURVE SMOOTH",
"113 478 OFFCURVE",
"254 689 OFFCURVE",
"471 689 CURVE SMOOTH",
"610 689 OFFCURVE",
"688 600 OFFCURVE",
"688 451 CURVE SMOOTH",
"688 231 OFFCURVE",
"556 24 OFFCURVE",
"342 24 CURVE SMOOTH"
);
}
);
width = 763;
},
{
anchors = (
{
name = bottom;
position = "{348, 0}";
},
{
name = center;
position = "{411, 355}";
},
{
name = ogonek;
position = "{457, 0}";
},
{
name = top;
position = "{474, 710}";
},
{
name = topleft;
position = "{101, 710}";
},
{
name = topright;
position = "{619, 710}";
}
);
background = {
paths = (
{
closed = 1;
nodes = (
"569 -8 OFFCURVE",
"737 135 OFFCURVE",
"776 356 CURVE SMOOTH",
"813 570 OFFCURVE",
"697 720 OFFCURVE",
"482 720 CURVE SMOOTH",
"259 720 OFFCURVE",
"85 579 OFFCURVE",
"46 355 CURVE SMOOTH",
"6 130 OFFCURVE",
"128 -12 OFFCURVE",
"360 -10 CURVE SMOOTH"
);
},
{
closed = 1;
nodes = (
"274 165 OFFCURVE",
"226 240 OFFCURVE",
"245 347 CURVE SMOOTH",
"268 473 OFFCURVE",
"346 545 OFFCURVE",
"449 545 CURVE SMOOTH",
"546 545 OFFCURVE",
"594 469 OFFCURVE",
"576 365 CURVE SMOOTH",
"553 233 OFFCURVE",
"478 165 OFFCURVE",
"378 165 CURVE SMOOTH"
);
}
);
};
layerId = "A0850C2E-74F0-4B2E-AE90-CE9FC07F2CBD";
paths = (
{
closed = 1;
nodes = (
"596 -10 OFFCURVE",
"782 182 OFFCURVE",
"782 431 CURVE SMOOTH",
"782 608 OFFCURVE",
"665 720 OFFCURVE",
"482 720 CURVE SMOOTH",
"227 720 OFFCURVE",
"38 530 OFFCURVE",
"38 275 CURVE SMOOTH",
"38 97 OFFCURVE",
"158 -10 OFFCURVE",
"355 -10 CURVE SMOOTH"
);
},
{
closed = 1;
nodes = (
"292 165 OFFCURVE",
"241 217 OFFCURVE",
"241 303 CURVE SMOOTH",
"241 440 OFFCURVE",
"331 545 OFFCURVE",
"449 545 CURVE SMOOTH",
"530 545 OFFCURVE",
"579 493 OFFCURVE",
"579 407 CURVE SMOOTH",
"579 269 OFFCURVE",
"493 165 OFFCURVE",
"378 165 CURVE SMOOTH"
);
}
);
width = 785.90909;
}
);
leftKerningGroup = O;
rightKerningGroup = O;
unicode = 004F;
},
{
glyphname = Oogonek;
lastChange = "2019-05-31 12:22:43 +0000";
layers = (
{
anchors = (
{
name = center;
position = "{403, 355}";
},
{
name = top;
position = "{465, 710}";
},
{
name = topleft;
position = "{94, 710}";
},
{
name = topright;
position = "{655, 710}";
}
);
background = {
paths = (
{
closed = 1;
nodes = (
"577 -8 OFFCURVE",
"740 205 OFFCURVE",
"740 443 CURVE SMOOTH",
"740 612 OFFCURVE",
"639 720 OFFCURVE",
"472 720 CURVE SMOOTH",
"235 720 OFFCURVE",
"66 503 OFFCURVE",
"66 261 CURVE SMOOTH",
"66 91 OFFCURVE",
"166 -8 OFFCURVE",
"344 -8 CURVE SMOOTH"
);
},
{
closed = 1;
nodes = (
"218 68 OFFCURVE",
"150 138 OFFCURVE",
"150 265 CURVE SMOOTH",
"150 461 OFFCURVE",
"276 644 OFFCURVE",
"469 644 CURVE SMOOTH",
"589 644 OFFCURVE",
"656 569 OFFCURVE",
"656 443 CURVE SMOOTH",
"656 251 OFFCURVE",
"537 68 OFFCURVE",
"348 68 CURVE SMOOTH"
);
},
{
closed = 1;
nodes = (
"359 -223 OFFCURVE",
"402 -203 OFFCURVE",
"427 -173 CURVE",
"404 -132 LINE",
"379 -158 OFFCURVE",
"357 -170 OFFCURVE",
"335 -170 CURVE SMOOTH",
"306 -170 OFFCURVE",
"290 -155 OFFCURVE",
"290 -131 CURVE SMOOTH",
"290 -82 OFFCURVE",
"337 -34 OFFCURVE",
"417 0 CURVE",
"373 22 LINE",
"284 -10 OFFCURVE",
"221 -76 OFFCURVE",
"221 -140 CURVE SMOOTH",
"221 -189 OFFCURVE",
"257 -223 OFFCURVE",
"320 -223 CURVE SMOOTH"
);
}
);
};
layerId = "A3B50665-EA37-4AC6-885C-1233CA61B6BD";
paths = (
{
closed = 1;
nodes = (
"359 -223 OFFCURVE",
"402 -203 OFFCURVE",
"427 -173 CURVE",
"404 -132 LINE",
"379 -158 OFFCURVE",
"357 -170 OFFCURVE",
"335 -170 CURVE SMOOTH",
"306 -170 OFFCURVE",
"290 -155 OFFCURVE",
"290 -131 CURVE SMOOTH",
"290 -83 OFFCURVE",
"343 -21 OFFCURVE",
"440 5 CURVE SMOOTH",
"620 54 OFFCURVE",
"740 239 OFFCURVE",
"740 443 CURVE SMOOTH",
"740 612 OFFCURVE",
"639 720 OFFCURVE",
"472 720 CURVE SMOOTH",
"235 720 OFFCURVE",
"66 503 OFFCURVE",
"66 261 CURVE SMOOTH",
"66 89 OFFCURVE",
"167 -10 OFFCURVE",
"349 -8 CURVE",
"345 10 LINE",
"271 -24 OFFCURVE",
"221 -83 OFFCURVE",
"221 -140 CURVE SMOOTH",
"221 -189 OFFCURVE",
"257 -223 OFFCURVE",
"320 -223 CURVE SMOOTH"
);
},
{
closed = 1;
nodes = (
"218 68 OFFCURVE",
"150 138 OFFCURVE",
"150 265 CURVE SMOOTH",
"150 461 OFFCURVE",
"276 644 OFFCURVE",
"469 644 CURVE SMOOTH",
"589 644 OFFCURVE",
"656 569 OFFCURVE",
"656 443 CURVE SMOOTH",
"656 251 OFFCURVE",
"537 68 OFFCURVE",
"348 68 CURVE SMOOTH"
);
}
);
width = 770;
},
{
anchors = (
{
name = center;
position = "{408, 355}";
},
{
name = top;
position = "{471, 710}";
},
{
name = topleft;
position = "{99, 710}";
},
{
name = topright;
position = "{633, 710}";
}
);
background = {
paths = (
{
closed = 1;
nodes = (
"584 -10 OFFCURVE",
"767 187 OFFCURVE",
"767 436 CURVE SMOOTH",
"767 608 OFFCURVE",
"654 720 OFFCURVE",
"478 720 CURVE SMOOTH",
"234 720 OFFCURVE",
"48 526 OFFCURVE",
"48 271 CURVE SMOOTH",
"48 96 OFFCURVE",
"170 -10 OFFCURVE",
"352 -10 CURVE SMOOTH"
);
},
{
closed = 1;
nodes = (
"266 129 OFFCURVE",
"207 188 OFFCURVE",
"207 289 CURVE SMOOTH",
"207 455 OFFCURVE",
"315 582 OFFCURVE",
"456 582 CURVE SMOOTH",
"551 582 OFFCURVE",
"608 520 OFFCURVE",
"608 420 CURVE SMOOTH",
"608 255 OFFCURVE",
"505 129 OFFCURVE",
"369 129 CURVE SMOOTH"
);
},
{
closed = 1;
nodes = (
"389 -223 OFFCURVE",
"439 -204 OFFCURVE",
"467 -173 CURVE",
"431 -103 LINE",
"412 -122 OFFCURVE",
"388 -134 OFFCURVE",
"370 -134 CURVE SMOOTH",
"345 -134 OFFCURVE",
"332 -123 OFFCURVE",
"332 -100 CURVE SMOOTH",
"332 -59 OFFCURVE",
"385 -24 OFFCURVE",
"442 0 CURVE",
"374 34 LINE",
"288 9 OFFCURVE",
"206 -48 OFFCURVE",
"206 -124 CURVE SMOOTH",
"206 -186 OFFCURVE",
"258 -223 OFFCURVE",
"338 -223 CURVE SMOOTH"
);
}
);
};
layerId = "014D4A40-7C7F-4023-B30E-1F55CE5EA091";
paths = (
{
closed = 1;
nodes = (
"389 -223 OFFCURVE",
"439 -204 OFFCURVE",
"467 -173 CURVE",
"431 -103 LINE",
"412 -122 OFFCURVE",
"388 -134 OFFCURVE",
"370 -134 CURVE SMOOTH",
"345 -134 OFFCURVE",
"332 -123 OFFCURVE",
"332 -100 CURVE SMOOTH",
"332 -59 OFFCURVE",
"386 -17 OFFCURVE",
"462 5 CURVE SMOOTH",
"639 56 OFFCURVE",
"767 228 OFFCURVE",
"767 436 CURVE SMOOTH",
"767 608 OFFCURVE",
"654 720 OFFCURVE",
"478 720 CURVE SMOOTH",
"234 720 OFFCURVE",
"48 526 OFFCURVE",
"48 271 CURVE SMOOTH",
"48 107 OFFCURVE",
"155 3 OFFCURVE",
"319 -9 CURVE",
"316 12 LINE",
"254 -19 OFFCURVE",
"206 -65 OFFCURVE",
"206 -124 CURVE SMOOTH",
"206 -186 OFFCURVE",
"258 -223 OFFCURVE",
"338 -223 CURVE SMOOTH"
);
},
{
closed = 1;
nodes = (
"266 129 OFFCURVE",
"207 188 OFFCURVE",
"207 289 CURVE SMOOTH",
"207 455 OFFCURVE",
"315 582 OFFCURVE",
"456 582 CURVE SMOOTH",
"551 582 OFFCURVE",
"608 520 OFFCURVE",
"608 420 CURVE SMOOTH",
"608 255 OFFCURVE",
"505 129 OFFCURVE",
"369 129 CURVE SMOOTH"
);
}
);
width = 780;
},
{
anchors = (
{
name = center;
position = "{402, 355}";
},
{
name = top;
position = "{463, 710}";
},
{
name = topleft;
position = "{93, 710}";
},
{
name = topright;
position = "{673, 710}";
}
);
background = {
paths = (
{
closed = 1;
nodes = (
"569 -7 OFFCURVE",
"720 208 OFFCURVE",
"720 448 CURVE SMOOTH",
"720 614 OFFCURVE",
"629 720 OFFCURVE",
"475 720 CURVE SMOOTH",
"241 720 OFFCURVE",
"81 500 OFFCURVE",
"81 259 CURVE SMOOTH",
"81 93 OFFCURVE",
"174 -7 OFFCURVE",
"337 -7 CURVE SMOOTH"
);
},
{
closed = 1;
nodes = (
"193 24 OFFCURVE",
"113 108 OFFCURVE",
"113 257 CURVE SMOOTH",
"113 478 OFFCURVE",
"254 689 OFFCURVE",
"471 689 CURVE SMOOTH",
"610 689 OFFCURVE",
"688 600 OFFCURVE",
"688 451 CURVE SMOOTH",
"688 231 OFFCURVE",
"556 24 OFFCURVE",
"342 24 CURVE SMOOTH"
);
},
{
closed = 1;
nodes = (
"344 -223 OFFCURVE",
"378 -203 OFFCURVE",
"400 -173 CURVE",
"386 -155 LINE",
"362 -184 OFFCURVE",
"336 -197 OFFCURVE",
"311 -197 CURVE SMOOTH",
"279 -197 OFFCURVE",
"261 -178 OFFCURVE",
"261 -149 CURVE SMOOTH",
"261 -94 OFFCURVE",
"319 -35 OFFCURVE",
"401 0 CURVE",
"376 13 LINE",
"306 -16 OFFCURVE",
"232 -83 OFFCURVE",
"232 -153 CURVE SMOOTH",
"232 -195 OFFCURVE",
"263 -223 OFFCURVE",
"310 -223 CURVE SMOOTH"
);
}
);
};
layerId = "7F092816-09A2-4631-A7F8-AD4571964C60";
paths = (
{
closed = 1;
nodes = (
"344 -223 OFFCURVE",
"378 -203 OFFCURVE",
"400 -173 CURVE",
"386 -155 LINE",
"362 -184 OFFCURVE",
"336 -197 OFFCURVE",
"311 -197 CURVE SMOOTH",
"279 -197 OFFCURVE",
"261 -178 OFFCURVE",
"261 -149 CURVE SMOOTH",
"261 -94 OFFCURVE",
"322 -23 OFFCURVE",
"428 5 CURVE SMOOTH",
"608 52 OFFCURVE",
"720 241 OFFCURVE",
"720 448 CURVE SMOOTH",
"720 614 OFFCURVE",
"629 720 OFFCURVE",
"475 720 CURVE SMOOTH",
"241 720 OFFCURVE",
"81 500 OFFCURVE",
"81 259 CURVE SMOOTH",
"81 81 OFFCURVE",
"188 -21 OFFCURVE",
"373 -5 CURVE",
"364 6 LINE",
"291 -26 OFFCURVE",
"232 -87 OFFCURVE",
"232 -153 CURVE SMOOTH",
"232 -195 OFFCURVE",
"263 -223 OFFCURVE",
"310 -223 CURVE SMOOTH"
);
},
{
closed = 1;
nodes = (
"193 24 OFFCURVE",
"113 108 OFFCURVE",
"113 257 CURVE SMOOTH",
"113 478 OFFCURVE",
"254 689 OFFCURVE",
"471 689 CURVE SMOOTH",
"610 689 OFFCURVE",
"688 600 OFFCURVE",
"688 451 CURVE SMOOTH",
"688 231 OFFCURVE",
"556 24 OFFCURVE",
"342 24 CURVE SMOOTH"
);
}
);
width = 763;
},
{
anchors = (
{
name = center;
position = "{411, 355}";
},
{
name = top;
position = "{474, 710}";
},
{
name = topleft;
position = "{101, 710}";
},
{
name = topright;
position = "{619, 710}";
}
);
background = {
paths = (
{
closed = 1;
nodes = (
"596 -10 OFFCURVE",
"782 182 OFFCURVE",
"782 431 CURVE SMOOTH",
"782 608 OFFCURVE",
"665 720 OFFCURVE",
"482 720 CURVE SMOOTH",
"227 720 OFFCURVE",
"38 530 OFFCURVE",
"38 275 CURVE SMOOTH",
"38 97 OFFCURVE",
"158 -10 OFFCURVE",
"355 -10 CURVE SMOOTH"
);
},
{
closed = 1;
nodes = (
"292 165 OFFCURVE",
"241 217 OFFCURVE",
"241 303 CURVE SMOOTH",
"241 440 OFFCURVE",
"331 545 OFFCURVE",
"449 545 CURVE SMOOTH",
"530 545 OFFCURVE",
"579 493 OFFCURVE",
"579 407 CURVE SMOOTH",
"579 269 OFFCURVE",
"493 165 OFFCURVE",
"378 165 CURVE SMOOTH"
);
},
{
closed = 1;
nodes = (
"408 -223 OFFCURVE",
"461 -205 OFFCURVE",
"492 -173 CURVE",
"447 -86 LINE",
"432 -101 OFFCURVE",
"407 -113 OFFCURVE",
"391 -113 CURVE SMOOTH",
"370 -113 OFFCURVE",
"358 -102 OFFCURVE",
"358 -85 CURVE SMOOTH",
"358 -62 OFFCURVE",
"376 -30 OFFCURVE",
"457 0 CURVE",
"371 41 LINE",
"289 18 OFFCURVE",
"199 -32 OFFCURVE",
"199 -116 CURVE SMOOTH",
"199 -181 OFFCURVE",
"261 -223 OFFCURVE",
"350 -223 CURVE SMOOTH"
);
}
);
};
layerId = "A0850C2E-74F0-4B2E-AE90-CE9FC07F2CBD";
paths = (
{
closed = 1;
nodes = (
"408 -223 OFFCURVE",
"461 -205 OFFCURVE",
"492 -173 CURVE",
"447 -86 LINE",
"432 -101 OFFCURVE",
"407 -113 OFFCURVE",
"391 -113 CURVE SMOOTH",
"370 -113 OFFCURVE",
"358 -102 OFFCURVE",
"358 -85 CURVE SMOOTH",
"358 -60 OFFCURVE",
"386 -19 OFFCURVE",
"473 6 CURVE SMOOTH",
"654 57 OFFCURVE",
"782 224 OFFCURVE",
"782 431 CURVE SMOOTH",
"782 608 OFFCURVE",
"665 720 OFFCURVE",
"482 720 CURVE SMOOTH",
"227 720 OFFCURVE",
"38 530 OFFCURVE",
"38 275 CURVE SMOOTH",
"38 113 OFFCURVE",
"137 9 OFFCURVE",
"305 -8 CURVE",
"299 13 LINE",
"243 -15 OFFCURVE",
"199 -57 OFFCURVE",
"199 -116 CURVE SMOOTH",
"199 -181 OFFCURVE",
"261 -223 OFFCURVE",
"350 -223 CURVE SMOOTH"
);
},
{
closed = 1;
nodes = (
"292 165 OFFCURVE",
"241 217 OFFCURVE",
"241 303 CURVE SMOOTH",
"241 440 OFFCURVE",
"331 545 OFFCURVE",
"449 545 CURVE SMOOTH",
"530 545 OFFCURVE",
"579 493 OFFCURVE",
"579 407 CURVE SMOOTH",
"579 269 OFFCURVE",
"493 165 OFFCURVE",
"378 165 CURVE SMOOTH"
);
}
);
width = 785.90909;
}
);
leftKerningGroup = O;
rightKerningGroup = O;
unicode = 01EA;
},
{
glyphname = OE;
lastChange = "2019-05-31 12:22:43 +0000";
layers = (
{
anchors = (
{
name = bottom;
position = "{537, 0}";
},
{
name = top;
position = "{663, 710}";
}
);
background = {
anchors = (
{
name = bottom;
position = "{1437, 0}";
},
{
name = top;
position = "{1563, 710}";
}
);
paths = (
{
closed = 1;
nodes = (
"1567 325 LINE",
"1882 325 LINE",
"1894 396 LINE",
"1579 396 LINE",
"1622 639 LINE",
"1947 639 LINE",
"1960 710 LINE",
"1614 710 LINE SMOOTH",
"1578 710 OFFCURVE",
"1511 715 OFFCURVE",
"1465 715 CURVE SMOOTH",
"1208 715 OFFCURVE",
"1045 566 OFFCURVE",
"1005 340 CURVE SMOOTH",
"966 117 OFFCURVE",
"1074 -4 OFFCURVE",
"1318 -4 CURVE SMOOTH",
"1367 -4 OFFCURVE",
"1417 0 OFFCURVE",
"1476 0 CURVE SMOOTH",
"1841 0 LINE",
"1861 71 LINE",
"1522 71 LINE"
);
},
{
closed = 1;
nodes = (
"1406 68 OFFCURVE",
"1371 67 OFFCURVE",
"1337 67 CURVE SMOOTH",
"1138 67 OFFCURVE",
"1058 160 OFFCURVE",
"1090 344 CURVE SMOOTH",
"1124 541 OFFCURVE",
"1261 644 OFFCURVE",
"1453 644 CURVE SMOOTH",
"1492 644 OFFCURVE",
"1516 641 OFFCURVE",
"1541 639 CURVE",
"1441 71 LINE"
);
},
{
closed = 1;
nodes = (
"503 710 LINE SMOOTH",
"245 710 OFFCURVE",
"69 541 OFFCURVE",
"69 279 CURVE SMOOTH",
"69 94 OFFCURVE",
"197 0 OFFCURVE",
"426 0 CURVE SMOOTH",
"610 0 LINE",
"735 710 LINE"
);
},
{
closed = 1;
nodes = (
"540 73 LINE",
"430 73 LINE SMOOTH",
"242 73 OFFCURVE",
"153 142 OFFCURVE",
"153 282 CURVE SMOOTH",
"153 498 OFFCURVE",
"284 637 OFFCURVE",
"499 637 CURVE SMOOTH",
"639 637 LINE"
);
}
);
};
layerId = "A3B50665-EA37-4AC6-885C-1233CA61B6BD";
paths = (
{
closed = 1;
nodes = (
"445 -4 OFFCURVE",
"495 0 OFFCURVE",
"544 0 CURVE SMOOTH",
"909 0 LINE",
"929 71 LINE",
"590 71 LINE",
"690 639 LINE",
"1015 639 LINE",
"1028 710 LINE",
"682 710 LINE SMOOTH",
"646 710 OFFCURVE",
"579 715 OFFCURVE",
"523 715 CURVE SMOOTH",
"235 715 OFFCURVE",
"69 541 OFFCURVE",
"69 279 CURVE SMOOTH",
"69 94 OFFCURVE",
"197 -4 OFFCURVE",
"396 -4 CURVE SMOOTH"
);
},
{
closed = 1;
nodes = (
"242 69 OFFCURVE",
"153 142 OFFCURVE",
"153 282 CURVE SMOOTH",
"153 498 OFFCURVE",
"284 644 OFFCURVE",
"521 644 CURVE SMOOTH",
"560 644 OFFCURVE",
"584 641 OFFCURVE",
"609 639 CURVE",
"509 71 LINE",
"474 68 OFFCURVE",
"439 67 OFFCURVE",
"405 67 CURVE SMOOTH"
);
},
{
closed = 1;
nodes = (
"950 325 LINE",
"962 396 LINE",
"631 396 LINE",
"619 325 LINE"
);
}
);
width = 993;
},
{
anchors = (
{
name = bottom;
position = "{543, 0}";
},
{
name = top;
position = "{669, 710}";
}
);
background = {
paths = (
{
closed = 1;
nodes = (
"1772 291 LINE",
"2068 291 LINE",
"2091 425 LINE",
"1795 425 LINE",
"1822 576 LINE",
"2138 576 LINE",
"2162 710 LINE",
"1803 710 LINE SMOOTH",
"1738 710 OFFCURVE",
"1689 716 OFFCURVE",
"1627 716 CURVE SMOOTH",
"1379 716 OFFCURVE",
"1194 572 OFFCURVE",
"1153 336 CURVE SMOOTH",
"1115 119 OFFCURVE",
"1230 -6 OFFCURVE",
"1498 -6 CURVE SMOOTH",
"1559 -6 OFFCURVE",
"1608 0 OFFCURVE",
"1667 0 CURVE SMOOTH",
"2036 0 LINE",
"2070 134 LINE",
"1744 134 LINE"
);
},
{
closed = 1;
nodes = (
"1562 130 OFFCURVE",
"1536 128 OFFCURVE",
"1509 128 CURVE SMOOTH",
"1348 128 OFFCURVE",
"1288 206 OFFCURVE",
"1312 341 CURVE SMOOTH",
"1339 495 OFFCURVE",
"1443 582 OFFCURVE",
"1599 582 CURVE SMOOTH",
"1625 582 OFFCURVE",
"1647 580 OFFCURVE",
"1668 576 CURVE",
"1590 134 LINE"
);
},
{
closed = 1;
nodes = (
"490 710 LINE SMOOTH",
"233 710 OFFCURVE",
"51 538 OFFCURVE",
"51 291 CURVE SMOOTH",
"51 105 OFFCURVE",
"182 0 OFFCURVE",
"424 0 CURVE SMOOTH",
"643 0 LINE",
"768 710 LINE"
);
},
{
closed = 1;
nodes = (
"511 138 LINE",
"426 138 LINE SMOOTH",
"278 138 OFFCURVE",
"209 196 OFFCURVE",
"209 308 CURVE SMOOTH",
"209 470 OFFCURVE",
"304 572 OFFCURVE",
"475 572 CURVE SMOOTH",
"587 572 LINE"
);
}
);
};
layerId = "014D4A40-7C7F-4023-B30E-1F55CE5EA091";
paths = (
{
closed = 1;
nodes = (
"459 -6 OFFCURVE",
"508 0 OFFCURVE",
"567 0 CURVE SMOOTH",
"936 0 LINE",
"970 134 LINE",
"644 134 LINE",
"722 576 LINE",
"1038 576 LINE",
"1062 710 LINE",
"703 710 LINE SMOOTH",
"638 710 OFFCURVE",
"589 716 OFFCURVE",
"527 716 CURVE SMOOTH",
"174 716 OFFCURVE",
"51 490 OFFCURVE",
"51 291 CURVE SMOOTH",
"51 105 OFFCURVE",
"186 -6 OFFCURVE",
"398 -6 CURVE SMOOTH"
);
},
{
closed = 1;
nodes = (
"278 128 OFFCURVE",
"209 196 OFFCURVE",
"209 308 CURVE SMOOTH",
"209 470 OFFCURVE",
"303 582 OFFCURVE",
"489 582 CURVE SMOOTH",
"525 582 OFFCURVE",
"547 580 OFFCURVE",
"568 576 CURVE",
"490 134 LINE",
"462 130 OFFCURVE",
"436 128 OFFCURVE",
"409 128 CURVE SMOOTH"
);
},
{
closed = 1;
nodes = (
"967 291 LINE",
"991 425 LINE",
"679 425 LINE",
"656 291 LINE"
);
}
);
width = 1009;
},
{
anchors = (
{
name = bottom;
position = "{533, 0}";
},
{
name = top;
position = "{658, 710}";
}
);
background = {
anchors = (
{
name = bottom;
position = "{1333, 0}";
},
{
name = top;
position = "{1458, 710}";
}
);
paths = (
{
closed = 1;
nodes = (
"1410 349 LINE",
"1737 349 LINE",
"1741 375 LINE",
"1414 375 LINE",
"1469 684 LINE",
"1799 684 LINE",
"1803 710 LINE",
"1466 710 LINE SMOOTH",
"1441 710 OFFCURVE",
"1383 715 OFFCURVE",
"1338 715 CURVE SMOOTH",
"1075 715 OFFCURVE",
"927 562 OFFCURVE",
"889 343 CURVE SMOOTH",
"850 116 OFFCURVE",
"957 -3 OFFCURVE",
"1187 -3 CURVE SMOOTH",
"1234 -3 OFFCURVE",
"1279 0 OFFCURVE",
"1328 0 CURVE SMOOTH",
"1690 0 LINE",
"1700 26 LINE",
"1353 26 LINE"
);
},
{
closed = 1;
nodes = (
"1284 26 OFFCURVE",
"1239 24 OFFCURVE",
"1200 24 CURVE SMOOTH",
"974 24 OFFCURVE",
"883 127 OFFCURVE",
"921 346 CURVE SMOOTH",
"961 574 OFFCURVE",
"1119 688 OFFCURVE",
"1337 688 CURVE SMOOTH",
"1385 688 OFFCURVE",
"1412 685 OFFCURVE",
"1439 684 CURVE",
"1323 27 LINE"
);
},
{
closed = 1;
nodes = (
"525 710 LINE SMOOTH",
"253 710 OFFCURVE",
"81 538 OFFCURVE",
"81 271 CURVE SMOOTH",
"81 88 OFFCURVE",
"201 0 OFFCURVE",
"438 0 CURVE SMOOTH",
"586 0 LINE",
"711 710 LINE"
);
},
{
closed = 1;
nodes = (
"559 27 LINE",
"434 27 LINE SMOOTH",
"216 27 OFFCURVE",
"112 107 OFFCURVE",
"112 269 CURVE SMOOTH",
"112 521 OFFCURVE",
"266 683 OFFCURVE",
"527 683 CURVE SMOOTH",
"675 683 LINE"
);
}
);
};
layerId = "7F092816-09A2-4631-A7F8-AD4571964C60";
paths = (
{
closed = 1;
nodes = (
"434 -3 OFFCURVE",
"479 0 OFFCURVE",
"538 0 CURVE SMOOTH",
"890 0 LINE",
"900 26 LINE",
"553 26 LINE",
"669 684 LINE",
"999 684 LINE",
"1004 710 LINE",
"676 710 LINE SMOOTH",
"641 710 OFFCURVE",
"583 715 OFFCURVE",
"528 715 CURVE SMOOTH",
"223 715 OFFCURVE",
"81 510 OFFCURVE",
"81 271 CURVE SMOOTH",
"81 88 OFFCURVE",
"201 -3 OFFCURVE",
"399 -3 CURVE SMOOTH"
);
},
{
closed = 1;
nodes = (
"216 24 OFFCURVE",
"112 107 OFFCURVE",
"112 269 CURVE SMOOTH",
"112 521 OFFCURVE",
"266 688 OFFCURVE",
"530 688 CURVE SMOOTH",
"585 688 OFFCURVE",
"612 685 OFFCURVE",
"639 684 CURVE",
"523 27 LINE",
"484 26 OFFCURVE",
"439 24 OFFCURVE",
"400 24 CURVE SMOOTH"
);
},
{
closed = 1;
nodes = (
"937 349 LINE",
"942 375 LINE",
"608 375 LINE",
"603 349 LINE"
);
}
);
width = 981;
},
{
anchors = (
{
name = bottom;
position = "{547, 0}";
},
{
name = top;
position = "{673, 710}";
}
);
background = {
anchors = (
{
name = bottom;
position = "{1447, 0}";
},
{
name = top;
position = "{1573, 710}";
}
);
paths = (
{
closed = 1;
nodes = (
"1594 271 LINE",
"1879 271 LINE",
"1909 442 LINE",
"1624 442 LINE",
"1641 539 LINE",
"1952 539 LINE",
"1983 710 LINE",
"1616 710 LINE SMOOTH",
"1564 710 OFFCURVE",
"1495 717 OFFCURVE",
"1439 717 CURVE SMOOTH",
"1177 717 OFFCURVE",
"984 575 OFFCURVE",
"941 334 CURVE SMOOTH",
"903 120 OFFCURVE",
"1024 -7 OFFCURVE",
"1306 -7 CURVE SMOOTH",
"1375 -7 OFFCURVE",
"1422 0 OFFCURVE",
"1481 0 CURVE SMOOTH",
"1853 0 LINE",
"1895 171 LINE",
"1577 171 LINE"
);
},
{
closed = 1;
nodes = (
"1356 167 OFFCURVE",
"1334 164 OFFCURVE",
"1312 164 CURVE SMOOTH",
"1173 164 OFFCURVE",
"1125 233 OFFCURVE",
"1144 339 CURVE SMOOTH",
"1167 468 OFFCURVE",
"1253 545 OFFCURVE",
"1383 545 CURVE SMOOTH",
"1405 545 OFFCURVE",
"1424 544 OFFCURVE",
"1444 539 CURVE",
"1380 171 LINE"
);
},
{
closed = 1;
nodes = (
"475 710 LINE SMOOTH",
"226 710 OFFCURVE",
"39 540 OFFCURVE",
"39 299 CURVE SMOOTH",
"39 117 OFFCURVE",
"169 0 OFFCURVE",
"420 0 CURVE SMOOTH",
"661 0 LINE",
"786 710 LINE"
);
},
{
closed = 1;
nodes = (
"492 176 LINE",
"426 176 LINE SMOOTH",
"299 176 OFFCURVE",
"241 225 OFFCURVE",
"241 319 CURVE SMOOTH",
"241 456 OFFCURVE",
"321 534 OFFCURVE",
"464 534 CURVE SMOOTH",
"555 534 LINE"
);
}
);
};
layerId = "A0850C2E-74F0-4B2E-AE90-CE9FC07F2CBD";
paths = (
{
closed = 1;
nodes = (
"475 -7 OFFCURVE",
"522 0 OFFCURVE",
"581 0 CURVE SMOOTH",
"953 0 LINE",
"995 171 LINE",
"677 171 LINE",
"741 539 LINE",
"1053 539 LINE",
"1083 710 LINE",
"716 710 LINE SMOOTH",
"664 710 OFFCURVE",
"595 717 OFFCURVE",
"529 717 CURVE SMOOTH",
"146 717 OFFCURVE",
"39 477 OFFCURVE",
"39 299 CURVE SMOOTH",
"39 117 OFFCURVE",
"178 -7 OFFCURVE",
"406 -7 CURVE SMOOTH"
);
},
{
closed = 1;
nodes = (
"303 164 OFFCURVE",
"241 225 OFFCURVE",
"241 319 CURVE SMOOTH",
"241 456 OFFCURVE",
"330 545 OFFCURVE",
"476 545 CURVE SMOOTH",
"498 545 OFFCURVE",
"517 544 OFFCURVE",
"544 539 CURVE",
"480 171 LINE",
"456 167 OFFCURVE",
"434 164 OFFCURVE",
"412 164 CURVE SMOOTH"
);
},
{
closed = 1;
nodes = (
"979 271 LINE",
"1009 442 LINE",
"708 442 LINE",
"678 271 LINE"
);
}
);
width = 1018;
}
);
leftKerningGroup = O;
rightKerningGroup = E;
unicode = 0152;
},
{
glyphname = P;
lastChange = "2019-05-31 12:22:43 +0000";
layers = (
{
anchors = (
{
name = bottom;
position = "{258, 0}";
},
{
name = top;
position = "{385, 710}";
}
);
layerId = "A3B50665-EA37-4AC6-885C-1233CA61B6BD";
paths = (
{
closed = 1;
nodes = (
"231 642 LINE",
"375 642 LINE SMOOTH",
"483 642 OFFCURVE",
"542 607 OFFCURVE",
"542 531 CURVE SMOOTH",
"542 401 OFFCURVE",
"452 354 OFFCURVE",
"310 354 CURVE SMOOTH",
"165 354 LINE",
"153 285 LINE",
"303 285 LINE SMOOTH",
"493 285 OFFCURVE",
"623 366 OFFCURVE",
"623 536 CURVE SMOOTH",
"623 652 OFFCURVE",
"533 710 OFFCURVE",
"385 710 CURVE SMOOTH",
"162 710 LINE",
"37 0 LINE",
"118 0 LINE"
);
}
);
width = 601;
},
{
anchors = (
{
name = bottom;
position = "{271, 0}";
},
{
name = top;
position = "{397, 710}";
}
);
background = {
paths = (
{
closed = 1;
nodes = (
"277 583 LINE",
"373 583 LINE SMOOTH",
"471 583 OFFCURVE",
"522 555 OFFCURVE",
"507 473 CURVE SMOOTH",
"496 410 OFFCURVE",
"445 380 OFFCURVE",
"344 380 CURVE SMOOTH",
"210 380 LINE",
"188 252 LINE",
"314 252 LINE SMOOTH",
"528 252 OFFCURVE",
"637 336 OFFCURVE",
"660 466 CURVE SMOOTH",
"690 632 OFFCURVE",
"584 710 OFFCURVE",
"399 710 CURVE SMOOTH",
"148 710 LINE",
"23 0 LINE",
"175 0 LINE"
);
}
);
};
layerId = "014D4A40-7C7F-4023-B30E-1F55CE5EA091";
paths = (
{
closed = 1;
nodes = (
"277 583 LINE",
"373 583 LINE SMOOTH",
"460 583 OFFCURVE",
"510 561 OFFCURVE",
"510 500 CURVE SMOOTH",
"510 418 OFFCURVE",
"458 380 OFFCURVE",
"344 380 CURVE SMOOTH",
"210 380 LINE",
"188 252 LINE",
"314 252 LINE SMOOTH",
"522 252 OFFCURVE",
"665 335 OFFCURVE",
"665 519 CURVE SMOOTH",
"665 649 OFFCURVE",
"563 710 OFFCURVE",
"399 710 CURVE SMOOTH",
"148 710 LINE",
"23 0 LINE",
"175 0 LINE"
);
}
);
width = 636;
},
{
anchors = (
{
name = bottom;
position = "{249, 0}";
},
{
name = top;
position = "{378, 710}";
}
);
background = {
paths = (
{
closed = 1;
nodes = (
"198 683 LINE",
"369 683 LINE SMOOTH",
"517 683 OFFCURVE",
"580 630 OFFCURVE",
"558 504 CURVE SMOOTH",
"538 389 OFFCURVE",
"457 336 OFFCURVE",
"293 336 CURVE SMOOTH",
"133 336 LINE",
"128 308 LINE",
"294 308 LINE SMOOTH",
"475 308 OFFCURVE",
"567 376 OFFCURVE",
"590 505 CURVE SMOOTH",
"613 638 OFFCURVE",
"536 710 OFFCURVE",
"373 710 CURVE SMOOTH",
"172 710 LINE",
"47 0 LINE",
"78 0 LINE"
);
}
);
};
layerId = "7F092816-09A2-4631-A7F8-AD4571964C60";
paths = (
{
closed = 1;
nodes = (
"198 683 LINE",
"369 683 LINE SMOOTH",
"498 683 OFFCURVE",
"562 643 OFFCURVE",
"562 549 CURVE SMOOTH",
"562 393 OFFCURVE",
"458 336 OFFCURVE",
"293 336 CURVE SMOOTH",
"133 336 LINE",
"128 308 LINE",
"294 308 LINE SMOOTH",
"476 308 OFFCURVE",
"594 384 OFFCURVE",
"594 549 CURVE SMOOTH",
"594 654 OFFCURVE",
"517 710 OFFCURVE",
"373 710 CURVE SMOOTH",
"172 710 LINE",
"47 0 LINE",
"78 0 LINE"
);
}
);
width = 576;
},
{
anchors = (
{
name = bottom;
position = "{279, 0}";
},
{
name = top;
position = "{405, 710}";
}
);
background = {
paths = (
{
closed = 1;
nodes = (
"308 548 LINE",
"389 548 LINE SMOOTH",
"469 548 OFFCURVE",
"498 516 OFFCURVE",
"489 464 CURVE SMOOTH",
"481 417 OFFCURVE",
"445 394 OFFCURVE",
"360 394 CURVE SMOOTH",
"238 394 LINE",
"209 232 LINE",
"341 232 LINE SMOOTH",
"548 232 OFFCURVE",
"664 324 OFFCURVE",
"687 453 CURVE SMOOTH",
"716 619 OFFCURVE",
"610 709 OFFCURVE",
"400 709 CURVE SMOOTH",
"140 709 LINE",
"15 0 LINE",
"211 0 LINE"
);
}
);
};
layerId = "A0850C2E-74F0-4B2E-AE90-CE9FC07F2CBD";
paths = (
{
closed = 1;
nodes = (
"308 549 LINE",
"389 549 LINE SMOOTH",
"460 549 OFFCURVE",
"491 523 OFFCURVE",
"491 481 CURVE SMOOTH",
"491 423 OFFCURVE",
"455 394 OFFCURVE",
"360 394 CURVE SMOOTH",
"238 394 LINE",
"209 232 LINE",
"341 232 LINE SMOOTH",
"542 232 OFFCURVE",
"692 324 OFFCURVE",
"692 502 CURVE SMOOTH",
"692 638 OFFCURVE",
"587 710 OFFCURVE",
"400 710 CURVE SMOOTH",
"140 710 LINE",
"15 0 LINE",
"211 0 LINE"
);
}
);
width = 657;
}
);
leftKerningGroup = H;
rightKerningGroup = P;
unicode = 0050;
},
{
glyphname = Thorn;
lastChange = "2019-05-31 12:22:43 +0000";
layers = (
{
background = {
paths = (
{
closed = 1;
nodes = (
"194 525 LINE",
"354 525 LINE SMOOTH",
"484 525 OFFCURVE",
"535 480 OFFCURVE",
"518 384 CURVE SMOOTH",
"501 287 OFFCURVE",
"435 236 OFFCURVE",
"289 236 CURVE SMOOTH",
"143 236 LINE",
"131 167 LINE",
"272 167 LINE SMOOTH",
"470 167 OFFCURVE",
"576 249 OFFCURVE",
"600 384 CURVE SMOOTH",
"624 520 OFFCURVE",
"540 593 OFFCURVE",
"374 593 CURVE SMOOTH",
"206 593 LINE"
);
},
{
closed = 1;
nodes = (
"162 711 LINE",
"37 0 LINE",
"118 0 LINE",
"243 710 LINE"
);
}
);
};
layerId = "A3B50665-EA37-4AC6-885C-1233CA61B6BD";
paths = (
{
closed = 1;
nodes = (
"284 167 LINE SMOOTH",
"474 167 OFFCURVE",
"604 248 OFFCURVE",
"604 418 CURVE SMOOTH",
"604 534 OFFCURVE",
"514 593 OFFCURVE",
"366 593 CURVE SMOOTH",
"206 593 LINE",
"194 525 LINE",
"356 525 LINE SMOOTH",
"464 525 OFFCURVE",
"523 489 OFFCURVE",
"523 413 CURVE SMOOTH",
"523 283 OFFCURVE",
"433 236 OFFCURVE",
"291 236 CURVE SMOOTH",
"146 236 LINE",
"134 167 LINE"
);
},
{
closed = 1;
nodes = (
"118 0 LINE",
"243 710 LINE",
"162 711 LINE",
"37 0 LINE"
);
}
);
width = 607;
},
{
background = {
paths = (
{
closed = 1;
nodes = (
"231 482 LINE",
"365 482 LINE SMOOTH",
"463 482 OFFCURVE",
"504 457 OFFCURVE",
"491 382 CURVE SMOOTH",
"478 309 OFFCURVE",
"423 279 OFFCURVE",
"317 279 CURVE SMOOTH",
"196 279 LINE",
"173 151 LINE",
"286 151 LINE SMOOTH",
"490 151 OFFCURVE",
"621 239 OFFCURVE",
"646 385 CURVE SMOOTH",
"672 531 OFFCURVE",
"586 609 OFFCURVE",
"391 609 CURVE SMOOTH",
"254 609 LINE"
);
},
{
closed = 1;
nodes = (
"150 710 LINE",
"23 0 LINE",
"175 0 LINE",
"302 710 LINE"
);
}
);
};
layerId = "014D4A40-7C7F-4023-B30E-1F55CE5EA091";
paths = (
{
closed = 1;
nodes = (
"300 151 LINE SMOOTH",
"508 151 OFFCURVE",
"651 234 OFFCURVE",
"651 418 CURVE SMOOTH",
"651 548 OFFCURVE",
"549 609 OFFCURVE",
"385 609 CURVE SMOOTH",
"254 609 LINE",
"231 482 LINE",
"359 482 LINE SMOOTH",
"446 482 OFFCURVE",
"496 460 OFFCURVE",
"496 399 CURVE SMOOTH",
"496 317 OFFCURVE",
"444 279 OFFCURVE",
"330 279 CURVE SMOOTH",
"196 279 LINE",
"174 151 LINE"
);
},
{
closed = 1;
nodes = (
"175 0 LINE",
"302 710 LINE",
"150 710 LINE",
"23 0 LINE"
);
}
);
width = 638;
},
{
background = {
paths = (
{
closed = 1;
nodes = (
"167 555 LINE",
"346 555 LINE SMOOTH",
"494 555 OFFCURVE",
"557 500 OFFCURVE",
"537 384 CURVE SMOOTH",
"515 259 OFFCURVE",
"434 206 OFFCURVE",
"270 206 CURVE SMOOTH",
"106 206 LINE",
"101 178 LINE",
"264 178 LINE SMOOTH",
"444 178 OFFCURVE",
"544 246 OFFCURVE",
"568 385 CURVE SMOOTH",
"590 508 OFFCURVE",
"513 582 OFFCURVE",
"360 582 CURVE SMOOTH",
"172 582 LINE"
);
},
{
closed = 1;
nodes = (
"172 712 LINE",
"47 0 LINE",
"78 0 LINE",
"202 710 LINE"
);
}
);
};
layerId = "7F092816-09A2-4631-A7F8-AD4571964C60";
paths = (
{
closed = 1;
nodes = (
"271 178 LINE SMOOTH",
"453 178 OFFCURVE",
"571 254 OFFCURVE",
"571 419 CURVE SMOOTH",
"571 524 OFFCURVE",
"494 582 OFFCURVE",
"350 582 CURVE SMOOTH",
"158 582 LINE",
"158 555 LINE",
"346 555 LINE SMOOTH",
"475 555 OFFCURVE",
"539 513 OFFCURVE",
"539 419 CURVE SMOOTH",
"539 263 OFFCURVE",
"435 206 OFFCURVE",
"270 206 CURVE SMOOTH",
"110 206 LINE",
"105 178 LINE"
);
},
{
closed = 1;
nodes = (
"78 0 LINE",
"202 710 LINE",
"172 712 LINE",
"47 0 LINE"
);
}
);
width = 585;
},
{
background = {
paths = (
{
closed = 1;
nodes = (
"254 457 LINE",
"371 457 LINE SMOOTH",
"452 457 OFFCURVE",
"484 435 OFFCURVE",
"475 384 CURVE SMOOTH",
"465 326 OFFCURVE",
"416 303 OFFCURVE",
"334 303 CURVE SMOOTH",
"227 303 LINE",
"198 141 LINE",
"295 141 LINE SMOOTH",
"502 141 OFFCURVE",
"647 233 OFFCURVE",
"674 386 CURVE SMOOTH",
"701 538 OFFCURVE",
"613 618 OFFCURVE",
"393 618 CURVE SMOOTH",
"282 618 LINE"
);
},
{
closed = 1;
nodes = (
"140 709 LINE",
"15 0 LINE",
"210 0 LINE",
"336 710 LINE"
);
}
);
};
layerId = "A0850C2E-74F0-4B2E-AE90-CE9FC07F2CBD";
paths = (
{
closed = 1;
nodes = (
"327 141 LINE SMOOTH",
"528 141 OFFCURVE",
"678 233 OFFCURVE",
"678 411 CURVE SMOOTH",
"678 547 OFFCURVE",
"573 618 OFFCURVE",
"386 618 CURVE SMOOTH",
"282 618 LINE",
"254 457 LINE",
"375 457 LINE SMOOTH",
"446 457 OFFCURVE",
"477 432 OFFCURVE",
"477 391 CURVE SMOOTH",
"477 332 OFFCURVE",
"441 303 OFFCURVE",
"346 303 CURVE SMOOTH",
"224 303 LINE",
"195 141 LINE"
);
},
{
closed = 1;
nodes = (
"210 0 LINE",
"336 710 LINE",
"140 709 LINE",
"15 0 LINE"
);
}
);
width = 656;
}
);
leftKerningGroup = H;
rightKerningGroup = Thorn;
unicode = 00DE;
},
{
glyphname = Q;
lastChange = "2019-05-31 12:22:43 +0000";
layers = (
{
anchors = (
{
name = top;
position = "{465, 710}";
}
);
background = {
anchors = (
{
name = top;
position = "{464, 710}";
}
);
paths = (
{
closed = 1;
nodes = (
"282 -10 LINE SMOOTH",
"259 -141 OFFCURVE",
"314 -208 OFFCURVE",
"432 -208 CURVE SMOOTH",
"520 -208 OFFCURVE",
"587 -160 OFFCURVE",
"613 -76 CURVE",
"549 -68 LINE",
"535 -112 OFFCURVE",
"496 -141 OFFCURVE",
"445 -141 CURVE SMOOTH",
"372 -141 OFFCURVE",
"346 -104 OFFCURVE",
"362 -12 CURVE SMOOTH",
"372 47 LINE",
"292 47 LINE"
);
},
{
closed = 1;
nodes = (
"526 -8 OFFCURVE",
"692 139 OFFCURVE",
"733 369 CURVE SMOOTH",
"770 580 OFFCURVE",
"669 720 OFFCURVE",
"481 720 CURVE SMOOTH",
"279 720 OFFCURVE",
"111 564 OFFCURVE",
"72 342 CURVE SMOOTH",
"33 120 OFFCURVE",
"133 -8 OFFCURVE",
"334 -8 CURVE SMOOTH"
);
},
{
closed = 1;
nodes = (
"199 68 OFFCURVE",
"125 166 OFFCURVE",
"156 342 CURVE SMOOTH",
"188 524 OFFCURVE",
"317 644 OFFCURVE",
"468 644 CURVE SMOOTH",
"608 644 OFFCURVE",
"679 538 OFFCURVE",
"649 371 CURVE SMOOTH",
"615 179 OFFCURVE",
"494 68 OFFCURVE",
"348 68 CURVE SMOOTH"
);
}
);
};
guideLines = (
{
angle = 90;
position = "{739, 356}";
},
{
angle = 90;
position = "{802, 356}";
}
);
layerId = "A3B50665-EA37-4AC6-885C-1233CA61B6BD";
paths = (
{
closed = 1;
nodes = (
"577 -8 OFFCURVE",
"740 205 OFFCURVE",
"740 443 CURVE SMOOTH",
"740 612 OFFCURVE",
"639 720 OFFCURVE",
"472 720 CURVE SMOOTH",
"235 720 OFFCURVE",
"66 503 OFFCURVE",
"66 261 CURVE SMOOTH",
"66 91 OFFCURVE",
"166 -8 OFFCURVE",
"344 -8 CURVE SMOOTH"
);
},
{
closed = 1;
nodes = (
"527 -208 OFFCURVE",
"587 -160 OFFCURVE",
"613 -76 CURVE",
"549 -68 LINE",
"535 -112 OFFCURVE",
"496 -141 OFFCURVE",
"445 -141 CURVE SMOOTH",
"375 -141 OFFCURVE",
"346 -104 OFFCURVE",
"362 -12 CURVE SMOOTH",
"372 47 LINE",
"292 47 LINE",
"282 -10 LINE SMOOTH",
"261 -127 OFFCURVE",
"321 -208 OFFCURVE",
"439 -208 CURVE SMOOTH"
);
},
{
closed = 1;
nodes = (
"218 68 OFFCURVE",
"150 138 OFFCURVE",
"150 265 CURVE SMOOTH",
"150 461 OFFCURVE",
"276 644 OFFCURVE",
"469 644 CURVE SMOOTH",
"589 644 OFFCURVE",
"656 569 OFFCURVE",
"656 443 CURVE SMOOTH",
"656 251 OFFCURVE",
"537 68 OFFCURVE",
"348 68 CURVE SMOOTH"
);
}
);
width = 770;
},
{
anchors = (
{
name = top;
position = "{471, 710}";
}
);
background = {
anchors = (
{
name = top;
position = "{471, 710}";
}
);
paths = (
{
closed = 1;
nodes = (
"267 5 LINE SMOOTH",
"243 -128 OFFCURVE",
"311 -210 OFFCURVE",
"448 -210 CURVE SMOOTH",
"548 -210 OFFCURVE",
"631 -161 OFFCURVE",
"661 -57 CURVE",
"538 -42 LINE",
"529 -71 OFFCURVE",
"503 -87 OFFCURVE",
"471 -87 CURVE SMOOTH",
"425 -87 OFFCURVE",
"407 -61 OFFCURVE",
"417 -4 CURVE SMOOTH",
"432 80 LINE",
"280 80 LINE"
);
},
{
closed = 1;
nodes = (
"549 -8 OFFCURVE",
"722 139 OFFCURVE",
"762 369 CURVE SMOOTH",
"799 580 OFFCURVE",
"689 720 OFFCURVE",
"488 720 CURVE SMOOTH",
"261 720 OFFCURVE",
"92 564 OFFCURVE",
"53 342 CURVE SMOOTH",
"14 120 OFFCURVE",
"124 -12 OFFCURVE",
"346 -10 CURVE SMOOTH"
);
},
{
closed = 1;
nodes = (
"246 129 OFFCURVE",
"188 207 OFFCURVE",
"212 345 CURVE SMOOTH",
"237 486 OFFCURVE",
"340 582 OFFCURVE",
"460 582 CURVE SMOOTH",
"571 582 OFFCURVE",
"627 497 OFFCURVE",
"604 368 CURVE SMOOTH",
"577 217 OFFCURVE",
"481 129 OFFCURVE",
"365 129 CURVE SMOOTH"
);
}
);
};
layerId = "014D4A40-7C7F-4023-B30E-1F55CE5EA091";
paths = (
{
closed = 1;
nodes = (
"584 -10 OFFCURVE",
"767 187 OFFCURVE",
"767 436 CURVE SMOOTH",
"767 608 OFFCURVE",
"654 720 OFFCURVE",
"478 720 CURVE SMOOTH",
"234 720 OFFCURVE",
"48 526 OFFCURVE",
"48 271 CURVE SMOOTH",
"48 96 OFFCURVE",
"170 -10 OFFCURVE",
"352 -10 CURVE SMOOTH"
);
},
{
closed = 1;
nodes = (
"558 -210 OFFCURVE",
"631 -161 OFFCURVE",
"661 -57 CURVE",
"538 -42 LINE",
"529 -71 OFFCURVE",
"506 -87 OFFCURVE",
"474 -87 CURVE SMOOTH",
"428 -87 OFFCURVE",
"407 -61 OFFCURVE",
"417 -4 CURVE SMOOTH",
"432 80 LINE",
"280 80 LINE",
"267 5 LINE SMOOTH",
"243 -128 OFFCURVE",
"321 -210 OFFCURVE",
"458 -210 CURVE SMOOTH"
);
},
{
closed = 1;
nodes = (
"266 129 OFFCURVE",
"207 188 OFFCURVE",
"207 289 CURVE SMOOTH",
"207 455 OFFCURVE",
"315 582 OFFCURVE",
"456 582 CURVE SMOOTH",
"551 582 OFFCURVE",
"608 520 OFFCURVE",
"608 420 CURVE SMOOTH",
"608 255 OFFCURVE",
"505 129 OFFCURVE",
"369 129 CURVE SMOOTH"
);
}
);
width = 780;
},
{
anchors = (
{
name = top;
position = "{463, 710}";
}
);
background = {
anchors = (
{
name = top;
position = "{460, 710}";
}
);
paths = (
{
closed = 1;
nodes = (
"296 -21 LINE SMOOTH",
"275 -141 OFFCURVE",
"318 -207 OFFCURVE",
"426 -207 CURVE SMOOTH",
"505 -207 OFFCURVE",
"565 -159 OFFCURVE",
"589 -90 CURVE",
"561 -84 LINE",
"543 -141 OFFCURVE",
"495 -179 OFFCURVE",
"431 -179 CURVE SMOOTH",
"336 -179 OFFCURVE",
"308 -128 OFFCURVE",
"328 -18 CURVE SMOOTH",
"333 14 LINE",
"302 14 LINE"
);
},
{
closed = 1;
nodes = (
"514 -7 OFFCURVE",
"672 139 OFFCURVE",
"713 369 CURVE SMOOTH",
"750 580 OFFCURVE",
"657 720 OFFCURVE",
"479 720 CURVE SMOOTH",
"292 720 OFFCURVE",
"126 564 OFFCURVE",
"87 342 CURVE SMOOTH",
"48 120 OFFCURVE",
"144 -7 OFFCURVE",
"331 -7 CURVE SMOOTH"
);
},
{
closed = 1;
nodes = (
"167 24 OFFCURVE",
"83 136 OFFCURVE",
"119 340 CURVE SMOOTH",
"156 552 OFFCURVE",
"302 689 OFFCURVE",
"474 689 CURVE SMOOTH",
"634 689 OFFCURVE",
"716 568 OFFCURVE",
"682 373 CURVE SMOOTH",
"642 151 OFFCURVE",
"503 24 OFFCURVE",
"336 24 CURVE SMOOTH"
);
}
);
};
layerId = "7F092816-09A2-4631-A7F8-AD4571964C60";
paths = (
{
closed = 1;
nodes = (
"569 -7 OFFCURVE",
"720 208 OFFCURVE",
"720 448 CURVE SMOOTH",
"720 614 OFFCURVE",
"629 720 OFFCURVE",
"475 720 CURVE SMOOTH",
"241 720 OFFCURVE",
"81 500 OFFCURVE",
"81 259 CURVE SMOOTH",
"81 93 OFFCURVE",
"174 -7 OFFCURVE",
"337 -7 CURVE SMOOTH"
);
},
{
closed = 1;
nodes = (
"508 -207 OFFCURVE",
"565 -159 OFFCURVE",
"589 -90 CURVE",
"561 -84 LINE",
"543 -141 OFFCURVE",
"495 -179 OFFCURVE",
"431 -179 CURVE SMOOTH",
"336 -179 OFFCURVE",
"308 -128 OFFCURVE",
"328 -18 CURVE SMOOTH",
"333 14 LINE",
"302 14 LINE",
"296 -21 LINE SMOOTH",
"275 -142 OFFCURVE",
"321 -207 OFFCURVE",
"429 -207 CURVE SMOOTH"
);
},
{
closed = 1;
nodes = (
"193 24 OFFCURVE",
"113 108 OFFCURVE",
"113 257 CURVE SMOOTH",
"113 478 OFFCURVE",
"254 689 OFFCURVE",
"471 689 CURVE SMOOTH",
"610 689 OFFCURVE",
"688 600 OFFCURVE",
"688 451 CURVE SMOOTH",
"688 231 OFFCURVE",
"556 24 OFFCURVE",
"342 24 CURVE SMOOTH"
);
}
);
width = 763;
},
{
anchors = (
{
name = top;
position = "{474, 710}";
}
);
background = {
anchors = (
{
name = top;
position = "{395, 710}";
}
);
paths = (
{
closed = 1;
nodes = (
"256 4 LINE SMOOTH",
"234 -120 OFFCURVE",
"300 -211 OFFCURVE",
"454 -211 CURVE SMOOTH",
"564 -211 OFFCURVE",
"657 -162 OFFCURVE",
"689 -46 CURVE",
"532 -26 LINE",
"525 -47 OFFCURVE",
"508 -55 OFFCURVE",
"488 -55 CURVE SMOOTH",
"457 -55 OFFCURVE",
"444 -36 OFFCURVE",
"448 -10 CURVE SMOOTH",
"468 100 LINE",
"273 100 LINE"
);
},
{
closed = 1;
nodes = (
"566 -8 OFFCURVE",
"740 145 OFFCURVE",
"779 369 CURVE SMOOTH",
"816 580 OFFCURVE",
"701 720 OFFCURVE",
"492 720 CURVE SMOOTH",
"262 720 OFFCURVE",
"82 569 OFFCURVE",
"42 342 CURVE SMOOTH",
"3 120 OFFCURVE",
"118 -12 OFFCURVE",
"349 -10 CURVE SMOOTH"
);
},
{
closed = 1;
nodes = (
"273 165 OFFCURVE",
"225 232 OFFCURVE",
"245 347 CURVE SMOOTH",
"266 463 OFFCURVE",
"348 545 OFFCURVE",
"453 545 CURVE SMOOTH",
"548 545 OFFCURVE",
"597 474 OFFCURVE",
"577 365 CURVE SMOOTH",
"556 243 OFFCURVE",
"477 165 OFFCURVE",
"375 165 CURVE SMOOTH"
);
}
);
};
layerId = "A0850C2E-74F0-4B2E-AE90-CE9FC07F2CBD";
paths = (
{
closed = 1;
nodes = (
"596 -10 OFFCURVE",
"782 182 OFFCURVE",
"782 431 CURVE SMOOTH",
"782 608 OFFCURVE",
"665 720 OFFCURVE",
"482 720 CURVE SMOOTH",
"227 720 OFFCURVE",
"38 530 OFFCURVE",
"38 275 CURVE SMOOTH",
"38 97 OFFCURVE",
"158 -10 OFFCURVE",
"355 -10 CURVE SMOOTH"
);
},
{
closed = 1;
nodes = (
"574 -211 OFFCURVE",
"657 -162 OFFCURVE",
"689 -46 CURVE",
"532 -26 LINE",
"525 -47 OFFCURVE",
"508 -55 OFFCURVE",
"488 -55 CURVE SMOOTH",
"457 -55 OFFCURVE",
"443 -36 OFFCURVE",
"448 -10 CURVE SMOOTH",
"467 100 LINE",
"273 100 LINE",
"256 4 LINE SMOOTH",
"234 -120 OFFCURVE",
"310 -211 OFFCURVE",
"464 -211 CURVE SMOOTH"
);
},
{
closed = 1;
nodes = (
"292 165 OFFCURVE",
"241 217 OFFCURVE",
"241 303 CURVE SMOOTH",
"241 440 OFFCURVE",
"331 545 OFFCURVE",
"449 545 CURVE SMOOTH",
"530 545 OFFCURVE",
"579 493 OFFCURVE",
"579 407 CURVE SMOOTH",
"579 269 OFFCURVE",
"493 165 OFFCURVE",
"378 165 CURVE SMOOTH"
);
}
);
width = 785.90909;
}
);
leftKerningGroup = O;
rightKerningGroup = O;
unicode = 0051;
},
{
glyphname = R;
lastChange = "2019-05-31 12:22:43 +0000";
layers = (
{
anchors = (
{
name = bottom;
position = "{269, 0}";
},
{
name = top;
position = "{394, 710}";
}
);
background = {
paths = (
{
closed = 1;
nodes = (
"547 72 OFFCURVE",
"528 66 OFFCURVE",
"508 66 CURVE SMOOTH",
"472 66 OFFCURVE",
"449 79 OFFCURVE",
"421 134 CURVE SMOOTH",
"355 265 LINE SMOOTH",
"331 312 OFFCURVE",
"308 331 OFFCURVE",
"269 331 CURVE",
"262 321 LINE",
"311 321 LINE SMOOTH",
"455 321 OFFCURVE",
"557 392 OFFCURVE",
"577 506 CURVE SMOOTH",
"600 636 OFFCURVE",
"520 710 OFFCURVE",
"351 710 CURVE SMOOTH",
"162 710 LINE",
"37 0 LINE",
"118 0 LINE",
"231 642 LINE",
"342 642 LINE SMOOTH",
"461 642 OFFCURVE",
"511 597 OFFCURVE",
"495 504 CURVE SMOOTH",
"482 424 OFFCURVE",
"415 385 OFFCURVE",
"291 385 CURVE SMOOTH",
"170 385 LINE",
"158 319 LINE",
"198 319 LINE SMOOTH",
"221 319 OFFCURVE",
"245 302 OFFCURVE",
"259 275 CURVE SMOOTH",
"356 83 LINE SMOOTH",
"387 22 OFFCURVE",
"428 -6 OFFCURVE",
"486 -6 CURVE SMOOTH",
"521 -6 OFFCURVE",
"551 2 OFFCURVE",
"575 18 CURVE",
"564 82 LINE"
);
}
);
};
guideLines = (
{
angle = 124.1013;
position = "{440, 179}";
}
);
layerId = "A3B50665-EA37-4AC6-885C-1233CA61B6BD";
paths = (
{
closed = 1;
nodes = (
"547 72 OFFCURVE",
"528 66 OFFCURVE",
"508 66 CURVE SMOOTH",
"472 66 OFFCURVE",
"449 79 OFFCURVE",
"421 134 CURVE SMOOTH",
"355 265 LINE SMOOTH",
"331 312 OFFCURVE",
"308 331 OFFCURVE",
"269 331 CURVE",
"262 321 LINE",
"311 321 LINE SMOOTH",
"464 321 OFFCURVE",
"581 403 OFFCURVE",
"581 546 CURVE SMOOTH",
"581 651 OFFCURVE",
"501 710 OFFCURVE",
"351 710 CURVE SMOOTH",
"162 710 LINE",
"37 0 LINE",
"118 0 LINE",
"231 642 LINE",
"342 642 LINE SMOOTH",
"447 642 OFFCURVE",
"498 607 OFFCURVE",
"498 536 CURVE SMOOTH",
"498 424 OFFCURVE",
"415 385 OFFCURVE",
"291 385 CURVE SMOOTH",
"170 385 LINE",
"158 319 LINE",
"198 319 LINE SMOOTH",
"221 319 OFFCURVE",
"245 302 OFFCURVE",
"259 275 CURVE SMOOTH",
"356 83 LINE SMOOTH",
"387 22 OFFCURVE",
"428 -6 OFFCURVE",
"486 -6 CURVE SMOOTH",
"521 -6 OFFCURVE",
"551 2 OFFCURVE",
"575 18 CURVE",
"564 82 LINE"
);
}
);
width = 587;
},
{
anchors = (
{
name = bottom;
position = "{295, 0}";
},
{
name = top;
position = "{420, 710}";
}
);
background = {
paths = (
{
closed = 1;
nodes = (
"611 132 OFFCURVE",
"588 127 OFFCURVE",
"563 127 CURVE SMOOTH",
"526 127 OFFCURVE",
"501 141 OFFCURVE",
"484 177 CURVE SMOOTH",
"457 234 LINE SMOOTH",
"435 280 OFFCURVE",
"403 300 OFFCURVE",
"358 300 CURVE",
"314 282 LINE",
"351 282 LINE SMOOTH",
"482 282 OFFCURVE",
"604 347 OFFCURVE",
"628 481 CURVE SMOOTH",
"654 627 OFFCURVE",
"571 710 OFFCURVE",
"370 710 CURVE SMOOTH",
"148 710 LINE",
"23 0 LINE",
"176 0 LINE",
"279 583 LINE",
"338 583 LINE SMOOTH",
"439 583 OFFCURVE",
"486 555 OFFCURVE",
"473 482 CURVE SMOOTH",
"464 428 OFFCURVE",
"416 400 OFFCURVE",
"322 400 CURVE SMOOTH",
"214 400 LINE",
"192 279 LINE",
"219 279 LINE SMOOTH",
"247 279 OFFCURVE",
"270 270 OFFCURVE",
"286 234 CURVE SMOOTH",
"350 93 LINE SMOOTH",
"380 26 OFFCURVE",
"437 -10 OFFCURVE",
"524 -10 CURVE SMOOTH",
"567 -10 OFFCURVE",
"617 2 OFFCURVE",
"649 26 CURVE",
"630 146 LINE"
);
}
);
};
guideLines = (
{
angle = 122.1118;
position = "{530, 170}";
}
);
layerId = "014D4A40-7C7F-4023-B30E-1F55CE5EA091";
paths = (
{
closed = 1;
nodes = (
"611 132 OFFCURVE",
"588 127 OFFCURVE",
"560 127 CURVE SMOOTH",
"526 127 OFFCURVE",
"501 141 OFFCURVE",
"484 177 CURVE SMOOTH",
"457 234 LINE SMOOTH",
"435 280 OFFCURVE",
"403 300 OFFCURVE",
"358 300 CURVE",
"314 282 LINE",
"351 282 LINE SMOOTH",
"512 282 OFFCURVE",
"633 376 OFFCURVE",
"633 527 CURVE SMOOTH",
"633 646 OFFCURVE",
"547 710 OFFCURVE",
"370 710 CURVE SMOOTH",
"148 710 LINE",
"23 0 LINE",
"176 0 LINE",
"279 583 LINE",
"338 583 LINE SMOOTH",
"428 583 OFFCURVE",
"475 561 OFFCURVE",
"475 504 CURVE SMOOTH",
"475 436 OFFCURVE",
"428 400 OFFCURVE",
"322 400 CURVE SMOOTH",
"214 400 LINE",
"192 279 LINE",
"219 279 LINE SMOOTH",
"247 279 OFFCURVE",
"270 270 OFFCURVE",
"286 234 CURVE SMOOTH",
"350 93 LINE SMOOTH",
"380 26 OFFCURVE",
"438 -10 OFFCURVE",
"526 -10 CURVE SMOOTH",
"568 -10 OFFCURVE",
"617 2 OFFCURVE",
"649 26 CURVE",
"630 146 LINE"
);
}
);
width = 649;
},
{
anchors = (
{
name = bottom;
position = "{251, 0}";
},
{
name = top;
position = "{376, 710}";
}
);
background = {
paths = (
{
closed = 1;
nodes = (
"508 29 OFFCURVE",
"492 22 OFFCURVE",
"469 22 CURVE SMOOTH",
"425 22 OFFCURVE",
"410 34 OFFCURVE",
"379 95 CURVE SMOOTH",
"282 287 LINE SMOOTH",
"258 335 OFFCURVE",
"241 356 OFFCURVE",
"204 356 CURVE",
"217 349 LINE",
"292 349 LINE SMOOTH",
"429 349 OFFCURVE",
"522 414 OFFCURVE",
"541 524 CURVE SMOOTH",
"562 644 OFFCURVE",
"491 710 OFFCURVE",
"343 710 CURVE SMOOTH",
"172 710 LINE",
"47 0 LINE",
"77 0 LINE",
"197 683 LINE",
"345 683 LINE SMOOTH",
"473 683 OFFCURVE",
"528 630 OFFCURVE",
"510 525 CURVE SMOOTH",
"495 429 OFFCURVE",
"417 375 OFFCURVE",
"295 375 CURVE SMOOTH",
"129 375 LINE",
"124 349 LINE",
"163 349 LINE SMOOTH",
"205 349 OFFCURVE",
"230 324 OFFCURVE",
"240 304 CURVE SMOOTH",
"361 68 LINE SMOOTH",
"390 12 OFFCURVE",
"419 -3 OFFCURVE",
"465 -3 CURVE SMOOTH",
"487 -3 OFFCURVE",
"507 1 OFFCURVE",
"527 13 CURVE",
"519 36 LINE"
);
}
);
};
layerId = "7F092816-09A2-4631-A7F8-AD4571964C60";
paths = (
{
closed = 1;
nodes = (
"508 29 OFFCURVE",
"492 22 OFFCURVE",
"469 22 CURVE SMOOTH",
"425 22 OFFCURVE",
"410 34 OFFCURVE",
"379 95 CURVE SMOOTH",
"282 287 LINE SMOOTH",
"258 335 OFFCURVE",
"241 356 OFFCURVE",
"204 356 CURVE",
"217 349 LINE",
"293 349 LINE SMOOTH",
"440 349 OFFCURVE",
"545 428 OFFCURVE",
"545 563 CURVE SMOOTH",
"545 658 OFFCURVE",
"474 710 OFFCURVE",
"343 710 CURVE SMOOTH",
"172 710 LINE",
"47 0 LINE",
"77 0 LINE",
"197 683 LINE",
"345 683 LINE SMOOTH",
"457 683 OFFCURVE",
"513 642 OFFCURVE",
"513 561 CURVE SMOOTH",
"513 440 OFFCURVE",
"428 375 OFFCURVE",
"295 375 CURVE SMOOTH",
"129 375 LINE",
"124 349 LINE",
"163 349 LINE SMOOTH",
"205 349 OFFCURVE",
"230 324 OFFCURVE",
"240 304 CURVE SMOOTH",
"361 68 LINE SMOOTH",
"390 12 OFFCURVE",
"419 -3 OFFCURVE",
"465 -3 CURVE SMOOTH",
"487 -3 OFFCURVE",
"507 1 OFFCURVE",
"527 13 CURVE",
"519 36 LINE"
);
}
);
width = 543;
},
{
anchors = (
{
name = bottom;
position = "{311, 0}";
},
{
name = top;
position = "{437, 710}";
}
);
background = {
paths = (
{
closed = 1;
nodes = (
"647 168 OFFCURVE",
"621 163 OFFCURVE",
"596 163 CURVE SMOOTH",
"561 163 OFFCURVE",
"536 177 OFFCURVE",
"523 202 CURVE SMOOTH",
"509 229 LINE SMOOTH",
"491 264 OFFCURVE",
"458 282 OFFCURVE",
"404 282 CURVE",
"346 261 LINE",
"359 261 LINE SMOOTH",
"509 261 OFFCURVE",
"632 321 OFFCURVE",
"657 456 CURVE SMOOTH",
"686 622 OFFCURVE",
"590 710 OFFCURVE",
"371 710 CURVE SMOOTH",
"140 710 LINE",
"15 0 LINE",
"211 0 LINE",
"307 549 LINE",
"350 549 LINE SMOOTH",
"424 549 OFFCURVE",
"472 533 OFFCURVE",
"461 470 CURVE SMOOTH",
"454 431 OFFCURVE",
"420 408 OFFCURVE",
"344 408 CURVE SMOOTH",
"240 408 LINE",
"213 255 LINE",
"232 255 LINE SMOOTH",
"270 255 OFFCURVE",
"286 246 OFFCURVE",
"301 210 CURVE SMOOTH",
"344 107 LINE SMOOTH",
"377 28 OFFCURVE",
"425 -12 OFFCURVE",
"538 -12 CURVE SMOOTH",
"594 -12 OFFCURVE",
"656 5 OFFCURVE",
"693 30 CURVE",
"669 184 LINE"
);
}
);
};
layerId = "A0850C2E-74F0-4B2E-AE90-CE9FC07F2CBD";
paths = (
{
closed = 1;
nodes = (
"650 170 OFFCURVE",
"625 163 OFFCURVE",
"596 163 CURVE SMOOTH",
"562 163 OFFCURVE",
"536 177 OFFCURVE",
"523 202 CURVE SMOOTH",
"509 229 LINE SMOOTH",
"491 265 OFFCURVE",
"457 282 OFFCURVE",
"404 282 CURVE",
"346 261 LINE",
"359 261 LINE SMOOTH",
"549 261 OFFCURVE",
"662 354 OFFCURVE",
"662 509 CURVE SMOOTH",
"662 642 OFFCURVE",
"564 710 OFFCURVE",
"371 710 CURVE SMOOTH",
"140 710 LINE",
"15 0 LINE",
"211 0 LINE",
"307 549 LINE",
"350 549 LINE SMOOTH",
"428 549 OFFCURVE",
"463 530 OFFCURVE",
"463 487 CURVE SMOOTH",
"463 434 OFFCURVE",
"424 408 OFFCURVE",
"344 408 CURVE SMOOTH",
"240 408 LINE",
"213 255 LINE",
"232 255 LINE SMOOTH",
"271 255 OFFCURVE",
"286 245 OFFCURVE",
"301 210 CURVE SMOOTH",
"344 107 LINE SMOOTH",
"380 21 OFFCURVE",
"434 -12 OFFCURVE",
"538 -12 CURVE SMOOTH",
"594 -12 OFFCURVE",
"656 5 OFFCURVE",
"693 30 CURVE",
"669 184 LINE"
);
}
);
width = 686;
}
);
leftKerningGroup = H;
rightKerningGroup = R;
unicode = 0052;
},
{
glyphname = S;
lastChange = "2019-06-02 21:20:01 +0000";
layers = (
{
anchors = (
{
name = bottom;
position = "{245, 0}";
},
{
name = top;
position = "{370, 710}";
}
);
background = {
anchors = (
{
name = bottom;
position = "{246, 0}";
},
{
name = top;
position = "{371, 710}";
}
);
paths = (
{
closed = 1;
nodes = (
"388 -8 OFFCURVE",
"501 72 OFFCURVE",
"521 188 CURVE SMOOTH",
"567 455 OFFCURVE",
"165 308 OFFCURVE",
"202 517 CURVE SMOOTH",
"216 596 OFFCURVE",
"283 648 OFFCURVE",
"371 648 CURVE SMOOTH",
"458 648 OFFCURVE",
"498 608 OFFCURVE",
"501 518 CURVE",
"575 530 LINE",
"581 649 OFFCURVE",
"511 720 OFFCURVE",
"386 720 CURVE SMOOTH",
"253 720 OFFCURVE",
"141 633 OFFCURVE",
"120 514 CURVE SMOOTH",
"71 235 OFFCURVE",
"471 376 OFFCURVE",
"439 187 CURVE SMOOTH",
"426 111 OFFCURVE",
"360 64 OFFCURVE",
"264 64 CURVE SMOOTH",
"149 64 OFFCURVE",
"101 111 OFFCURVE",
"101 221 CURVE",
"22 210 LINE",
"13 66 OFFCURVE",
"89 -8 OFFCURVE",
"245 -8 CURVE SMOOTH"
);
}
);
};
layerId = "A3B50665-EA37-4AC6-885C-1233CA61B6BD";
paths = (
{
closed = 1;
nodes = (
"415 -8 OFFCURVE",
"523 80 OFFCURVE",
"523 208 CURVE SMOOTH",
"523 430 OFFCURVE",
"199 332 OFFCURVE",
"199 499 CURVE SMOOTH",
"199 591 OFFCURVE",
"265 648 OFFCURVE",
"370 648 CURVE SMOOTH",
"457 648 OFFCURVE",
"497 608 OFFCURVE",
"500 518 CURVE",
"574 530 LINE",
"576 648 OFFCURVE",
"503 720 OFFCURVE",
"371 720 CURVE SMOOTH",
"222 720 OFFCURVE",
"115 625 OFFCURVE",
"115 493 CURVE SMOOTH",
"115 257 OFFCURVE",
"439 355 OFFCURVE",
"439 201 CURVE SMOOTH",
"439 113 OFFCURVE",
"376 64 OFFCURVE",
"266 64 CURVE SMOOTH",
"148 64 OFFCURVE",
"100 111 OFFCURVE",
"100 221 CURVE",
"21 210 LINE",
"15 70 OFFCURVE",
"100 -8 OFFCURVE",
"258 -8 CURVE SMOOTH"
);
}
);
width = 568;
},
{
anchors = (
{
name = bottom;
position = "{261, 0}";
},
{
name = top;
position = "{387, 710}";
}
);
background = {
paths = (
{
closed = 1;
nodes = (
"439 -9 OFFCURVE",
"543 80 OFFCURVE",
"563 190 CURVE SMOOTH",
"612 469 OFFCURVE",
"233 363 OFFCURVE",
"261 517 CURVE SMOOTH",
"269 558 OFFCURVE",
"311 590 OFFCURVE",
"378 590 CURVE SMOOTH",
"438 590 OFFCURVE",
"474 558 OFFCURVE",
"474 500 CURVE",
"616 523 LINE",
"623 644 OFFCURVE",
"523 720 OFFCURVE",
"391 720 CURVE SMOOTH",
"228 720 OFFCURVE",
"124 628 OFFCURVE",
"105 517 CURVE SMOOTH",
"55 231 OFFCURVE",
"431 326 OFFCURVE",
"406 191 CURVE SMOOTH",
"398 149 OFFCURVE",
"356 121 OFFCURVE",
"284 121 CURVE SMOOTH",
"194 121 OFFCURVE",
"152 160 OFFCURVE",
"155 233 CURVE",
"7 212 LINE",
"-4 71 OFFCURVE",
"97 -9 OFFCURVE",
"260 -9 CURVE SMOOTH"
);
}
);
};
layerId = "014D4A40-7C7F-4023-B30E-1F55CE5EA091";
paths = (
{
closed = 1;
nodes = (
"433 -9 OFFCURVE",
"567 79 OFFCURVE",
"567 232 CURVE SMOOTH",
"567 447 OFFCURVE",
"260 378 OFFCURVE",
"260 501 CURVE SMOOTH",
"260 550 OFFCURVE",
"303 590 OFFCURVE",
"378 590 CURVE SMOOTH",
"438 590 OFFCURVE",
"474 558 OFFCURVE",
"474 500 CURVE",
"616 523 LINE",
"620 644 OFFCURVE",
"531 720 OFFCURVE",
"391 720 CURVE SMOOTH",
"226 720 OFFCURVE",
"100 622 OFFCURVE",
"100 478 CURVE SMOOTH",
"100 249 OFFCURVE",
"407 314 OFFCURVE",
"407 203 CURVE SMOOTH",
"407 155 OFFCURVE",
"363 121 OFFCURVE",
"284 121 CURVE SMOOTH",
"194 121 OFFCURVE",
"152 160 OFFCURVE",
"155 233 CURVE",
"7 212 LINE",
"-4 71 OFFCURVE",
"97 -9 OFFCURVE",
"260 -9 CURVE SMOOTH"
);
}
);
width = 596;
},
{
anchors = (
{
name = bottom;
position = "{236, 0}";
},
{
name = top;
position = "{361, 710}";
}
);
background = {
paths = (
{
closed = 1;
nodes = (
"372 -7 OFFCURVE",
"471 64 OFFCURVE",
"491 176 CURVE SMOOTH",
"511 288 OFFCURVE",
"459 329 OFFCURVE",
"310 360 CURVE SMOOTH",
"203 382 OFFCURVE",
"144 414 OFFCURVE",
"164 525 CURVE SMOOTH",
"182 625 OFFCURVE",
"262 690 OFFCURVE",
"368 690 CURVE SMOOTH",
"472 690 OFFCURVE",
"520 641 OFFCURVE",
"519 531 CURVE",
"547 535 LINE",
"553 657 OFFCURVE",
"488 720 OFFCURVE",
"373 720 CURVE SMOOTH",
"253 720 OFFCURVE",
"152 636 OFFCURVE",
"133 525 CURVE SMOOTH",
"110 388 OFFCURVE",
"189 353 OFFCURVE",
"298 331 CURVE SMOOTH",
"427 305 OFFCURVE",
"478 276 OFFCURVE",
"460 176 CURVE SMOOTH",
"443 82 OFFCURVE",
"363 23 OFFCURVE",
"251 23 CURVE SMOOTH",
"116 23 OFFCURVE",
"64 74 OFFCURVE",
"65 212 CURVE",
"34 209 LINE",
"25 60 OFFCURVE",
"99 -7 OFFCURVE",
"244 -7 CURVE SMOOTH"
);
}
);
};
layerId = "7F092816-09A2-4631-A7F8-AD4571964C60";
paths = (
{
closed = 1;
nodes = (
"385 -7 OFFCURVE",
"492 67 OFFCURVE",
"492 203 CURVE SMOOTH",
"492 420 OFFCURVE",
"162 296 OFFCURVE",
"162 494 CURVE SMOOTH",
"162 609 OFFCURVE",
"245 690 OFFCURVE",
"368 690 CURVE SMOOTH",
"471 690 OFFCURVE",
"520 641 OFFCURVE",
"519 531 CURVE",
"547 535 LINE",
"548 658 OFFCURVE",
"486 720 OFFCURVE",
"368 720 CURVE SMOOTH",
"235 720 OFFCURVE",
"131 632 OFFCURVE",
"131 494 CURVE SMOOTH",
"131 264 OFFCURVE",
"461 390 OFFCURVE",
"461 202 CURVE SMOOTH",
"461 91 OFFCURVE",
"377 23 OFFCURVE",
"251 23 CURVE SMOOTH",
"120 23 OFFCURVE",
"64 74 OFFCURVE",
"65 212 CURVE",
"34 209 LINE",
"30 60 OFFCURVE",
"104 -7 OFFCURVE",
"251 -7 CURVE SMOOTH"
);
}
);
width = 548;
},
{
anchors = (
{
name = bottom;
position = "{269, 0}";
},
{
name = top;
position = "{395, 710}";
}
);
background = {
anchors = (
{
name = bottom;
position = "{269, 0}";
},
{
name = top;
position = "{395, 710}";
}
);
paths = (
{
closed = 1;
nodes = (
"432 -10 OFFCURVE",
"568 84 OFFCURVE",
"593 223 CURVE SMOOTH",
"616 352 OFFCURVE",
"537 398 OFFCURVE",
"381 439 CURVE SMOOTH",
"308 458 OFFCURVE",
"290 477 OFFCURVE",
"294 505 CURVE SMOOTH",
"298 536 OFFCURVE",
"333 555 OFFCURVE",
"378 555 CURVE SMOOTH",
"426 555 OFFCURVE",
"459 528 OFFCURVE",
"459 489 CURVE",
"639 519 LINE",
"648 643 OFFCURVE",
"561 720 OFFCURVE",
"418 720 CURVE SMOOTH",
"245 720 OFFCURVE",
"115 625 OFFCURVE",
"89 487 CURVE SMOOTH",
"66 365 OFFCURVE",
"131 307 OFFCURVE",
"289 266 CURVE SMOOTH",
"363 247 OFFCURVE",
"392 232 OFFCURVE",
"387 203 CURVE SMOOTH",
"381 171 OFFCURVE",
"347 155 OFFCURVE",
"287 155 CURVE SMOOTH",
"220 155 OFFCURVE",
"181 189 OFFCURVE",
"187 240 CURVE",
"-3 213 LINE",
"-16 68 OFFCURVE",
"73 -10 OFFCURVE",
"252 -10 CURVE SMOOTH"
);
}
);
};
layerId = "A0850C2E-74F0-4B2E-AE90-CE9FC07F2CBD";
paths = (
{
closed = 1;
nodes = (
"445 -10 OFFCURVE",
"593 85 OFFCURVE",
"593 244 CURVE SMOOTH",
"593 452 OFFCURVE",
"293 411 OFFCURVE",
"293 499 CURVE SMOOTH",
"293 533 OFFCURVE",
"329 555 OFFCURVE",
"376 555 CURVE SMOOTH",
"425 555 OFFCURVE",
"459 528 OFFCURVE",
"459 489 CURVE",
"639 519 LINE",
"638 643 OFFCURVE",
"546 720 OFFCURVE",
"401 720 CURVE SMOOTH",
"230 720 OFFCURVE",
"88 625 OFFCURVE",
"88 465 CURVE SMOOTH",
"88 251 OFFCURVE",
"387 286 OFFCURVE",
"387 206 CURVE SMOOTH",
"387 174 OFFCURVE",
"351 155 OFFCURVE",
"289 155 CURVE SMOOTH",
"220 155 OFFCURVE",
"181 189 OFFCURVE",
"187 240 CURVE",
"-3 213 LINE",
"-2 68 OFFCURVE",
"94 -10 OFFCURVE",
"270 -10 CURVE SMOOTH"
);
}
);
width = 612.54545;
}
);
leftKerningGroup = S;
note = s;
rightKerningGroup = S;
unicode = 0053;
},
{
glyphname = Germandbls;
lastChange = "2019-05-31 12:22:43 +0000";
layers = (
{
background = {
paths = (
{
closed = 1;
nodes = (
"266 720 OFFCURVE",
"147 622 OFFCURVE",
"115 442 CURVE SMOOTH",
"37 0 LINE",
"120 0 LINE",
"197 434 LINE SMOOTH",
"222 576 OFFCURVE",
"301 649 OFFCURVE",
"451 649 CURVE SMOOTH",
"555 649 OFFCURVE",
"609 599 OFFCURVE",
"594 515 CURVE SMOOTH",
"581 440 OFFCURVE",
"517 392 OFFCURVE",
"433 392 CURVE SMOOTH",
"379 392 LINE",
"367 323 LINE",
"422 323 LINE SMOOTH",
"525 323 OFFCURVE",
"575 273 OFFCURVE",
"559 179 CURVE SMOOTH",
"545 103 OFFCURVE",
"488 63 OFFCURVE",
"411 63 CURVE SMOOTH",
"325 63 OFFCURVE",
"283 107 OFFCURVE",
"281 194 CURVE",
"207 174 LINE",
"210 58 OFFCURVE",
"280 -8 OFFCURVE",
"405 -8 CURVE SMOOTH",
"524 -8 OFFCURVE",
"621 66 OFFCURVE",
"640 171 CURVE SMOOTH",
"659 280 OFFCURVE",
"607 348 OFFCURVE",
"504 367 CURVE",
"501 348 LINE",
"593 369 OFFCURVE",
"661 429 OFFCURVE",
"676 515 CURVE SMOOTH",
"698 640 OFFCURVE",
"605 720 OFFCURVE",
"451 720 CURVE SMOOTH"
);
}
);
};
layerId = "A3B50665-EA37-4AC6-885C-1233CA61B6BD";
paths = (
{
closed = 1;
nodes = (
"266 720 OFFCURVE",
"147 622 OFFCURVE",
"115 442 CURVE SMOOTH",
"37 0 LINE",
"120 0 LINE",
"197 434 LINE SMOOTH",
"223 580 OFFCURVE",
"305 649 OFFCURVE",
"451 649 CURVE SMOOTH",
"543 649 OFFCURVE",
"596 610 OFFCURVE",
"596 542 CURVE SMOOTH",
"596 454 OFFCURVE",
"529 392 OFFCURVE",
"433 392 CURVE SMOOTH",
"379 392 LINE",
"367 323 LINE",
"422 323 LINE SMOOTH",
"513 323 OFFCURVE",
"562 284 OFFCURVE",
"562 212 CURVE SMOOTH",
"562 121 OFFCURVE",
"504 63 OFFCURVE",
"411 63 CURVE SMOOTH",
"326 63 OFFCURVE",
"283 106 OFFCURVE",
"281 194 CURVE",
"207 174 LINE",
"210 57 OFFCURVE",
"281 -8 OFFCURVE",
"405 -8 CURVE SMOOTH",
"542 -8 OFFCURVE",
"644 87 OFFCURVE",
"644 214 CURVE SMOOTH",
"644 297 OFFCURVE",
"594 351 OFFCURVE",
"504 367 CURVE",
"501 348 LINE",
"610 373 OFFCURVE",
"679 451 OFFCURVE",
"679 550 CURVE SMOOTH",
"679 654 OFFCURVE",
"591 720 OFFCURVE",
"451 720 CURVE SMOOTH"
);
}
);
width = 701;
},
{
background = {
paths = (
{
closed = 1;
nodes = (
"260 720 OFFCURVE",
"130 606 OFFCURVE",
"94 402 CURVE SMOOTH",
"23 0 LINE",
"179 0 LINE",
"249 395 LINE SMOOTH",
"272 528 OFFCURVE",
"344 589 OFFCURVE",
"471 589 CURVE SMOOTH",
"548 589 OFFCURVE",
"593 554 OFFCURVE",
"583 497 CURVE SMOOTH",
"574 448 OFFCURVE",
"532 423 OFFCURVE",
"464 423 CURVE SMOOTH",
"403 423 LINE",
"380 294 LINE",
"440 294 LINE SMOOTH",
"531 294 OFFCURVE",
"568 264 OFFCURVE",
"556 195 CURVE SMOOTH",
"548 153 OFFCURVE",
"514 123 OFFCURVE",
"467 123 CURVE SMOOTH",
"411 123 OFFCURVE",
"381 157 OFFCURVE",
"383 214 CURVE",
"244 179 LINE",
"252 60 OFFCURVE",
"323 -10 OFFCURVE",
"460 -10 CURVE SMOOTH",
"595 -10 OFFCURVE",
"688 68 OFFCURVE",
"708 178 CURVE SMOOTH",
"726 282 OFFCURVE",
"676 348 OFFCURVE",
"579 372 CURVE",
"577 349 LINE",
"669 374 OFFCURVE",
"726 430 OFFCURVE",
"739 505 CURVE SMOOTH",
"763 641 OFFCURVE",
"658 720 OFFCURVE",
"487 720 CURVE SMOOTH"
);
}
);
};
layerId = "014D4A40-7C7F-4023-B30E-1F55CE5EA091";
paths = (
{
closed = 1;
nodes = (
"267 720 OFFCURVE",
"131 611 OFFCURVE",
"96 412 CURVE SMOOTH",
"23 0 LINE",
"179 0 LINE",
"249 395 LINE SMOOTH",
"272 528 OFFCURVE",
"338 589 OFFCURVE",
"459 589 CURVE SMOOTH",
"538 589 OFFCURVE",
"584 561 OFFCURVE",
"584 512 CURVE SMOOTH",
"584 456 OFFCURVE",
"539 423 OFFCURVE",
"464 423 CURVE SMOOTH",
"403 423 LINE",
"380 294 LINE",
"440 294 LINE SMOOTH",
"521 294 OFFCURVE",
"558 270 OFFCURVE",
"558 218 CURVE SMOOTH",
"558 163 OFFCURVE",
"520 123 OFFCURVE",
"467 123 CURVE SMOOTH",
"412 123 OFFCURVE",
"381 156 OFFCURVE",
"383 214 CURVE",
"244 179 LINE",
"255 56 OFFCURVE",
"333 -10 OFFCURVE",
"469 -10 CURVE SMOOTH",
"609 -10 OFFCURVE",
"712 85 OFFCURVE",
"712 213 CURVE SMOOTH",
"712 294 OFFCURVE",
"664 351 OFFCURVE",
"579 372 CURVE",
"577 349 LINE",
"681 377 OFFCURVE",
"742 445 OFFCURVE",
"742 532 CURVE SMOOTH",
"742 650 OFFCURVE",
"645 720 OFFCURVE",
"481 720 CURVE SMOOTH"
);
}
);
width = 746;
},
{
background = {
paths = (
{
closed = 1;
nodes = (
"254 720 OFFCURVE",
"158 626 OFFCURVE",
"128 458 CURVE SMOOTH",
"47 0 LINE",
"78 0 LINE",
"159 457 LINE SMOOTH",
"186 610 OFFCURVE",
"272 691 OFFCURVE",
"430 691 CURVE SMOOTH",
"558 691 OFFCURVE",
"619 629 OFFCURVE",
"601 526 CURVE SMOOTH",
"585 434 OFFCURVE",
"510 371 OFFCURVE",
"424 371 CURVE SMOOTH",
"363 371 LINE",
"358 344 LINE",
"401 344 LINE SMOOTH",
"521 344 OFFCURVE",
"580 279 OFFCURVE",
"561 172 CURVE SMOOTH",
"544 74 OFFCURVE",
"471 21 OFFCURVE",
"375 21 CURVE SMOOTH",
"266 21 OFFCURVE",
"213 71 OFFCURVE",
"210 180 CURVE",
"182 170 LINE",
"184 55 OFFCURVE",
"249 -7 OFFCURVE",
"373 -7 CURVE SMOOTH",
"489 -7 OFFCURVE",
"573 60 OFFCURVE",
"592 167 CURVE SMOOTH",
"611 275 OFFCURVE",
"555 348 OFFCURVE",
"453 363 CURVE",
"452 348 LINE",
"539 363 OFFCURVE",
"615 430 OFFCURVE",
"631 523 CURVE SMOOTH",
"652 641 OFFCURVE",
"572 720 OFFCURVE",
"430 720 CURVE SMOOTH"
);
}
);
};
layerId = "7F092816-09A2-4631-A7F8-AD4571964C60";
paths = (
{
closed = 1;
nodes = (
"260 720 OFFCURVE",
"159 632 OFFCURVE",
"128 458 CURVE SMOOTH",
"47 0 LINE",
"78 0 LINE",
"159 457 LINE SMOOTH",
"187 614 OFFCURVE",
"276 691 OFFCURVE",
"430 691 CURVE SMOOTH",
"541 691 OFFCURVE",
"604 644 OFFCURVE",
"604 560 CURVE SMOOTH",
"604 455 OFFCURVE",
"524 371 OFFCURVE",
"424 371 CURVE SMOOTH",
"363 371 LINE",
"358 344 LINE",
"401 344 LINE SMOOTH",
"505 344 OFFCURVE",
"565 295 OFFCURVE",
"565 210 CURVE SMOOTH",
"565 97 OFFCURVE",
"488 21 OFFCURVE",
"375 21 CURVE SMOOTH",
"265 21 OFFCURVE",
"213 72 OFFCURVE",
"210 180 CURVE",
"182 170 LINE",
"186 54 OFFCURVE",
"252 -7 OFFCURVE",
"373 -7 CURVE SMOOTH",
"504 -7 OFFCURVE",
"596 82 OFFCURVE",
"596 207 CURVE SMOOTH",
"596 292 OFFCURVE",
"543 350 OFFCURVE",
"453 363 CURVE",
"452 348 LINE",
"557 366 OFFCURVE",
"634 455 OFFCURVE",
"634 559 CURVE SMOOTH",
"634 658 OFFCURVE",
"556 720 OFFCURVE",
"430 720 CURVE SMOOTH"
);
}
);
width = 669;
},
{
background = {
paths = (
{
closed = 1;
nodes = (
"270 720 OFFCURVE",
"123 610 OFFCURVE",
"82 379 CURVE SMOOTH",
"15 0 LINE",
"215 0 LINE",
"282 379 LINE SMOOTH",
"304 501 OFFCURVE",
"366 553 OFFCURVE",
"478 553 CURVE SMOOTH",
"544 553 OFFCURVE",
"586 534 OFFCURVE",
"578 491 CURVE SMOOTH",
"571 452 OFFCURVE",
"541 441 OFFCURVE",
"476 441 CURVE SMOOTH",
"417 441 LINE",
"388 277 LINE",
"474 277 LINE SMOOTH",
"534 277 OFFCURVE",
"564 258 OFFCURVE",
"556 212 CURVE SMOOTH",
"550 177 OFFCURVE",
"529 159 OFFCURVE",
"497 159 CURVE SMOOTH",
"459 159 OFFCURVE",
"438 187 OFFCURVE",
"443 226 CURVE",
"267 182 LINE",
"272 61 OFFCURVE",
"361 -11 OFFCURVE",
"500 -11 CURVE SMOOTH",
"650 -11 OFFCURVE",
"729 69 OFFCURVE",
"747 173 CURVE SMOOTH",
"766 283 OFFCURVE",
"714 353 OFFCURVE",
"629 378 CURVE",
"623 353 LINE",
"714 376 OFFCURVE",
"765 428 OFFCURVE",
"778 498 CURVE SMOOTH",
"802 631 OFFCURVE",
"690 720 OFFCURVE",
"508 720 CURVE SMOOTH"
);
}
);
};
layerId = "A0850C2E-74F0-4B2E-AE90-CE9FC07F2CBD";
paths = (
{
closed = 1;
nodes = (
"265 720 OFFCURVE",
"122 606 OFFCURVE",
"82 379 CURVE SMOOTH",
"15 0 LINE",
"215 0 LINE",
"284 390 LINE SMOOTH",
"303 500 OFFCURVE",
"364 553 OFFCURVE",
"478 553 CURVE SMOOTH",
"544 553 OFFCURVE",
"579 535 OFFCURVE",
"579 501 CURVE SMOOTH",
"579 459 OFFCURVE",
"549 441 OFFCURVE",
"476 441 CURVE SMOOTH",
"417 441 LINE",
"388 277 LINE",
"474 277 LINE SMOOTH",
"530 277 OFFCURVE",
"557 261 OFFCURVE",
"557 226 CURVE SMOOTH",
"557 185 OFFCURVE",
"534 159 OFFCURVE",
"497 159 CURVE SMOOTH",
"455 159 OFFCURVE",
"442 185 OFFCURVE",
"442 226 CURVE",
"267 182 LINE",
"272 60 OFFCURVE",
"360 -11 OFFCURVE",
"498 -11 CURVE SMOOTH",
"653 -11 OFFCURVE",
"751 78 OFFCURVE",
"751 217 CURVE SMOOTH",
"751 296 OFFCURVE",
"708 354 OFFCURVE",
"629 378 CURVE",
"623 353 LINE",
"724 378 OFFCURVE",
"781 443 OFFCURVE",
"781 533 CURVE SMOOTH",
"781 646 OFFCURVE",
"673 720 OFFCURVE",
"508 720 CURVE SMOOTH"
);
}
);
width = 772;
}
);
leftKerningGroup = H;
rightKerningGroup = B;
unicode = 1E9E;
},
{
glyphname = Schwa;
lastChange = "2019-05-31 12:22:43 +0000";
layers = (
{
background = {
paths = (
{
closed = 1;
nodes = (
"1233 720 OFFCURVE",
"1125 671 OFFCURVE",
"1047 576 CURVE",
"1101 528 LINE",
"1166 607 OFFCURVE",
"1246 644 OFFCURVE",
"1342 644 CURVE SMOOTH",
"1488 644 OFFCURVE",
"1568 550 OFFCURVE",
"1533 368 CURVE SMOOTH",
"1529 347 LINE SMOOTH",
"1492 154 OFFCURVE",
"1375 65 OFFCURVE",
"1237 65 CURVE SMOOTH",
"1081 65 OFFCURVE",
"1016 169 OFFCURVE",
"1058 330 CURVE",
"1036 313 LINE",
"1565 313 LINE",
"1578 382 LINE",
"983 382 LINE",
"913 146 OFFCURVE",
"1005 -8 OFFCURVE",
"1222 -8 CURVE SMOOTH",
"1413 -8 OFFCURVE",
"1573 126 OFFCURVE",
"1616 366 CURVE SMOOTH",
"1656 587 OFFCURVE",
"1553 720 OFFCURVE",
"1355 720 CURVE SMOOTH"
);
},
{
closed = 1;
nodes = (
"561 -8 OFFCURVE",
"724 205 OFFCURVE",
"724 443 CURVE SMOOTH",
"724 612 OFFCURVE",
"623 720 OFFCURVE",
"456 720 CURVE SMOOTH",
"219 720 OFFCURVE",
"50 503 OFFCURVE",
"50 261 CURVE SMOOTH",
"50 91 OFFCURVE",
"150 -8 OFFCURVE",
"328 -8 CURVE SMOOTH"
);
},
{
closed = 1;
nodes = (
"202 68 OFFCURVE",
"134 138 OFFCURVE",
"134 265 CURVE SMOOTH",
"134 461 OFFCURVE",
"260 644 OFFCURVE",
"453 644 CURVE SMOOTH",
"573 644 OFFCURVE",
"640 569 OFFCURVE",
"640 443 CURVE SMOOTH",
"640 251 OFFCURVE",
"521 68 OFFCURVE",
"332 68 CURVE SMOOTH"
);
}
);
};
layerId = "A3B50665-EA37-4AC6-885C-1233CA61B6BD";
paths = (
{
closed = 1;
nodes = (
"328 720 OFFCURVE",
"217 671 OFFCURVE",
"147 576 CURVE",
"201 528 LINE",
"266 607 OFFCURVE",
"346 644 OFFCURVE",
"442 644 CURVE SMOOTH",
"588 644 OFFCURVE",
"665 551 OFFCURVE",
"633 368 CURVE SMOOTH",
"629 347 LINE SMOOTH",
"595 154 OFFCURVE",
"475 65 OFFCURVE",
"337 65 CURVE SMOOTH",
"181 65 OFFCURVE",
"112 168 OFFCURVE",
"154 330 CURVE",
"136 313 LINE",
"665 313 LINE",
"678 382 LINE",
"83 382 LINE",
"13 146 OFFCURVE",
"114 -8 OFFCURVE",
"328 -8 CURVE SMOOTH",
"561 -8 OFFCURVE",
"724 205 OFFCURVE",
"724 443 CURVE SMOOTH",
"724 612 OFFCURVE",
"618 720 OFFCURVE",
"450 720 CURVE SMOOTH"
);
}
);
width = 754;
},
{
background = {
paths = (
{
closed = 1;
nodes = (
"1127 720 OFFCURVE",
"1006 661 OFFCURVE",
"925 571 CURVE",
"1025 481 LINE",
"1083 547 OFFCURVE",
"1159 581 OFFCURVE",
"1240 581 CURVE SMOOTH",
"1365 581 OFFCURVE",
"1425 505 OFFCURVE",
"1403 380 CURVE SMOOTH",
"1397 346 LINE SMOOTH",
"1373 210 OFFCURVE",
"1289 127 OFFCURVE",
"1168 127 CURVE SMOOTH",
"1044 127 OFFCURVE",
"997 186 OFFCURVE",
"1017 301 CURVE",
"984 279 LINE",
"1454 279 LINE",
"1476 406 LINE",
"871 406 LINE",
"792 158 OFFCURVE",
"899 -10 OFFCURVE",
"1138 -10 CURVE SMOOTH",
"1346 -10 OFFCURVE",
"1521 145 OFFCURVE",
"1560 364 CURVE SMOOTH",
"1599 584 OFFCURVE",
"1487 720 OFFCURVE",
"1263 720 CURVE SMOOTH"
);
},
{
closed = 1;
nodes = (
"581 -10 OFFCURVE",
"764 187 OFFCURVE",
"764 436 CURVE SMOOTH",
"764 608 OFFCURVE",
"651 720 OFFCURVE",
"475 720 CURVE SMOOTH",
"231 720 OFFCURVE",
"45 526 OFFCURVE",
"45 271 CURVE SMOOTH",
"45 96 OFFCURVE",
"167 -10 OFFCURVE",
"349 -10 CURVE SMOOTH"
);
},
{
closed = 1;
nodes = (
"263 129 OFFCURVE",
"204 188 OFFCURVE",
"204 289 CURVE SMOOTH",
"204 455 OFFCURVE",
"312 582 OFFCURVE",
"453 582 CURVE SMOOTH",
"548 582 OFFCURVE",
"605 520 OFFCURVE",
"605 420 CURVE SMOOTH",
"605 255 OFFCURVE",
"502 129 OFFCURVE",
"366 129 CURVE SMOOTH"
);
}
);
};
layerId = "014D4A40-7C7F-4023-B30E-1F55CE5EA091";
paths = (
{
closed = 1;
nodes = (
"323 720 OFFCURVE",
"202 663 OFFCURVE",
"129 574 CURVE",
"229 481 LINE",
"287 547 OFFCURVE",
"363 580 OFFCURVE",
"442 581 CURVE SMOOTH",
"548 582 OFFCURVE",
"627 518 OFFCURVE",
"603 380 CURVE SMOOTH",
"597 346 LINE SMOOTH",
"573 210 OFFCURVE",
"489 127 OFFCURVE",
"370 127 CURVE SMOOTH",
"248 127 OFFCURVE",
"202 186 OFFCURVE",
"217 301 CURVE",
"189 279 LINE",
"654 279 LINE",
"676 406 LINE",
"66 406 LINE",
"-2 160 OFFCURVE",
"114 -10 OFFCURVE",
"351 -10 CURVE SMOOTH",
"581 -10 OFFCURVE",
"764 187 OFFCURVE",
"764 436 CURVE SMOOTH",
"764 608 OFFCURVE",
"651 720 OFFCURVE",
"465 720 CURVE SMOOTH"
);
}
);
width = 777;
},
{
background = {
paths = (
{
closed = 1;
nodes = (
"1140 720 OFFCURVE",
"1036 671 OFFCURVE",
"964 580 CURVE",
"987 561 LINE",
"1052 643 OFFCURVE",
"1139 689 OFFCURVE",
"1246 689 CURVE SMOOTH",
"1407 689 OFFCURVE",
"1476 587 OFFCURVE",
"1455 359 CURVE SMOOTH",
"1454 348 LINE SMOOTH",
"1435 141 OFFCURVE",
"1294 21 OFFCURVE",
"1123 21 CURVE SMOOTH",
"937 21 OFFCURVE",
"866 157 OFFCURVE",
"920 351 CURVE",
"906 337 LINE",
"1477 337 LINE",
"1481 365 LINE",
"893 365 LINE",
"830 137 OFFCURVE",
"912 -7 OFFCURVE",
"1117 -7 CURVE SMOOTH",
"1310 -7 OFFCURVE",
"1447 131 OFFCURVE",
"1488 367 CURVE SMOOTH",
"1527 589 OFFCURVE",
"1431 720 OFFCURVE",
"1252 720 CURVE SMOOTH"
);
},
{
closed = 1;
nodes = (
"545 -7 OFFCURVE",
"696 208 OFFCURVE",
"696 448 CURVE SMOOTH",
"696 614 OFFCURVE",
"605 720 OFFCURVE",
"451 720 CURVE SMOOTH",
"217 720 OFFCURVE",
"57 500 OFFCURVE",
"57 259 CURVE SMOOTH",
"57 93 OFFCURVE",
"150 -7 OFFCURVE",
"313 -7 CURVE SMOOTH"
);
},
{
closed = 1;
nodes = (
"169 24 OFFCURVE",
"89 108 OFFCURVE",
"89 257 CURVE SMOOTH",
"89 478 OFFCURVE",
"230 689 OFFCURVE",
"447 689 CURVE SMOOTH",
"586 689 OFFCURVE",
"664 600 OFFCURVE",
"664 451 CURVE SMOOTH",
"664 231 OFFCURVE",
"532 24 OFFCURVE",
"318 24 CURVE SMOOTH"
);
}
);
};
layerId = "7F092816-09A2-4631-A7F8-AD4571964C60";
paths = (
{
closed = 1;
nodes = (
"339 720 OFFCURVE",
"235 674 OFFCURVE",
"163 580 CURVE",
"187 561 LINE",
"252 643 OFFCURVE",
"339 689 OFFCURVE",
"446 689 CURVE SMOOTH",
"607 689 OFFCURVE",
"694 568 OFFCURVE",
"656 359 CURVE SMOOTH",
"654 348 LINE SMOOTH",
"620 163 OFFCURVE",
"489 24 OFFCURVE",
"318 24 CURVE SMOOTH",
"133 24 OFFCURVE",
"72 159 OFFCURVE",
"123 351 CURVE",
"107 337 LINE",
"667 337 LINE",
"671 365 LINE",
"94 365 LINE",
"31 137 OFFCURVE",
"119 -7 OFFCURVE",
"313 -7 CURVE SMOOTH",
"545 -7 OFFCURVE",
"696 208 OFFCURVE",
"696 448 CURVE SMOOTH",
"696 614 OFFCURVE",
"605 720 OFFCURVE",
"451 720 CURVE SMOOTH"
);
}
);
width = 739;
},
{
background = {
paths = (
{
closed = 1;
nodes = (
"1325 720 OFFCURVE",
"1189 655 OFFCURVE",
"1106 568 CURVE",
"1233 453 LINE",
"1287 511 OFFCURVE",
"1360 544 OFFCURVE",
"1442 544 CURVE SMOOTH",
"1545 544 OFFCURVE",
"1596 478 OFFCURVE",
"1580 387 CURVE SMOOTH",
"1572 342 LINE SMOOTH",
"1554 240 OFFCURVE",
"1490 156 OFFCURVE",
"1375 156 CURVE SMOOTH",
"1274 156 OFFCURVE",
"1239 203 OFFCURVE",
"1247 284 CURVE",
"1206 262 LINE",
"1642 262 LINE",
"1669 419 LINE",
"1057 419 LINE",
"978 159 OFFCURVE",
"1092 -11 OFFCURVE",
"1345 -11 CURVE SMOOTH",
"1561 -11 OFFCURVE",
"1743 156 OFFCURVE",
"1779 363 CURVE SMOOTH",
"1817 582 OFFCURVE",
"1701 720 OFFCURVE",
"1471 720 CURVE SMOOTH"
);
},
{
closed = 1;
nodes = (
"601 -10 OFFCURVE",
"787 182 OFFCURVE",
"787 431 CURVE SMOOTH",
"787 608 OFFCURVE",
"670 720 OFFCURVE",
"487 720 CURVE SMOOTH",
"232 720 OFFCURVE",
"43 530 OFFCURVE",
"43 275 CURVE SMOOTH",
"43 97 OFFCURVE",
"163 -10 OFFCURVE",
"360 -10 CURVE SMOOTH"
);
},
{
closed = 1;
nodes = (
"297 165 OFFCURVE",
"246 217 OFFCURVE",
"246 303 CURVE SMOOTH",
"246 440 OFFCURVE",
"336 545 OFFCURVE",
"454 545 CURVE SMOOTH",
"535 545 OFFCURVE",
"584 493 OFFCURVE",
"584 407 CURVE SMOOTH",
"584 269 OFFCURVE",
"498 165 OFFCURVE",
"383 165 CURVE SMOOTH"
);
}
);
};
layerId = "A0850C2E-74F0-4B2E-AE90-CE9FC07F2CBD";
paths = (
{
closed = 1;
nodes = (
"314 720 OFFCURVE",
"178 655 OFFCURVE",
"105 568 CURVE",
"232 453 LINE",
"286 511 OFFCURVE",
"354 544 OFFCURVE",
"435 544 CURVE SMOOTH",
"540 544 OFFCURVE",
"596 478 OFFCURVE",
"580 387 CURVE SMOOTH",
"572 342 LINE SMOOTH",
"552 226 OFFCURVE",
"481 156 OFFCURVE",
"381 156 CURVE SMOOTH",
"286 156 OFFCURVE",
"238 203 OFFCURVE",
"242 284 CURVE",
"205 262 LINE",
"642 262 LINE",
"669 419 LINE",
"60 419 LINE",
"-16 168 OFFCURVE",
"116 -10 OFFCURVE",
"364 -10 CURVE SMOOTH",
"601 -10 OFFCURVE",
"787 182 OFFCURVE",
"787 431 CURVE SMOOTH",
"787 608 OFFCURVE",
"670 720 OFFCURVE",
"461 720 CURVE SMOOTH"
);
}
);
width = 791;
}
);
leftKerningGroup = O;
rightKerningGroup = O;
unicode = 018F;
},
{
glyphname = T;
lastChange = "2019-06-02 21:20:01 +0000";
layers = (
{
anchors = (
{
name = bottom;
position = "{230, 0}";
},
{
name = stroke;
position = "{294, 360}";
},
{
name = top;
position = "{356, 710}";
}
);
background = {
anchors = (
{
name = bottom;
position = "{275, 0}";
},
{
name = stroke;
position = "{275, 360}";
},
{
name = top;
position = "{275, 710}";
}
);
paths = (
{
closed = 1;
nodes = (
"1 710 LINE",
"1 639 LINE",
"233 639 LINE",
"233 0 LINE",
"316 0 LINE",
"316 639 LINE",
"543 639 LINE",
"553 710 LINE"
);
}
);
};
layerId = "A3B50665-EA37-4AC6-885C-1233CA61B6BD";
paths = (
{
closed = 1;
nodes = (
"82 710 LINE",
"69 638 LINE",
"301 638 LINE",
"188 0 LINE",
"271 0 LINE",
"384 638 LINE",
"611 638 LINE",
"631 710 LINE"
);
}
);
width = 549;
},
{
anchors = (
{
name = bottom;
position = "{249, 0}";
},
{
name = stroke;
position = "{312, 360}";
},
{
name = top;
position = "{374, 710}";
}
);
background = {
anchors = (
{
name = bottom;
position = "{294, 0}";
},
{
name = stroke;
position = "{294, 360}";
},
{
name = top;
position = "{294, 710}";
}
);
paths = (
{
closed = 1;
nodes = (
"-10 710 LINE",
"-10 576 LINE",
"216 576 LINE",
"216 0 LINE",
"372 0 LINE",
"372 576 LINE",
"588 576 LINE",
"608 710 LINE"
);
}
);
};
layerId = "014D4A40-7C7F-4023-B30E-1F55CE5EA091";
paths = (
{
closed = 1;
nodes = (
"70 710 LINE",
"46 574 LINE",
"272 574 LINE",
"171 0 LINE",
"327 0 LINE",
"428 574 LINE",
"644 574 LINE",
"688 710 LINE"
);
}
);
width = 588;
},
{
anchors = (
{
name = bottom;
position = "{217, 0}";
},
{
name = stroke;
position = "{281, 360}";
},
{
name = top;
position = "{343, 710}";
}
);
background = {
anchors = (
{
name = bottom;
position = "{261, 0}";
},
{
name = stroke;
position = "{261, 360}";
},
{
name = top;
position = "{261, 710}";
}
);
paths = (
{
closed = 1;
nodes = (
"9 710 LINE",
"9 684 LINE",
"245 684 LINE",
"245 0 LINE",
"276 0 LINE",
"276 684 LINE",
"511 684 LINE",
"509 710 LINE"
);
}
);
};
layerId = "7F092816-09A2-4631-A7F8-AD4571964C60";
paths = (
{
closed = 1;
nodes = (
"91 710 LINE",
"86 684 LINE",
"322 684 LINE",
"201 0 LINE",
"232 0 LINE",
"353 684 LINE",
"584 684 LINE",
"591 710 LINE"
);
}
);
width = 521;
},
{
anchors = (
{
name = bottom;
position = "{260, 0}";
},
{
name = stroke;
position = "{324, 360}";
},
{
name = top;
position = "{386, 710}";
}
);
background = {
anchors = (
{
name = bottom;
position = "{305, 0}";
},
{
name = stroke;
position = "{305, 360}";
},
{
name = top;
position = "{305, 710}";
}
);
paths = (
{
closed = 1;
nodes = (
"-16 710 LINE",
"-16 536 LINE",
"206 536 LINE",
"206 0 LINE",
"405 0 LINE",
"405 536 LINE",
"614 536 LINE",
"643 710 LINE"
);
}
);
};
layerId = "A0850C2E-74F0-4B2E-AE90-CE9FC07F2CBD";
paths = (
{
closed = 1;
nodes = (
"64 710 LINE",
"33 536 LINE",
"255 536 LINE",
"160 0 LINE",
"360 0 LINE",
"455 536 LINE",
"663 536 LINE",
"723 710 LINE"
);
}
);
width = 611.04545;
}
);
leftKerningGroup = T;
rightKerningGroup = T;
unicode = 0054;
},
{
glyphname = U;
lastChange = "2019-05-31 12:22:43 +0000";
layers = (
{
anchors = (
{
name = bottom;
position = "{319, 0}";
},
{
name = ogonek;
position = "{407, 0}";
},
{
name = top;
position = "{444, 710}";
},
{
name = topright;
position = "{746, 710}";
}
);
background = {
anchors = (
{
name = bottom;
position = "{380, 0}";
},
{
name = ogonek;
position = "{469, 0}";
},
{
name = top;
position = "{380, 710}";
},
{
name = topright;
position = "{683, 710}";
}
);
paths = (
{
closed = 1;
nodes = (
"582 342 LINE SMOOTH",
"583 155 OFFCURVE",
"521 68 OFFCURVE",
"376 68 CURVE SMOOTH",
"239 68 OFFCURVE",
"180 140 OFFCURVE",
"180 307 CURVE SMOOTH",
"180 710 LINE",
"96 710 LINE",
"96 303 LINE SMOOTH",
"96 88 OFFCURVE",
"188 -8 OFFCURVE",
"376 -8 CURVE SMOOTH",
"567 -8 OFFCURVE",
"665 115 OFFCURVE",
"664 340 CURVE SMOOTH",
"663 710 LINE",
"581 710 LINE"
);
}
);
};
guideLines = (
{
angle = 90;
position = "{758, 356}";
},
{
angle = 90;
position = "{821, 356}";
}
);
layerId = "A3B50665-EA37-4AC6-885C-1233CA61B6BD";
paths = (
{
closed = 1;
nodes = (
"580 342 LINE SMOOTH",
"546 145 OFFCURVE",
"477 68 OFFCURVE",
"333 68 CURVE SMOOTH",
"196 68 OFFCURVE",
"144 146 OFFCURVE",
"173 307 CURVE SMOOTH",
"244 710 LINE",
"160 710 LINE",
"88 303 LINE SMOOTH",
"53 102 OFFCURVE",
"138 -8 OFFCURVE",
"330 -8 CURVE SMOOTH",
"520 -8 OFFCURVE",
"621 98 OFFCURVE",
"662 340 CURVE SMOOTH",
"726 710 LINE",
"644 710 LINE"
);
}
);
width = 724;
},
{
anchors = (
{
name = bottom;
position = "{333, 0}";
},
{
name = ogonek;
position = "{435, 0}";
},
{
name = top;
position = "{458, 710}";
},
{
name = topright;
position = "{741, 710}";
}
);
background = {
anchors = (
{
name = bottom;
position = "{333, 0}";
},
{
name = ogonek;
position = "{435, 0}";
},
{
name = top;
position = "{458, 710}";
},
{
name = topright;
position = "{741, 710}";
}
);
paths = (
{
closed = 1;
nodes = (
"552 336 LINE SMOOTH",
"527 194 OFFCURVE",
"460 129 OFFCURVE",
"359 129 CURVE SMOOTH",
"256 129 OFFCURVE",
"209 183 OFFCURVE",
"231 313 CURVE SMOOTH",
"301 710 LINE",
"145 710 LINE",
"73 300 LINE SMOOTH",
"37 94 OFFCURVE",
"128 -10 OFFCURVE",
"338 -10 CURVE SMOOTH",
"527 -10 OFFCURVE",
"669 123 OFFCURVE",
"704 327 CURVE SMOOTH",
"769 710 LINE",
"615 710 LINE"
);
}
);
};
layerId = "014D4A40-7C7F-4023-B30E-1F55CE5EA091";
paths = (
{
closed = 1;
nodes = (
"552 336 LINE SMOOTH",
"528 194 OFFCURVE",
"468 129 OFFCURVE",
"362 129 CURVE SMOOTH",
"254 129 OFFCURVE",
"210 191 OFFCURVE",
"231 313 CURVE SMOOTH",
"301 710 LINE",
"145 710 LINE",
"73 300 LINE SMOOTH",
"40 108 OFFCURVE",
"144 -10 OFFCURVE",
"347 -10 CURVE SMOOTH",
"542 -10 OFFCURVE",
"666 106 OFFCURVE",
"704 325 CURVE SMOOTH",
"770 710 LINE",
"616 710 LINE"
);
}
);
width = 756;
},
{
anchors = (
{
name = bottom;
position = "{309, 0}";
},
{
name = ogonek;
position = "{380, 0}";
},
{
name = top;
position = "{434, 710}";
},
{
name = topright;
position = "{750, 710}";
}
);
background = {
paths = (
{
closed = 1;
nodes = (
"601 346 LINE SMOOTH",
"563 127 OFFCURVE",
"479 24 OFFCURVE",
"302 24 CURVE SMOOTH",
"146 24 OFFCURVE",
"96 105 OFFCURVE",
"131 306 CURVE SMOOTH",
"202 710 LINE",
"169 710 LINE",
"98 305 LINE SMOOTH",
"60 89 OFFCURVE",
"121 -7 OFFCURVE",
"297 -7 CURVE SMOOTH",
"489 -7 OFFCURVE",
"591 109 OFFCURVE",
"632 347 CURVE SMOOTH",
"695 710 LINE",
"664 710 LINE"
);
}
);
};
layerId = "7F092816-09A2-4631-A7F8-AD4571964C60";
paths = (
{
closed = 1;
nodes = (
"601 346 LINE SMOOTH",
"561 115 OFFCURVE",
"477 24 OFFCURVE",
"304 24 CURVE SMOOTH",
"153 24 OFFCURVE",
"97 115 OFFCURVE",
"131 306 CURVE SMOOTH",
"202 710 LINE",
"169 710 LINE",
"98 305 LINE SMOOTH",
"62 100 OFFCURVE",
"133 -7 OFFCURVE",
"304 -7 CURVE SMOOTH",
"492 -7 OFFCURVE",
"589 97 OFFCURVE",
"632 347 CURVE SMOOTH",
"695 710 LINE",
"664 710 LINE"
);
}
);
width = 701;
},
{
anchors = (
{
name = bottom;
position = "{342, 0}";
},
{
name = ogonek;
position = "{452, 0}";
},
{
name = top;
position = "{468, 710}";
},
{
name = topright;
position = "{740, 710}";
}
);
background = {
paths = (
{
closed = 1;
nodes = (
"534 328 LINE SMOOTH",
"514 212 OFFCURVE",
"458 165 OFFCURVE",
"375 165 CURVE SMOOTH",
"296 165 OFFCURVE",
"249 208 OFFCURVE",
"268 316 CURVE SMOOTH",
"338 710 LINE",
"137 710 LINE",
"66 306 LINE SMOOTH",
"29 97 OFFCURVE",
"129 -11 OFFCURVE",
"343 -11 CURVE SMOOTH",
"539 -11 OFFCURVE",
"694 125 OFFCURVE",
"728 321 CURVE SMOOTH",
"795 710 LINE",
"599 710 LINE"
);
}
);
};
layerId = "A0850C2E-74F0-4B2E-AE90-CE9FC07F2CBD";
paths = (
{
closed = 1;
nodes = (
"534 328 LINE SMOOTH",
"515 216 OFFCURVE",
"467 165 OFFCURVE",
"380 165 CURVE SMOOTH",
"288 165 OFFCURVE",
"250 216 OFFCURVE",
"268 316 CURVE SMOOTH",
"338 710 LINE",
"137 710 LINE",
"66 306 LINE SMOOTH",
"32 112 OFFCURVE",
"144 -11 OFFCURVE",
"353 -11 CURVE SMOOTH",
"559 -11 OFFCURVE",
"691 106 OFFCURVE",
"728 321 CURVE SMOOTH",
"795 710 LINE",
"599 710 LINE"
);
}
);
width = 774;
}
);
leftKerningGroup = U;
rightKerningGroup = U;
unicode = 0055;
},
{
glyphname = Uogonek;
lastChange = "2019-05-31 12:22:43 +0000";
layers = (
{
anchors = (
{
name = top;
position = "{444, 710}";
}
);
background = {
paths = (
{
closed = 1;
nodes = (
"580 342 LINE SMOOTH",
"546 145 OFFCURVE",
"477 68 OFFCURVE",
"333 68 CURVE SMOOTH",
"196 68 OFFCURVE",
"144 146 OFFCURVE",
"173 307 CURVE SMOOTH",
"244 710 LINE",
"160 710 LINE",
"88 303 LINE SMOOTH",
"53 102 OFFCURVE",
"138 -8 OFFCURVE",
"330 -8 CURVE SMOOTH",
"520 -8 OFFCURVE",
"621 98 OFFCURVE",
"662 340 CURVE SMOOTH",
"726 710 LINE",
"644 710 LINE"
);
},
{
closed = 1;
nodes = (
"349 -223 OFFCURVE",
"392 -203 OFFCURVE",
"417 -173 CURVE",
"394 -132 LINE",
"369 -158 OFFCURVE",
"347 -170 OFFCURVE",
"325 -170 CURVE SMOOTH",
"296 -170 OFFCURVE",
"280 -155 OFFCURVE",
"280 -131 CURVE SMOOTH",
"280 -82 OFFCURVE",
"327 -34 OFFCURVE",
"407 0 CURVE",
"363 22 LINE",
"274 -10 OFFCURVE",
"211 -76 OFFCURVE",
"211 -140 CURVE SMOOTH",
"211 -189 OFFCURVE",
"247 -223 OFFCURVE",
"310 -223 CURVE SMOOTH"
);
}
);
};
layerId = "A3B50665-EA37-4AC6-885C-1233CA61B6BD";
paths = (
{
closed = 1;
nodes = (
"580 342 LINE SMOOTH",
"546 145 OFFCURVE",
"477 68 OFFCURVE",
"333 68 CURVE SMOOTH",
"196 68 OFFCURVE",
"144 146 OFFCURVE",
"173 307 CURVE SMOOTH",
"244 710 LINE",
"160 710 LINE",
"88 303 LINE SMOOTH",
"52 102 OFFCURVE",
"138 -8 OFFCURVE",
"330 -8 CURVE SMOOTH",
"358 -8 LINE",
"335 10 LINE",
"261 -24 OFFCURVE",
"211 -83 OFFCURVE",
"211 -140 CURVE SMOOTH",
"211 -189 OFFCURVE",
"247 -223 OFFCURVE",
"310 -223 CURVE SMOOTH",
"349 -223 OFFCURVE",
"392 -203 OFFCURVE",
"417 -173 CURVE",
"394 -132 LINE",
"369 -158 OFFCURVE",
"347 -170 OFFCURVE",
"325 -170 CURVE SMOOTH",
"296 -170 OFFCURVE",
"280 -155 OFFCURVE",
"280 -131 CURVE SMOOTH",
"280 -82 OFFCURVE",
"328 -24 OFFCURVE",
"430 4 CURVE SMOOTH",
"556 38 OFFCURVE",
"629 144 OFFCURVE",
"662 340 CURVE SMOOTH",
"726 710 LINE",
"644 710 LINE"
);
}
);
width = 724;
},
{
anchors = (
{
name = top;
position = "{458, 710}";
}
);
background = {
paths = (
{
closed = 1;
nodes = (
"552 336 LINE SMOOTH",
"528 194 OFFCURVE",
"468 129 OFFCURVE",
"362 129 CURVE SMOOTH",
"254 129 OFFCURVE",
"210 191 OFFCURVE",
"231 313 CURVE SMOOTH",
"301 710 LINE",
"145 710 LINE",
"73 300 LINE SMOOTH",
"40 108 OFFCURVE",
"144 -10 OFFCURVE",
"347 -10 CURVE SMOOTH",
"542 -10 OFFCURVE",
"666 106 OFFCURVE",
"704 325 CURVE SMOOTH",
"770 710 LINE",
"616 710 LINE"
);
},
{
closed = 1;
nodes = (
"382 -223 OFFCURVE",
"432 -204 OFFCURVE",
"460 -173 CURVE",
"424 -103 LINE",
"405 -122 OFFCURVE",
"381 -134 OFFCURVE",
"363 -134 CURVE SMOOTH",
"338 -134 OFFCURVE",
"325 -123 OFFCURVE",
"325 -100 CURVE SMOOTH",
"325 -59 OFFCURVE",
"378 -24 OFFCURVE",
"435 0 CURVE",
"367 34 LINE",
"281 9 OFFCURVE",
"199 -48 OFFCURVE",
"199 -124 CURVE SMOOTH",
"199 -186 OFFCURVE",
"251 -223 OFFCURVE",
"331 -223 CURVE SMOOTH"
);
}
);
};
layerId = "014D4A40-7C7F-4023-B30E-1F55CE5EA091";
paths = (
{
closed = 1;
nodes = (
"552 336 LINE SMOOTH",
"528 194 OFFCURVE",
"468 129 OFFCURVE",
"362 129 CURVE SMOOTH",
"254 129 OFFCURVE",
"210 191 OFFCURVE",
"231 313 CURVE SMOOTH",
"301 710 LINE",
"145 710 LINE",
"73 300 LINE SMOOTH",
"39 108 OFFCURVE",
"144 -10 OFFCURVE",
"347 -10 CURVE SMOOTH",
"375 -10 LINE",
"309 12 LINE",
"247 -19 OFFCURVE",
"199 -65 OFFCURVE",
"199 -124 CURVE SMOOTH",
"199 -186 OFFCURVE",
"251 -223 OFFCURVE",
"331 -223 CURVE SMOOTH",
"382 -223 OFFCURVE",
"432 -204 OFFCURVE",
"460 -173 CURVE",
"424 -103 LINE",
"405 -122 OFFCURVE",
"381 -134 OFFCURVE",
"363 -134 CURVE SMOOTH",
"338 -134 OFFCURVE",
"325 -123 OFFCURVE",
"325 -100 CURVE SMOOTH",
"325 -60 OFFCURVE",
"375 -26 OFFCURVE",
"430 -10 CURVE SMOOTH",
"579 33 OFFCURVE",
"672 139 OFFCURVE",
"704 325 CURVE SMOOTH",
"770 710 LINE",
"616 710 LINE"
);
}
);
width = 756;
},
{
anchors = (
{
name = top;
position = "{434, 710}";
}
);
background = {
paths = (
{
closed = 1;
nodes = (
"601 346 LINE SMOOTH",
"561 115 OFFCURVE",
"477 24 OFFCURVE",
"304 24 CURVE SMOOTH",
"153 24 OFFCURVE",
"97 115 OFFCURVE",
"131 306 CURVE SMOOTH",
"202 710 LINE",
"169 710 LINE",
"98 305 LINE SMOOTH",
"62 100 OFFCURVE",
"133 -7 OFFCURVE",
"304 -7 CURVE SMOOTH",
"492 -7 OFFCURVE",
"589 97 OFFCURVE",
"632 347 CURVE SMOOTH",
"695 710 LINE",
"664 710 LINE"
);
},
{
closed = 1;
nodes = (
"323 -223 OFFCURVE",
"357 -203 OFFCURVE",
"379 -173 CURVE",
"365 -155 LINE",
"341 -184 OFFCURVE",
"315 -197 OFFCURVE",
"290 -197 CURVE SMOOTH",
"258 -197 OFFCURVE",
"240 -178 OFFCURVE",
"240 -149 CURVE SMOOTH",
"240 -94 OFFCURVE",
"298 -35 OFFCURVE",
"380 0 CURVE",
"355 13 LINE",
"285 -16 OFFCURVE",
"211 -83 OFFCURVE",
"211 -153 CURVE SMOOTH",
"211 -195 OFFCURVE",
"242 -223 OFFCURVE",
"289 -223 CURVE SMOOTH"
);
}
);
};
layerId = "7F092816-09A2-4631-A7F8-AD4571964C60";
paths = (
{
closed = 1;
nodes = (
"601 346 LINE SMOOTH",
"561 115 OFFCURVE",
"477 24 OFFCURVE",
"304 24 CURVE SMOOTH",
"153 24 OFFCURVE",
"97 115 OFFCURVE",
"131 306 CURVE SMOOTH",
"202 710 LINE",
"169 710 LINE",
"98 305 LINE SMOOTH",
"62 100 OFFCURVE",
"133 -7 OFFCURVE",
"304 -7 CURVE SMOOTH",
"343 -7 LINE",
"355 13 LINE",
"285 -16 OFFCURVE",
"211 -83 OFFCURVE",
"211 -153 CURVE SMOOTH",
"211 -195 OFFCURVE",
"242 -223 OFFCURVE",
"289 -223 CURVE SMOOTH",
"323 -223 OFFCURVE",
"357 -203 OFFCURVE",
"379 -173 CURVE",
"365 -155 LINE",
"341 -184 OFFCURVE",
"315 -197 OFFCURVE",
"290 -197 CURVE SMOOTH",
"258 -197 OFFCURVE",
"240 -178 OFFCURVE",
"240 -149 CURVE SMOOTH",
"240 -90 OFFCURVE",
"312 -19 OFFCURVE",
"399 4 CURVE SMOOTH",
"526 37 OFFCURVE",
"597 143 OFFCURVE",
"632 347 CURVE SMOOTH",
"695 710 LINE",
"664 710 LINE"
);
}
);
width = 701;
},
{
anchors = (
{
name = top;
position = "{468, 710}";
}
);
background = {
paths = (
{
closed = 1;
nodes = (
"534 328 LINE SMOOTH",
"515 216 OFFCURVE",
"467 165 OFFCURVE",
"380 165 CURVE SMOOTH",
"288 165 OFFCURVE",
"250 216 OFFCURVE",
"268 316 CURVE SMOOTH",
"338 710 LINE",
"137 710 LINE",
"66 306 LINE SMOOTH",
"32 112 OFFCURVE",
"144 -11 OFFCURVE",
"353 -11 CURVE SMOOTH",
"559 -11 OFFCURVE",
"691 106 OFFCURVE",
"728 321 CURVE SMOOTH",
"795 710 LINE",
"599 710 LINE"
);
},
{
closed = 1;
nodes = (
"403 -223 OFFCURVE",
"456 -205 OFFCURVE",
"487 -173 CURVE",
"442 -86 LINE",
"427 -101 OFFCURVE",
"402 -113 OFFCURVE",
"386 -113 CURVE SMOOTH",
"365 -113 OFFCURVE",
"353 -102 OFFCURVE",
"353 -85 CURVE SMOOTH",
"353 -62 OFFCURVE",
"371 -30 OFFCURVE",
"452 0 CURVE",
"366 41 LINE",
"284 18 OFFCURVE",
"194 -32 OFFCURVE",
"194 -116 CURVE SMOOTH",
"194 -181 OFFCURVE",
"256 -223 OFFCURVE",
"345 -223 CURVE SMOOTH"
);
}
);
};
layerId = "A0850C2E-74F0-4B2E-AE90-CE9FC07F2CBD";
paths = (
{
closed = 1;
nodes = (
"534 328 LINE SMOOTH",
"515 216 OFFCURVE",
"467 165 OFFCURVE",
"380 165 CURVE SMOOTH",
"288 165 OFFCURVE",
"250 216 OFFCURVE",
"268 316 CURVE SMOOTH",
"338 710 LINE",
"137 710 LINE",
"66 306 LINE SMOOTH",
"32 112 OFFCURVE",
"144 -11 OFFCURVE",
"353 -11 CURVE SMOOTH",
"382 -11 LINE",
"294 13 LINE",
"238 -15 OFFCURVE",
"194 -57 OFFCURVE",
"194 -116 CURVE SMOOTH",
"194 -181 OFFCURVE",
"256 -223 OFFCURVE",
"345 -223 CURVE SMOOTH",
"403 -223 OFFCURVE",
"456 -205 OFFCURVE",
"487 -173 CURVE",
"442 -86 LINE",
"427 -101 OFFCURVE",
"402 -113 OFFCURVE",
"386 -113 CURVE SMOOTH",
"365 -113 OFFCURVE",
"353 -102 OFFCURVE",
"353 -85 CURVE SMOOTH",
"353 -62 OFFCURVE",
"368 -30 OFFCURVE",
"468 0 CURVE SMOOTH",
"597 38 OFFCURVE",
"697 141 OFFCURVE",
"728 321 CURVE SMOOTH",
"795 710 LINE",
"599 710 LINE"
);
}
);
width = 774;
}
);
leftKerningGroup = U;
rightKerningGroup = U;
unicode = 0172;
},
{
glyphname = Uhorn;
lastChange = "2019-06-02 21:20:01 +0000";
layers = (
{
anchors = (
{
name = bottom;
position = "{363, 0}";
},
{
name = top;
position = "{444, 710}";
}
);
background = {
paths = (
{
closed = 1;
nodes = (
"580 342 LINE SMOOTH",
"546 145 OFFCURVE",
"477 68 OFFCURVE",
"333 68 CURVE SMOOTH",
"196 68 OFFCURVE",
"144 146 OFFCURVE",
"173 307 CURVE SMOOTH",
"244 710 LINE",
"160 710 LINE",
"88 303 LINE SMOOTH",
"53 102 OFFCURVE",
"138 -8 OFFCURVE",
"330 -8 CURVE SMOOTH",
"520 -8 OFFCURVE",
"621 98 OFFCURVE",
"662 340 CURVE SMOOTH",
"726 710 LINE",
"644 710 LINE"
);
}
);
};
layerId = "A3B50665-EA37-4AC6-885C-1233CA61B6BD";
paths = (
{
closed = 1;
nodes = (
"799 817 LINE",
"797 732 OFFCURVE",
"775 710 OFFCURVE",
"702 710 CURVE SMOOTH",
"644 710 LINE",
"580 342 LINE SMOOTH",
"546 145 OFFCURVE",
"478 68 OFFCURVE",
"333 68 CURVE SMOOTH",
"196 68 OFFCURVE",
"145 146 OFFCURVE",
"173 307 CURVE SMOOTH",
"244 710 LINE",
"160 710 LINE",
"88 303 LINE SMOOTH",
"52 102 OFFCURVE",
"138 -8 OFFCURVE",
"330 -8 CURVE SMOOTH",
"520 -8 OFFCURVE",
"620 98 OFFCURVE",
"662 340 CURVE SMOOTH",
"719 671 LINE",
"670 647 LINE",
"727 647 LINE SMOOTH",
"817 647 OFFCURVE",
"870 714 OFFCURVE",
"865 811 CURVE"
);
}
);
width = 724;
},
{
anchors = (
{
name = bottom;
position = "{333, 0}";
},
{
name = top;
position = "{458, 710}";
}
);
background = {
paths = (
{
closed = 1;
nodes = (
"552 336 LINE SMOOTH",
"528 194 OFFCURVE",
"468 129 OFFCURVE",
"362 129 CURVE SMOOTH",
"254 129 OFFCURVE",
"210 191 OFFCURVE",
"231 313 CURVE SMOOTH",
"301 710 LINE",
"145 710 LINE",
"73 300 LINE SMOOTH",
"40 108 OFFCURVE",
"144 -10 OFFCURVE",
"347 -10 CURVE SMOOTH",
"542 -10 OFFCURVE",
"666 106 OFFCURVE",
"704 325 CURVE SMOOTH",
"770 710 LINE",
"616 710 LINE"
);
}
);
};
layerId = "014D4A40-7C7F-4023-B30E-1F55CE5EA091";
paths = (
{
closed = 1;
nodes = (
"804 821 LINE",
"802 731 OFFCURVE",
"787 710 OFFCURVE",
"720 710 CURVE SMOOTH",
"616 710 LINE",
"552 336 LINE SMOOTH",
"528 194 OFFCURVE",
"468 129 OFFCURVE",
"362 129 CURVE SMOOTH",
"254 129 OFFCURVE",
"210 191 OFFCURVE",
"231 313 CURVE SMOOTH",
"301 710 LINE",
"145 710 LINE",
"73 300 LINE SMOOTH",
"39 108 OFFCURVE",
"144 -10 OFFCURVE",
"347 -10 CURVE SMOOTH",
"542 -10 OFFCURVE",
"666 106 OFFCURVE",
"704 325 CURVE SMOOTH",
"758 639 LINE",
"696 596 LINE",
"750 596 LINE SMOOTH",
"866 596 OFFCURVE",
"935 690 OFFCURVE",
"928 811 CURVE"
);
}
);
width = 756;
},
{
anchors = (
{
name = bottom;
position = "{352, 0}";
},
{
name = top;
position = "{434, 710}";
}
);
background = {
anchors = (
{
name = bottom;
position = "{352, 0}";
},
{
name = top;
position = "{352, 710}";
}
);
paths = (
{
closed = 1;
nodes = (
"601 346 LINE SMOOTH",
"561 115 OFFCURVE",
"477 24 OFFCURVE",
"304 24 CURVE SMOOTH",
"153 24 OFFCURVE",
"97 115 OFFCURVE",
"131 306 CURVE SMOOTH",
"202 710 LINE",
"169 710 LINE",
"98 305 LINE SMOOTH",
"62 100 OFFCURVE",
"133 -7 OFFCURVE",
"304 -7 CURVE SMOOTH",
"492 -7 OFFCURVE",
"589 97 OFFCURVE",
"632 347 CURVE SMOOTH",
"695 710 LINE",
"664 710 LINE"
);
}
);
};
layerId = "7F092816-09A2-4631-A7F8-AD4571964C60";
paths = (
{
closed = 1;
nodes = (
"796 814 LINE",
"794 733 OFFCURVE",
"766 710 OFFCURVE",
"689 710 CURVE SMOOTH",
"664 710 LINE",
"601 346 LINE SMOOTH",
"561 115 OFFCURVE",
"477 24 OFFCURVE",
"304 24 CURVE SMOOTH",
"153 24 OFFCURVE",
"97 115 OFFCURVE",
"131 306 CURVE SMOOTH",
"202 710 LINE",
"169 710 LINE",
"98 305 LINE SMOOTH",
"62 100 OFFCURVE",
"133 -7 OFFCURVE",
"304 -7 CURVE SMOOTH",
"492 -7 OFFCURVE",
"589 97 OFFCURVE",
"632 347 CURVE SMOOTH",
"692 694 LINE",
"666 683 LINE",
"701 683 LINE SMOOTH",
"783 683 OFFCURVE",
"824 731 OFFCURVE",
"821 811 CURVE"
);
}
);
width = 701;
},
{
anchors = (
{
name = bottom;
position = "{342, 0}";
},
{
name = top;
position = "{468, 710}";
}
);
background = {
anchors = (
{
name = bottom;
position = "{414, 0}";
},
{
name = top;
position = "{414, 710}";
}
);
paths = (
{
closed = 1;
nodes = (
"534 328 LINE SMOOTH",
"515 216 OFFCURVE",
"467 165 OFFCURVE",
"380 165 CURVE SMOOTH",
"288 165 OFFCURVE",
"250 216 OFFCURVE",
"268 316 CURVE SMOOTH",
"338 710 LINE",
"137 710 LINE",
"66 306 LINE SMOOTH",
"32 112 OFFCURVE",
"144 -11 OFFCURVE",
"353 -11 CURVE SMOOTH",
"559 -11 OFFCURVE",
"691 106 OFFCURVE",
"728 321 CURVE SMOOTH",
"795 710 LINE",
"599 710 LINE"
);
}
);
};
layerId = "A0850C2E-74F0-4B2E-AE90-CE9FC07F2CBD";
paths = (
{
closed = 1;
nodes = (
"808 823 LINE",
"806 730 OFFCURVE",
"795 710 OFFCURVE",
"732 710 CURVE SMOOTH",
"599 710 LINE",
"534 328 LINE SMOOTH",
"515 216 OFFCURVE",
"467 165 OFFCURVE",
"380 165 CURVE SMOOTH",
"288 165 OFFCURVE",
"250 216 OFFCURVE",
"268 316 CURVE SMOOTH",
"338 710 LINE",
"137 710 LINE",
"66 306 LINE SMOOTH",
"32 112 OFFCURVE",
"144 -11 OFFCURVE",
"353 -11 CURVE SMOOTH",
"559 -11 OFFCURVE",
"691 106 OFFCURVE",
"728 321 CURVE SMOOTH",
"780 620 LINE",
"703 566 LINE",
"765 566 LINE SMOOTH",
"896 566 OFFCURVE",
"974 676 OFFCURVE",
"966 811 CURVE"
);
}
);
width = 774;
}
);
leftKerningGroup = U;
rightKerningGroup = Uhorn;
unicode = 01AF;
},
{
glyphname = V;
lastChange = "2019-06-02 21:20:01 +0000";
layers = (
{
anchors = (
{
name = bottom;
position = "{243, 0}";
},
{
name = top;
position = "{369, 710}";
}
);
background = {
anchors = (
{
name = bottom;
position = "{243, 0}";
},
{
name = top;
position = "{369, 710}";
}
);
paths = (
{
closed = 1;
nodes = (
"233 24 LINE",
"261 23 LINE",
"176 710 LINE",
"90 710 LINE",
"184 0 LINE",
"295 0 LINE",
"687 710 LINE",
"604 710 LINE"
);
}
);
};
layerId = "A3B50665-EA37-4AC6-885C-1233CA61B6BD";
paths = (
{
closed = 1;
nodes = (
"229 24 LINE",
"257 23 LINE",
"171 710 LINE",
"90 710 LINE",
"184 0 LINE",
"295 0 LINE",
"687 710 LINE",
"600 710 LINE"
);
}
);
width = 590;
},
{
anchors = (
{
name = bottom;
position = "{279, 0}";
},
{
name = top;
position = "{405, 710}";
}
);
background = {
anchors = (
{
name = bottom;
position = "{279, 0}";
},
{
name = top;
position = "{405, 710}";
}
);
paths = (
{
closed = 1;
nodes = (
"250 33 LINE",
"313 33 LINE",
"239 710 LINE",
"74 710 LINE",
"160 0 LINE",
"379 0 LINE",
"759 710 LINE",
"604 710 LINE"
);
}
);
};
guideLines = (
{
angle = 68.7799;
position = "{363, 235}";
}
);
layerId = "014D4A40-7C7F-4023-B30E-1F55CE5EA091";
paths = (
{
closed = 1;
nodes = (
"244 33 LINE",
"307 33 LINE",
"232 710 LINE",
"74 710 LINE",
"160 0 LINE",
"379 0 LINE",
"759 710 LINE",
"598 710 LINE"
);
}
);
width = 649;
},
{
anchors = (
{
name = bottom;
position = "{218, 0}";
},
{
name = top;
position = "{344, 710}";
}
);
background = {
anchors = (
{
name = bottom;
position = "{218, 0}";
},
{
name = top;
position = "{344, 710}";
}
);
paths = (
{
closed = 1;
nodes = (
"218 18 LINE",
"227 16 LINE",
"134 710 LINE",
"102 710 LINE",
"201 0 LINE",
"235 0 LINE",
"636 710 LINE",
"605 710 LINE"
);
}
);
};
layerId = "7F092816-09A2-4631-A7F8-AD4571964C60";
paths = (
{
closed = 1;
nodes = (
"216 18 LINE",
"225 16 LINE",
"131 710 LINE",
"102 710 LINE",
"201 0 LINE",
"235 0 LINE",
"636 710 LINE",
"603 710 LINE"
);
}
);
width = 548;
},
{
anchors = (
{
name = bottom;
position = "{301, 0}";
},
{
name = top;
position = "{427, 710}";
}
);
background = {
anchors = (
{
name = bottom;
position = "{301, 0}";
},
{
name = top;
position = "{427, 710}";
}
);
paths = (
{
closed = 1;
nodes = (
"257 38 LINE",
"344 39 LINE",
"277 710 LINE",
"65 710 LINE",
"146 0 LINE",
"429 0 LINE",
"802 710 LINE",
"602 710 LINE"
);
}
);
};
layerId = "A0850C2E-74F0-4B2E-AE90-CE9FC07F2CBD";
paths = (
{
closed = 1;
nodes = (
"249 38 LINE",
"336 39 LINE",
"268 710 LINE",
"65 710 LINE",
"146 0 LINE",
"429 0 LINE",
"802 710 LINE",
"594 710 LINE"
);
}
);
width = 683.86364;
}
);
leftKerningGroup = V;
rightKerningGroup = V;
unicode = 0056;
},
{
glyphname = W;
lastChange = "2019-06-02 21:20:01 +0000";
layers = (
{
anchors = (
{
name = bottom;
position = "{419, 0}";
},
{
name = top;
position = "{563, 710}";
}
);
background = {
anchors = (
{
name = bottom;
position = "{419, 0}";
},
{
name = top;
position = "{563, 710}";
}
);
paths = (
{
closed = 1;
nodes = (
"629 59 LINE",
"651 59 LINE",
"608 710 LINE",
"518 710 LINE",
"215 59 LINE",
"236 59 LINE",
"196 710 LINE",
"113 710 LINE",
"163 0 LINE",
"259 0 LINE",
"558 640 LINE",
"534 640 LINE",
"578 0 LINE",
"674 0 LINE",
"1006 710 LINE",
"926 710 LINE"
);
}
);
};
layerId = "A3B50665-EA37-4AC6-885C-1233CA61B6BD";
paths = (
{
closed = 1;
nodes = (
"624 59 LINE",
"646 59 LINE",
"602 710 LINE",
"513 710 LINE",
"210 59 LINE",
"232 59 LINE",
"191 710 LINE",
"113 710 LINE",
"163 0 LINE",
"259 0 LINE",
"558 640 LINE",
"534 640 LINE",
"578 0 LINE",
"674 0 LINE",
"1006 710 LINE",
"921 710 LINE"
);
}
);
width = 940;
},
{
anchors = (
{
name = bottom;
position = "{453, 0}";
},
{
name = top;
position = "{600, 710}";
}
);
background = {
anchors = (
{
name = bottom;
position = "{453, 0}";
},
{
name = top;
position = "{600, 710}";
}
);
paths = (
{
closed = 1;
nodes = (
"676 114 LINE",
"723 114 LINE",
"692 710 LINE",
"508 710 LINE",
"239 114 LINE",
"285 114 LINE",
"250 710 LINE",
"93 710 LINE",
"144 0 LINE",
"321 0 LINE",
"578 563 LINE",
"553 563 LINE",
"584 0 LINE",
"761 0 LINE",
"1092 710 LINE",
"945 710 LINE"
);
}
);
};
layerId = "014D4A40-7C7F-4023-B30E-1F55CE5EA091";
paths = (
{
closed = 1;
nodes = (
"668 114 LINE",
"715 114 LINE",
"683 710 LINE",
"500 710 LINE",
"230 114 LINE",
"278 114 LINE",
"242 710 LINE",
"93 710 LINE",
"144 0 LINE",
"321 0 LINE",
"578 563 LINE",
"553 563 LINE",
"584 0 LINE",
"761 0 LINE",
"1092 710 LINE",
"937 710 LINE"
);
}
);
width = 1007;
},
{
anchors = (
{
name = bottom;
position = "{395, 0}";
},
{
name = top;
position = "{537, 710}";
}
);
background = {
anchors = (
{
name = bottom;
position = "{395, 0}";
},
{
name = top;
position = "{537, 710}";
}
);
paths = (
{
closed = 1;
nodes = (
"596 20 LINE",
"600 20 LINE",
"548 710 LINE",
"525 710 LINE",
"198 20 LINE",
"203 20 LINE",
"159 710 LINE",
"128 710 LINE",
"177 0 LINE",
"215 0 LINE",
"534 672 LINE",
"524 672 LINE",
"574 0 LINE",
"612 0 LINE",
"945 710 LINE",
"914 710 LINE"
);
}
);
};
layerId = "7F092816-09A2-4631-A7F8-AD4571964C60";
paths = (
{
closed = 1;
nodes = (
"594 20 LINE",
"598 20 LINE",
"546 710 LINE",
"523 710 LINE",
"196 20 LINE",
"201 20 LINE",
"156 710 LINE",
"128 710 LINE",
"177 0 LINE",
"215 0 LINE",
"534 672 LINE",
"524 672 LINE",
"574 0 LINE",
"612 0 LINE",
"945 710 LINE",
"913 710 LINE"
);
}
);
width = 892;
},
{
anchors = (
{
name = bottom;
position = "{474, 0}";
},
{
name = top;
position = "{622, 710}";
}
);
background = {
anchors = (
{
name = bottom;
position = "{474, 0}";
},
{
name = top;
position = "{622, 710}";
}
);
paths = (
{
closed = 1;
nodes = (
"703 147 LINE",
"765 147 LINE",
"742 710 LINE",
"503 710 LINE",
"248 147 LINE",
"313 147 LINE",
"283 710 LINE",
"82 710 LINE",
"133 0 LINE",
"358 0 LINE",
"595 520 LINE",
"565 520 LINE",
"588 0 LINE",
"813 0 LINE",
"1144 710 LINE",
"957 710 LINE"
);
}
);
};
layerId = "A0850C2E-74F0-4B2E-AE90-CE9FC07F2CBD";
paths = (
{
closed = 1;
nodes = (
"693 147 LINE",
"756 147 LINE",
"732 710 LINE",
"494 710 LINE",
"239 147 LINE",
"304 147 LINE",
"273 710 LINE",
"82 710 LINE",
"133 0 LINE",
"358 0 LINE",
"595 520 LINE",
"565 520 LINE",
"588 0 LINE",
"813 0 LINE",
"1144 710 LINE",
"948 710 LINE"
);
}
);
width = 1046.59091;
}
);
leftKerningGroup = V;
rightKerningGroup = V;
unicode = 0057;
},
{
glyphname = X;
lastChange = "2019-06-02 21:20:01 +0000";
layers = (
{
anchors = (
{
name = bottom;
position = "{251, 0}";
},
{
name = top;
position = "{377, 710}";
}
);
background = {
anchors = (
{
name = bottom;
position = "{251, 0}";
},
{
name = top;
position = "{377, 710}";
}
);
paths = (
{
closed = 1;
nodes = (
"537 0 LINE",
"186 710 LINE",
"97 710 LINE",
"446 0 LINE"
);
},
{
closed = 1;
nodes = (
"653 710 LINE",
"560 710 LINE",
"-46 0 LINE",
"51 0 LINE"
);
}
);
};
layerId = "A3B50665-EA37-4AC6-885C-1233CA61B6BD";
paths = (
{
closed = 1;
nodes = (
"51 0 LINE",
"301 296 LINE",
"357 362 LINE",
"653 710 LINE",
"560 710 LINE",
"323 430 LINE",
"267 366 LINE",
"-46 0 LINE"
);
},
{
closed = 1;
nodes = (
"537 0 LINE",
"357 362 LINE",
"323 430 LINE",
"186 710 LINE",
"97 710 LINE",
"267 366 LINE",
"301 296 LINE",
"446 0 LINE"
);
}
);
width = 582;
},
{
anchors = (
{
name = bottom;
position = "{272, 0}";
},
{
name = top;
position = "{398, 710}";
}
);
background = {
anchors = (
{
name = bottom;
position = "{272, 0}";
},
{
name = top;
position = "{398, 710}";
}
);
paths = (
{
closed = 1;
nodes = (
"585 0 LINE",
"255 710 LINE",
"86 710 LINE",
"413 0 LINE"
);
},
{
closed = 1;
nodes = (
"701 710 LINE",
"529 710 LINE",
"-53 0 LINE",
"124 0 LINE"
);
}
);
};
layerId = "014D4A40-7C7F-4023-B30E-1F55CE5EA091";
paths = (
{
closed = 1;
nodes = (
"124 0 LINE",
"309 230 LINE",
"416 361 LINE",
"701 710 LINE",
"529 710 LINE",
"353 494 LINE",
"247 364 LINE",
"-53 0 LINE"
);
},
{
closed = 1;
nodes = (
"585 0 LINE",
"416 361 LINE",
"353 494 LINE",
"255 710 LINE",
"86 710 LINE",
"247 364 LINE",
"309 230 LINE",
"413 0 LINE"
);
}
);
width = 629;
},
{
anchors = (
{
name = bottom;
position = "{236, 0}";
},
{
name = top;
position = "{362, 710}";
}
);
background = {
anchors = (
{
name = bottom;
position = "{236, 0}";
},
{
name = top;
position = "{362, 710}";
}
);
paths = (
{
closed = 1;
nodes = (
"503 0 LINE",
"137 710 LINE",
"105 710 LINE",
"470 0 LINE"
);
},
{
closed = 1;
nodes = (
"619 710 LINE",
"582 710 LINE",
"-38 0 LINE",
"0 0 LINE"
);
}
);
};
layerId = "7F092816-09A2-4631-A7F8-AD4571964C60";
paths = (
{
closed = 1;
nodes = (
"0 0 LINE",
"296 340 LINE",
"316 363 LINE",
"619 710 LINE",
"582 710 LINE",
"302 389 LINE",
"282 366 LINE",
"-38 0 LINE"
);
},
{
closed = 1;
nodes = (
"503 0 LINE",
"316 363 LINE",
"302 389 LINE",
"137 710 LINE",
"105 710 LINE",
"282 366 LINE",
"296 340 LINE",
"470 0 LINE"
);
}
);
width = 549;
},
{
anchors = (
{
name = bottom;
position = "{285, 0}";
},
{
name = top;
position = "{411, 710}";
}
);
background = {
anchors = (
{
name = bottom;
position = "{285, 0}";
},
{
name = top;
position = "{411, 710}";
}
);
paths = (
{
closed = 1;
nodes = (
"614 0 LINE",
"296 710 LINE",
"80 710 LINE",
"394 0 LINE"
);
},
{
closed = 1;
nodes = (
"732 710 LINE",
"513 710 LINE",
"-56 0 LINE",
"167 0 LINE"
);
}
);
};
layerId = "A0850C2E-74F0-4B2E-AE90-CE9FC07F2CBD";
paths = (
{
closed = 1;
nodes = (
"167 0 LINE",
"313 188 LINE",
"452 360 LINE",
"732 710 LINE",
"513 710 LINE",
"374 534 LINE",
"236 361 LINE",
"-56 0 LINE"
);
},
{
closed = 1;
nodes = (
"614 0 LINE",
"452 360 LINE",
"374 534 LINE",
"296 710 LINE",
"80 710 LINE",
"236 361 LINE",
"313 188 LINE",
"394 0 LINE"
);
}
);
width = 656.77273;
}
);
leftKerningGroup = X;
rightKerningGroup = X;
unicode = 0058;
},
{
glyphname = Y;
lastChange = "2019-06-02 21:20:01 +0000";
layers = (
{
anchors = (
{
name = bottom;
position = "{232, 0}";
},
{
name = top;
position = "{359, 710}";
},
{
name = topleft;
position = "{83, 710}";
}
);
background = {
anchors = (
{
name = bottom;
position = "{232, 0}";
},
{
name = top;
position = "{359, 710}";
},
{
name = topleft;
position = "{83, 710}";
}
);
paths = (
{
closed = 1;
nodes = (
"567 710 LINE",
"284 368 LINE",
"315 371 LINE",
"151 710 LINE",
"58 710 LINE",
"265 282 LINE",
"255 365 LINE",
"190 0 LINE",
"273 0 LINE",
"338 369 LINE",
"301 286 LINE",
"654 710 LINE"
);
}
);
};
layerId = "A3B50665-EA37-4AC6-885C-1233CA61B6BD";
paths = (
{
closed = 1;
nodes = (
"563 710 LINE",
"278 368 LINE",
"311 371 LINE",
"147 710 LINE",
"58 710 LINE",
"266 282 LINE",
"255 368 LINE",
"190 0 LINE",
"273 0 LINE",
"338 369 LINE",
"301 286 LINE",
"654 710 LINE"
);
}
);
width = 552;
},
{
anchors = (
{
name = bottom;
position = "{258, 0}";
},
{
name = top;
position = "{386, 710}";
},
{
name = topleft;
position = "{98, 710}";
}
);
background = {
anchors = (
{
name = bottom;
position = "{258, 0}";
},
{
name = top;
position = "{386, 710}";
},
{
name = topleft;
position = "{98, 710}";
}
);
paths = (
{
closed = 1;
nodes = (
"544 710 LINE",
"313 412 LINE",
"362 413 LINE",
"228 710 LINE",
"53 710 LINE",
"253 274 LINE",
"243 357 LINE",
"180 0 LINE",
"336 0 LINE",
"400 361 LINE",
"361 278 LINE",
"707 710 LINE"
);
}
);
};
layerId = "014D4A40-7C7F-4023-B30E-1F55CE5EA091";
paths = (
{
closed = 1;
nodes = (
"535 710 LINE",
"302 412 LINE",
"354 413 LINE",
"220 710 LINE",
"53 710 LINE",
"255 274 LINE",
"243 357 LINE",
"180 0 LINE",
"336 0 LINE",
"400 361 LINE",
"361 278 LINE",
"707 710 LINE"
);
}
);
width = 605;
},
{
anchors = (
{
name = bottom;
position = "{214, 0}";
},
{
name = top;
position = "{340, 710}";
},
{
name = topleft;
position = "{73, 710}";
}
);
background = {
anchors = (
{
name = bottom;
position = "{214, 0}";
},
{
name = top;
position = "{340, 710}";
},
{
name = topleft;
position = "{73, 710}";
}
);
paths = (
{
closed = 1;
nodes = (
"583 710 LINE",
"270 346 LINE",
"283 341 LINE",
"97 710 LINE",
"62 710 LINE",
"274 288 LINE",
"257 339 LINE",
"197 0 LINE",
"228 0 LINE",
"288 339 LINE",
"258 292 LINE",
"617 710 LINE"
);
}
);
};
layerId = "7F092816-09A2-4631-A7F8-AD4571964C60";
paths = (
{
closed = 1;
nodes = (
"580 710 LINE",
"267 346 LINE",
"280 341 LINE",
"94 710 LINE",
"62 710 LINE",
"263 312 LINE",
"257 339 LINE",
"197 0 LINE",
"228 0 LINE",
"288 339 LINE",
"277 314 LINE",
"617 710 LINE"
);
}
);
width = 514;
},
{
anchors = (
{
name = bottom;
position = "{274, 0}";
},
{
name = top;
position = "{403, 710}";
},
{
name = topleft;
position = "{107, 710}";
}
);
background = {
anchors = (
{
name = bottom;
position = "{274, 0}";
},
{
name = top;
position = "{403, 710}";
},
{
name = topleft;
position = "{107, 710}";
}
);
paths = (
{
closed = 1;
nodes = (
"531 710 LINE",
"331 438 LINE",
"391 438 LINE",
"274 710 LINE",
"51 710 LINE",
"246 270 LINE",
"238 353 LINE",
"175 0 LINE",
"375 0 LINE",
"438 357 LINE",
"398 274 LINE",
"739 710 LINE"
);
}
);
};
layerId = "A0850C2E-74F0-4B2E-AE90-CE9FC07F2CBD";
paths = (
{
closed = 1;
nodes = (
"520 710 LINE",
"320 438 LINE",
"380 438 LINE",
"263 710 LINE",
"51 710 LINE",
"248 270 LINE",
"238 353 LINE",
"175 0 LINE",
"375 0 LINE",
"438 357 LINE",
"398 274 LINE",
"739 710 LINE"
);
}
);
width = 636.31818;
}
);
leftKerningGroup = Y;
rightKerningGroup = Y;
unicode = 0059;
},
{
glyphname = Z;
lastChange = "2019-06-02 21:20:01 +0000";
layers = (
{
anchors = (
{
name = bottom;
position = "{262, 0}";
},
{
name = center;
position = "{319, 355}";
},
{
name = top;
position = "{388, 710}";
}
);
background = {
anchors = (
{
name = bottom;
position = "{262, 0}";
},
{
name = center;
position = "{319, 355}";
},
{
name = top;
position = "{388, 710}";
}
);
paths = (
{
closed = 1;
nodes = (
"527 0 LINE",
"547 72 LINE",
"78 72 LINE",
"95 50 LINE",
"637 650 LINE",
"648 710 LINE",
"137 710 LINE",
"124 638 LINE",
"569 638 LINE",
"549 660 LINE",
"7 60 LINE",
"-4 0 LINE"
);
}
);
};
layerId = "A3B50665-EA37-4AC6-885C-1233CA61B6BD";
paths = (
{
closed = 1;
nodes = (
"527 0 LINE",
"547 72 LINE",
"78 72 LINE",
"101 50 LINE",
"637 650 LINE",
"648 710 LINE",
"137 710 LINE",
"124 638 LINE",
"569 638 LINE",
"543 660 LINE",
"7 60 LINE",
"-4 0 LINE"
);
}
);
width = 600;
},
{
anchors = (
{
name = bottom;
position = "{278, 0}";
},
{
name = center;
position = "{336, 355}";
},
{
name = top;
position = "{404, 710}";
}
);
background = {
anchors = (
{
name = bottom;
position = "{278, 0}";
},
{
name = center;
position = "{336, 355}";
},
{
name = top;
position = "{404, 710}";
}
);
paths = (
{
closed = 1;
nodes = (
"563 0 LINE",
"597 136 LINE",
"161 136 LINE",
"173 84 LINE",
"667 598 LINE",
"687 710 LINE",
"136 710 LINE",
"112 574 LINE",
"516 574 LINE",
"506 626 LINE",
"12 112 LINE",
"-8 0 LINE"
);
}
);
};
layerId = "014D4A40-7C7F-4023-B30E-1F55CE5EA091";
paths = (
{
closed = 1;
nodes = (
"563 0 LINE",
"597 136 LINE",
"161 136 LINE",
"181 84 LINE",
"667 598 LINE",
"687 710 LINE",
"136 710 LINE",
"112 574 LINE",
"516 574 LINE",
"498 626 LINE",
"12 112 LINE",
"-8 0 LINE"
);
}
);
width = 636;
},
{
anchors = (
{
name = bottom;
position = "{251, 0}";
},
{
name = center;
position = "{307, 355}";
},
{
name = top;
position = "{377, 710}";
}
);
background = {
anchors = (
{
name = bottom;
position = "{251, 0}";
},
{
name = center;
position = "{307, 355}";
},
{
name = top;
position = "{377, 710}";
}
);
paths = (
{
closed = 1;
nodes = (
"502 0 LINE",
"512 26 LINE",
"19 26 LINE",
"31 15 LINE",
"617 688 LINE",
"621 710 LINE",
"138 710 LINE",
"133 684 LINE",
"597 684 LINE",
"589 695 LINE",
"3 22 LINE",
"-1 0 LINE"
);
}
);
};
layerId = "7F092816-09A2-4631-A7F8-AD4571964C60";
paths = (
{
closed = 1;
nodes = (
"502 0 LINE",
"512 26 LINE",
"19 26 LINE",
"34 15 LINE",
"617 688 LINE",
"621 710 LINE",
"138 710 LINE",
"133 684 LINE",
"597 684 LINE",
"586 695 LINE",
"3 22 LINE",
"-1 0 LINE"
);
}
);
width = 574;
},
{
anchors = (
{
name = bottom;
position = "{288, 0}";
},
{
name = center;
position = "{347, 355}";
},
{
name = top;
position = "{414, 710}";
}
);
background = {
anchors = (
{
name = bottom;
position = "{288, 0}";
},
{
name = center;
position = "{347, 355}";
},
{
name = top;
position = "{414, 710}";
}
);
paths = (
{
closed = 1;
nodes = (
"585 0 LINE",
"627 174 LINE",
"211 174 LINE",
"222 104 LINE",
"684 567 LINE",
"710 710 LINE",
"136 710 LINE",
"105 536 LINE",
"485 536 LINE",
"478 606 LINE",
"16 143 LINE",
"-10 0 LINE"
);
}
);
};
layerId = "A0850C2E-74F0-4B2E-AE90-CE9FC07F2CBD";
paths = (
{
closed = 1;
nodes = (
"585 0 LINE",
"627 174 LINE",
"211 174 LINE",
"232 104 LINE",
"684 567 LINE",
"709 710 LINE",
"136 710 LINE",
"105 536 LINE",
"485 536 LINE",
"468 606 LINE",
"16 143 LINE",
"-9 0 LINE"
);
}
);
width = 657.27273;
}
);
leftKerningGroup = Z;
rightKerningGroup = Z;
unicode = 005A;
},
{
glyphname = a;
lastChange = "2019-05-31 12:22:43 +0000";
layers = (
{
anchors = (
{
name = bottom;
position = "{266, 0}";
},
{
name = ogonek;
position = "{474, 0}";
},
{
name = top;
position = "{354, 498}";
}
);
background = {
anchors = (
{
name = bottom;
position = "{266, 0}";
},
{
name = ogonek;
position = "{461, 0}";
},
{
name = top;
position = "{354, 498}";
}
);
paths = (
{
closed = 1;
nodes = (
"490 498 LINE",
"463 416 LINE",
"469 418 LINE",
"457 470 OFFCURVE",
"407 507 OFFCURVE",
"338 507 CURVE SMOOTH",
"195 507 OFFCURVE",
"77 391 OFFCURVE",
"48 225 CURVE SMOOTH",
"24 88 OFFCURVE",
"77 -8 OFFCURVE",
"203 -8 CURVE SMOOTH",
"299 -8 OFFCURVE",
"385 60 OFFCURVE",
"433 164 CURVE",
"417 178 LINE",
"381 0 LINE",
"461 0 LINE",
"549 498 LINE"
);
},
{
closed = 1;
nodes = (
"410 436 OFFCURVE",
"451 379 OFFCURVE",
"434 284 CURVE SMOOTH",
"411 155 OFFCURVE",
"323 63 OFFCURVE",
"226 63 CURVE SMOOTH",
"148 63 OFFCURVE",
"111 126 OFFCURVE",
"130 231 CURVE SMOOTH",
"152 355 OFFCURVE",
"230 436 OFFCURVE",
"328 436 CURVE SMOOTH"
);
}
);
};
layerId = "A3B50665-EA37-4AC6-885C-1233CA61B6BD";
paths = (
{
closed = 1;
nodes = (
"304 -8 OFFCURVE",
"381 46 OFFCURVE",
"431 167 CURVE",
"418 154 LINE",
"405 101 OFFCURVE",
"397 51 OFFCURVE",
"397 0 CURVE",
"474 0 LINE",
"474 34 OFFCURVE",
"481 106 OFFCURVE",
"492 169 CURVE SMOOTH",
"519 322 LINE SMOOTH",
"528 372 OFFCURVE",
"539 426 OFFCURVE",
"555 498 CURVE",
"497 498 LINE",
"466 426 LINE",
"486 449 LINE",
"462 481 OFFCURVE",
"400 507 OFFCURVE",
"339 507 CURVE SMOOTH",
"172 507 OFFCURVE",
"44 357 OFFCURVE",
"44 170 CURVE SMOOTH",
"44 56 OFFCURVE",
"107 -8 OFFCURVE",
"212 -8 CURVE SMOOTH"
);
},
{
closed = 1;
nodes = (
"161 64 OFFCURVE",
"125 104 OFFCURVE",
"125 177 CURVE SMOOTH",
"125 306 OFFCURVE",
"202 436 OFFCURVE",
"339 436 CURVE SMOOTH",
"394 436 OFFCURVE",
"437 418 OFFCURVE",
"466 380 CURVE",
"458 415 LINE",
"437 296 LINE SMOOTH",
"413 158 OFFCURVE",
"329 64 OFFCURVE",
"225 64 CURVE SMOOTH"
);
}
);
width = 579;
},
{
anchors = (
{
name = bottom;
position = "{274, 0}";
},
{
name = ogonek;
position = "{520, 0}";
},
{
name = top;
position = "{364, 508}";
}
);
background = {
anchors = (
{
name = bottom;
position = "{274, 0}";
},
{
name = ogonek;
position = "{508, 0}";
},
{
name = top;
position = "{364, 508}";
}
);
hints = (
{
horizontal = 1;
place = "{-8, 129}";
type = Stem;
},
{
horizontal = 1;
place = "{386, 129}";
type = Stem;
},
{
horizontal = 1;
place = "{672, -20}";
target = down;
type = TopGhost;
},
{
place = "{46, 134}";
type = Stem;
},
{
place = "{366, 134}";
type = Stem;
},
{
horizontal = 1;
place = "{0, 21}";
target = up;
type = BottomGhost;
},
{
place = "{385, 115}";
type = Stem;
}
);
paths = (
{
closed = 1;
nodes = (
"1293 506 LINE",
"1260 422 LINE",
"1272 435 LINE",
"1256 484 OFFCURVE",
"1208 516 OFFCURVE",
"1140 516 CURVE SMOOTH",
"994 516 OFFCURVE",
"860 402 OFFCURVE",
"830 232 CURVE SMOOTH",
"805 92 OFFCURVE",
"863 -10 OFFCURVE",
"1000 -10 CURVE SMOOTH",
"1101 -10 OFFCURVE",
"1180 49 OFFCURVE",
"1227 155 CURVE",
"1203 179 LINE",
"1161 0 LINE",
"1308 0 LINE",
"1398 506 LINE"
);
},
{
closed = 1;
nodes = (
"1192 389 OFFCURVE",
"1223 346 OFFCURVE",
"1211 276 CURVE SMOOTH",
"1195 182 OFFCURVE",
"1126 117 OFFCURVE",
"1054 117 CURVE SMOOTH",
"996 117 OFFCURVE",
"968 161 OFFCURVE",
"981 237 CURVE SMOOTH",
"996 326 OFFCURVE",
"1055 389 OFFCURVE",
"1131 389 CURVE SMOOTH"
);
},
{
closed = 1;
nodes = (
"153 516 OFFCURVE",
"28 361 OFFCURVE",
"28 190 CURVE SMOOTH",
"28 64 OFFCURVE",
"113 -10 OFFCURVE",
"245 -10 CURVE SMOOTH",
"429 -10 OFFCURVE",
"564 134 OFFCURVE",
"564 316 CURVE SMOOTH",
"564 442 OFFCURVE",
"479 516 OFFCURVE",
"350 516 CURVE SMOOTH"
);
},
{
closed = 1;
nodes = (
"210 117 OFFCURVE",
"180 152 OFFCURVE",
"180 209 CURVE SMOOTH",
"180 299 OFFCURVE",
"236 389 OFFCURVE",
"326 389 CURVE SMOOTH",
"381 389 OFFCURVE",
"413 356 OFFCURVE",
"413 298 CURVE SMOOTH",
"413 196 OFFCURVE",
"347 117 OFFCURVE",
"267 117 CURVE SMOOTH"
);
}
);
};
layerId = "014D4A40-7C7F-4023-B30E-1F55CE5EA091";
paths = (
{
closed = 1;
nodes = (
"312 -10 OFFCURVE",
"379 49 OFFCURVE",
"427 177 CURVE",
"405 155 LINE",
"389 114 OFFCURVE",
"377 49 OFFCURVE",
"377 0 CURVE",
"521 0 LINE",
"521 44 OFFCURVE",
"528 106 OFFCURVE",
"540 173 CURVE SMOOTH",
"567 325 LINE SMOOTH",
"580 397 OFFCURVE",
"594 465 OFFCURVE",
"602 506 CURVE",
"501 506 LINE",
"461 422 LINE",
"500 461 LINE",
"462 498 OFFCURVE",
"410 516 OFFCURVE",
"342 516 CURVE SMOOTH",
"162 516 OFFCURVE",
"28 374 OFFCURVE",
"28 184 CURVE SMOOTH",
"28 63 OFFCURVE",
"99 -10 OFFCURVE",
"215 -10 CURVE SMOOTH"
);
},
{
closed = 1;
nodes = (
"209 117 OFFCURVE",
"180 148 OFFCURVE",
"180 208 CURVE SMOOTH",
"180 316 OFFCURVE",
"248 391 OFFCURVE",
"346 391 CURVE SMOOTH",
"390 391 OFFCURVE",
"426 375 OFFCURVE",
"440 350 CURVE",
"434 408 LINE",
"417 312 LINE SMOOTH",
"396 192 OFFCURVE",
"337 117 OFFCURVE",
"264 117 CURVE SMOOTH"
);
}
);
width = 614;
},
{
anchors = (
{
name = bottom;
position = "{260, 0}";
},
{
name = ogonek;
position = "{439, 0}";
},
{
name = top;
position = "{347, 491}";
}
);
background = {
paths = (
{
closed = 1;
nodes = (
"493 492 LINE",
"462 395 LINE",
"467 403 LINE",
"457 460 OFFCURVE",
"405 501 OFFCURVE",
"325 501 CURVE SMOOTH",
"195 501 OFFCURVE",
"91 397 OFFCURVE",
"62 233 CURVE SMOOTH",
"36 86 OFFCURVE",
"92 -7 OFFCURVE",
"208 -7 CURVE SMOOTH",
"303 -7 OFFCURVE",
"394 68 OFFCURVE",
"436 174 CURVE",
"432 177 LINE",
"420 118 OFFCURVE",
"411 59 OFFCURVE",
"409 0 CURVE",
"439 0 LINE",
"439 34 OFFCURVE",
"446 106 OFFCURVE",
"457 169 CURVE SMOOTH",
"489 352 LINE SMOOTH",
"496 389 OFFCURVE",
"507 445 OFFCURVE",
"518 492 CURVE"
);
},
{
closed = 1;
nodes = (
"424 472 OFFCURVE",
"470 403 OFFCURVE",
"450 290 CURVE SMOOTH",
"423 138 OFFCURVE",
"322 22 OFFCURVE",
"210 22 CURVE SMOOTH",
"114 22 OFFCURVE",
"70 100 OFFCURVE",
"94 237 CURVE SMOOTH",
"119 376 OFFCURVE",
"213 472 OFFCURVE",
"324 472 CURVE SMOOTH"
);
}
);
};
layerId = "7F092816-09A2-4631-A7F8-AD4571964C60";
paths = (
{
closed = 1;
nodes = (
"301 -7 OFFCURVE",
"393 67 OFFCURVE",
"436 182 CURVE",
"431 182 LINE",
"418 112 OFFCURVE",
"411 54 OFFCURVE",
"409 0 CURVE",
"439 0 LINE",
"439 36 OFFCURVE",
"447 110 OFFCURVE",
"457 169 CURVE SMOOTH",
"491 362 LINE SMOOTH",
"496 391 OFFCURVE",
"505 435 OFFCURVE",
"518 492 CURVE",
"495 492 LINE",
"475 430 LINE",
"485 439 LINE",
"450 476 OFFCURVE",
"390 501 OFFCURVE",
"330 501 CURVE SMOOTH",
"170 501 OFFCURVE",
"57 348 OFFCURVE",
"57 168 CURVE SMOOTH",
"57 57 OFFCURVE",
"112 -7 OFFCURVE",
"208 -7 CURVE SMOOTH"
);
},
{
closed = 1;
nodes = (
"131 22 OFFCURVE",
"88 74 OFFCURVE",
"88 167 CURVE SMOOTH",
"88 336 OFFCURVE",
"193 472 OFFCURVE",
"329 472 CURVE SMOOTH",
"392 472 OFFCURVE",
"445 446 OFFCURVE",
"477 407 CURVE",
"471 421 LINE",
"450 300 LINE SMOOTH",
"422 137 OFFCURVE",
"321 22 OFFCURVE",
"210 22 CURVE SMOOTH"
);
}
);
width = 554;
},
{
anchors = (
{
name = bottom;
position = "{280, 0}";
},
{
name = ogonek;
position = "{552, 0}";
},
{
name = top;
position = "{371, 514}";
}
);
background = {
paths = (
{
closed = 1;
nodes = (
"164 521 OFFCURVE",
"20 383 OFFCURVE",
"20 198 CURVE SMOOTH",
"20 72 OFFCURVE",
"103 -11 OFFCURVE",
"252 -11 CURVE SMOOTH",
"443 -11 OFFCURVE",
"587 128 OFFCURVE",
"587 312 CURVE SMOOTH",
"587 438 OFFCURVE",
"503 521 OFFCURVE",
"355 521 CURVE SMOOTH"
);
},
{
closed = 1;
nodes = (
"239 149 OFFCURVE",
"212 176 OFFCURVE",
"212 226 CURVE SMOOTH",
"212 301 OFFCURVE",
"256 361 OFFCURVE",
"324 361 CURVE SMOOTH",
"369 361 OFFCURVE",
"394 334 OFFCURVE",
"394 283 CURVE SMOOTH",
"394 209 OFFCURVE",
"352 149 OFFCURVE",
"287 149 CURVE SMOOTH"
);
}
);
};
layerId = "A0850C2E-74F0-4B2E-AE90-CE9FC07F2CBD";
paths = (
{
closed = 1;
nodes = (
"304 -11 OFFCURVE",
"371 45 OFFCURVE",
"424 165 CURVE",
"418 200 LINE",
"392 154 OFFCURVE",
"373 70 OFFCURVE",
"373 0 CURVE",
"552 0 LINE",
"552 53 OFFCURVE",
"558 116 OFFCURVE",
"569 176 CURVE SMOOTH",
"595 325 LINE SMOOTH",
"607 386 OFFCURVE",
"620 445 OFFCURVE",
"637 510 CURVE",
"515 510 LINE",
"459 425 LINE",
"512 444 LINE",
"469 495 OFFCURVE",
"411 521 OFFCURVE",
"339 521 CURVE SMOOTH",
"158 521 OFFCURVE",
"20 381 OFFCURVE",
"20 197 CURVE SMOOTH",
"20 68 OFFCURVE",
"95 -11 OFFCURVE",
"217 -11 CURVE SMOOTH"
);
},
{
closed = 1;
nodes = (
"238 149 OFFCURVE",
"212 175 OFFCURVE",
"212 219 CURVE SMOOTH",
"212 304 OFFCURVE",
"264 361 OFFCURVE",
"341 361 CURVE SMOOTH",
"378 361 OFFCURVE",
"410 349 OFFCURVE",
"421 331 CURVE",
"419 373 LINE",
"403 282 LINE SMOOTH",
"389 199 OFFCURVE",
"344 149 OFFCURVE",
"283 149 CURVE SMOOTH"
);
}
);
width = 635;
}
);
leftKerningGroup = o;
note = d;
rightKerningGroup = u;
unicode = 0061;
},
